<?xml version="1.0" encoding="UTF-8"?>
<!--Generator: Apple Native CoreSVG 336-->
<!DOCTYPE svg
PUBLIC "-//W3C//DTD SVG 1.1//EN"
       "http://www.w3.org/Graphics/SVG/1.1/DTD/svg11.dtd">
<svg version="1.1" xmlns="http://www.w3.org/2000/svg" xmlns:xlink="http://www.w3.org/1999/xlink" viewBox="0 0 3300 2200">
 <!--glyph: "101306", point size: 100.0, font version: "20.0d8e1", template writer version: "138.0.0"-->
 <style>.monochrome-0 {-sfsymbols-motion-group:0;-sfsymbols-layer-tags:figure.pool.swim}

.multicolor-0:tintColor {-sfsymbols-motion-group:0;-sfsymbols-layer-tags:figure.pool.swim}

.hierarchical-0:primary {-sfsymbols-motion-group:0;-sfsymbols-layer-tags:figure.pool.swim}

.SFSymbolsPreviewWireframe {fill:none;opacity:1.0;stroke:black;stroke-width:0.5}
</style>
 <g id="Notes">
  <rect height="2200" id="artboard" style="fill:white;opacity:1" width="3300" x="0" y="0"/>
  <line style="fill:none;stroke:black;opacity:1;stroke-width:0.5;" x1="263" x2="3036" y1="292" y2="292"/>
  <text style="stroke:none;fill:black;font-family:sans-serif;font-size:13;font-weight:bold;" transform="matrix(1 0 0 1 263 322)">Weight/Scale Variations</text>
  <text style="stroke:none;fill:black;font-family:sans-serif;font-size:13;text-anchor:middle;" transform="matrix(1 0 0 1 559.711 322)">Ultralight</text>
  <text style="stroke:none;fill:black;font-family:sans-serif;font-size:13;text-anchor:middle;" transform="matrix(1 0 0 1 856.422 322)">Thin</text>
  <text style="stroke:none;fill:black;font-family:sans-serif;font-size:13;text-anchor:middle;" transform="matrix(1 0 0 1 1153.13 322)">Light</text>
  <text style="stroke:none;fill:black;font-family:sans-serif;font-size:13;text-anchor:middle;" transform="matrix(1 0 0 1 1449.84 322)">Regular</text>
  <text style="stroke:none;fill:black;font-family:sans-serif;font-size:13;text-anchor:middle;" transform="matrix(1 0 0 1 1746.56 322)">Medium</text>
  <text style="stroke:none;fill:black;font-family:sans-serif;font-size:13;text-anchor:middle;" transform="matrix(1 0 0 1 2043.27 322)">Semibold</text>
  <text style="stroke:none;fill:black;font-family:sans-serif;font-size:13;text-anchor:middle;" transform="matrix(1 0 0 1 2339.98 322)">Bold</text>
  <text style="stroke:none;fill:black;font-family:sans-serif;font-size:13;text-anchor:middle;" transform="matrix(1 0 0 1 2636.69 322)">Heavy</text>
  <text style="stroke:none;fill:black;font-family:sans-serif;font-size:13;text-anchor:middle;" transform="matrix(1 0 0 1 2933.4 322)">Black</text>
  <line style="fill:none;stroke:black;opacity:1;stroke-width:0.5;" x1="263" x2="3036" y1="1903" y2="1903"/>
  <g transform="matrix(0.2 0 0 0.2 263 1933)">
   <path d="m46.2402 4.15039c21.7773 0 39.4531-17.627 39.4531-39.4043s-17.6758-39.4043-39.4531-39.4043c-21.7285 0-39.4043 17.627-39.4043 39.4043s17.6758 39.4043 39.4043 39.4043Zm0-7.42188c-17.6758 0-31.9336-14.3066-31.9336-31.9824s14.2578-31.9824 31.9336-31.9824 31.9824 14.3066 31.9824 31.9824-14.3066 31.9824-31.9824 31.9824Zm-17.9688-31.9824c0 2.14844 1.51367 3.61328 3.75977 3.61328h10.498v10.5957c0 2.19727 1.46484 3.71094 3.61328 3.71094 2.24609 0 3.71094-1.51367 3.71094-3.71094v-10.5957h10.5957c2.19727 0 3.71094-1.46484 3.71094-3.61328 0-2.19727-1.51367-3.71094-3.71094-3.71094h-10.5957v-10.5469c0-2.24609-1.46484-3.75977-3.71094-3.75977-2.14844 0-3.61328 1.51367-3.61328 3.75977v10.5469h-10.498c-2.24609 0-3.75977 1.51367-3.75977 3.71094Z"/>
  </g>
  <g transform="matrix(0.2 0 0 0.2 281.506 1933)">
   <path d="m58.5449 14.5508c27.4902 0 49.8047-22.3145 49.8047-49.8047s-22.3145-49.8047-49.8047-49.8047-49.8047 22.3145-49.8047 49.8047 22.3145 49.8047 49.8047 49.8047Zm0-8.30078c-22.9492 0-41.5039-18.5547-41.5039-41.5039s18.5547-41.5039 41.5039-41.5039 41.5039 18.5547 41.5039 41.5039-18.5547 41.5039-41.5039 41.5039Zm-22.6562-41.5039c0 2.39258 1.66016 4.00391 4.15039 4.00391h14.3555v14.4043c0 2.44141 1.66016 4.15039 4.05273 4.15039 2.44141 0 4.15039-1.66016 4.15039-4.15039v-14.4043h14.4043c2.44141 0 4.15039-1.61133 4.15039-4.00391 0-2.44141-1.70898-4.15039-4.15039-4.15039h-14.4043v-14.3555c0-2.49023-1.70898-4.19922-4.15039-4.19922-2.39258 0-4.05273 1.70898-4.05273 4.19922v14.3555h-14.3555c-2.49023 0-4.15039 1.70898-4.15039 4.15039Z"/>
  </g>
  <g transform="matrix(0.2 0 0 0.2 304.924 1933)">
   <path d="m74.8535 28.3203c35.1074 0 63.623-28.4668 63.623-63.5742s-28.5156-63.623-63.623-63.623-63.5742 28.5156-63.5742 63.623 28.4668 63.5742 63.5742 63.5742Zm0-9.08203c-30.127 0-54.4922-24.3652-54.4922-54.4922s24.3652-54.4922 54.4922-54.4922 54.4922 24.3652 54.4922 54.4922-24.3652 54.4922-54.4922 54.4922Zm-28.8574-54.4922c0 2.58789 1.85547 4.39453 4.58984 4.39453h19.7266v19.7754c0 2.68555 1.85547 4.58984 4.44336 4.58984 2.68555 0 4.54102-1.85547 4.54102-4.58984v-19.7754h19.7754c2.68555 0 4.58984-1.80664 4.58984-4.39453 0-2.73438-1.85547-4.58984-4.58984-4.58984h-19.7754v-19.7266c0-2.73438-1.85547-4.63867-4.54102-4.63867-2.58789 0-4.44336 1.9043-4.44336 4.63867v19.7266h-19.7266c-2.73438 0-4.58984 1.85547-4.58984 4.58984Z"/>
  </g>
  <text style="stroke:none;fill:black;font-family:sans-serif;font-size:13;font-weight:bold;" transform="matrix(1 0 0 1 263 1953)">Design Variations</text>
  <text style="stroke:none;fill:black;font-family:sans-serif;font-size:13;" transform="matrix(1 0 0 1 263 1971)">Symbols are supported in up to nine weights and three scales.</text>
  <text style="stroke:none;fill:black;font-family:sans-serif;font-size:13;" transform="matrix(1 0 0 1 263 1989)">For optimal layout with text and other symbols, vertically align</text>
  <text style="stroke:none;fill:black;font-family:sans-serif;font-size:13;" transform="matrix(1 0 0 1 263 2007)">symbols with the adjacent text.</text>
  <line style="fill:none;stroke:#00AEEF;stroke-width:0.5;opacity:1.0;" x1="776" x2="776" y1="1919" y2="1933"/>
  <g transform="matrix(0.2 0 0 0.2 776 1933)">
   <path d="m16.5527 0.78125c2.58789 0 3.85742-0.976562 4.78516-3.71094l6.29883-17.2363h28.8086l6.29883 17.2363c0.927734 2.73438 2.19727 3.71094 4.73633 3.71094 2.58789 0 4.24805-1.5625 4.24805-4.00391 0-0.830078-0.146484-1.61133-0.537109-2.63672l-22.9004-60.9863c-1.12305-2.97852-3.125-4.49219-6.25-4.49219-3.02734 0-5.07812 1.46484-6.15234 4.44336l-22.9004 61.084c-0.390625 1.02539-0.537109 1.80664-0.537109 2.63672 0 2.44141 1.5625 3.95508 4.10156 3.95508Zm13.4766-28.3691 11.8652-32.8613h0.244141l11.8652 32.8613Z"/>
  </g>
  <line style="fill:none;stroke:#00AEEF;stroke-width:0.5;opacity:1.0;" x1="792.836" x2="792.836" y1="1919" y2="1933"/>
  <text style="stroke:none;fill:black;font-family:sans-serif;font-size:13;font-weight:bold;" transform="matrix(1 0 0 1 776 1953)">Margins</text>
  <text style="stroke:none;fill:black;font-family:sans-serif;font-size:13;" transform="matrix(1 0 0 1 776 1971)">Leading and trailing margins on the left and right side of each symbol</text>
  <text style="stroke:none;fill:black;font-family:sans-serif;font-size:13;" transform="matrix(1 0 0 1 776 1989)">can be adjusted by modifying the x-location of the margin guidelines.</text>
  <text style="stroke:none;fill:black;font-family:sans-serif;font-size:13;" transform="matrix(1 0 0 1 776 2007)">Modifications are automatically applied proportionally to all</text>
  <text style="stroke:none;fill:black;font-family:sans-serif;font-size:13;" transform="matrix(1 0 0 1 776 2025)">scales and weights.</text>
  <g transform="matrix(0.2 0 0 0.2 1289 1933)">
   <path d="m14.209 9.32617 8.49609 8.54492c4.29688 4.3457 9.22852 4.05273 13.8672-1.07422l53.4668-58.9355-4.83398-4.88281-53.0762 58.3984c-1.75781 2.00195-3.41797 2.49023-5.76172 0.146484l-5.85938-5.81055c-2.34375-2.29492-1.80664-4.00391 0.195312-5.81055l57.373-54.0039-4.88281-4.83398-57.959 54.4434c-4.93164 4.58984-5.32227 9.47266-1.02539 13.8184Zm32.0801-90.9668c-2.09961 2.05078-2.24609 4.93164-1.07422 6.88477 1.17188 1.80664 3.4668 2.97852 6.68945 2.14844 7.32422-1.70898 14.9414-2.00195 22.0703 2.68555l-2.92969 7.27539c-1.70898 4.15039-0.830078 7.08008 1.85547 9.81445l11.4746 11.5723c2.44141 2.44141 4.49219 2.53906 7.32422 2.05078l5.32227-0.976562 3.32031 3.36914-0.195312 2.7832c-0.195312 2.49023 0.439453 4.39453 2.88086 6.78711l3.80859 3.71094c2.39258 2.39258 5.46875 2.53906 7.8125 0.195312l14.5508-14.5996c2.34375-2.34375 2.24609-5.32227-0.146484-7.71484l-3.85742-3.80859c-2.39258-2.39258-4.24805-3.17383-6.64062-2.97852l-2.88086 0.244141-3.22266-3.17383 1.2207-5.61523c0.634766-2.83203-0.146484-5.0293-3.07617-7.95898l-10.9863-10.9375c-16.6992-16.6016-38.8672-16.2109-53.3203-1.75781Zm7.4707 1.85547c12.1582-8.88672 28.6133-7.37305 39.7461 3.75977l12.1582 12.0605c1.17188 1.17188 1.36719 2.09961 1.02539 3.80859l-1.61133 7.42188 7.51953 7.42188 4.93164-0.292969c1.26953-0.0488281 1.66016 0.0488281 2.63672 1.02539l2.88086 2.88086-12.207 12.207-2.88086-2.88086c-0.976562-0.976562-1.12305-1.36719-1.07422-2.68555l0.341797-4.88281-7.4707-7.42188-7.61719 1.26953c-1.61133 0.341797-2.34375 0.195312-3.56445-0.976562l-10.0098-10.0098c-1.26953-1.17188-1.41602-2.00195-0.634766-3.85742l4.39453-10.4492c-7.8125-7.27539-17.9688-10.4004-28.125-7.42188-0.78125 0.195312-1.07422-0.439453-0.439453-0.976562Z"/>
  </g>
  <text style="stroke:none;fill:black;font-family:sans-serif;font-size:13;font-weight:bold;" transform="matrix(1 0 0 1 1289 1953)">Exporting</text>
  <text style="stroke:none;fill:black;font-family:sans-serif;font-size:13;" transform="matrix(1 0 0 1 1289 1971)">Symbols should be outlined when exporting to ensure the</text>
  <text style="stroke:none;fill:black;font-family:sans-serif;font-size:13;" transform="matrix(1 0 0 1 1289 1989)">design is preserved when submitting to Xcode.</text>
  <text id="template-version" style="stroke:none;fill:black;font-family:sans-serif;font-size:13;text-anchor:end;" transform="matrix(1 0 0 1 3036 1933)">Template v.6.0</text>
  <text style="stroke:none;fill:black;font-family:sans-serif;font-size:13;text-anchor:end;" transform="matrix(1 0 0 1 3036 1951)">Requires Xcode 16 or greater</text>
  <text id="descriptive-name" style="stroke:none;fill:black;font-family:sans-serif;font-size:13;text-anchor:end;" transform="matrix(1 0 0 1 3036 1969)">Generated from figure.pool.swim</text>
  <text style="stroke:none;fill:black;font-family:sans-serif;font-size:13;text-anchor:end;" transform="matrix(1 0 0 1 3036 1987)">Typeset at 100.0 points</text>
  <text style="stroke:none;fill:black;font-family:sans-serif;font-size:13;" transform="matrix(1 0 0 1 263 726)">Small</text>
  <text style="stroke:none;fill:black;font-family:sans-serif;font-size:13;" transform="matrix(1 0 0 1 263 1156)">Medium</text>
  <text style="stroke:none;fill:black;font-family:sans-serif;font-size:13;" transform="matrix(1 0 0 1 263 1586)">Large</text>
 </g>
 <g id="Guides">
  <g id="H-reference" style="fill:#27AAE1;stroke:none;" transform="matrix(1 0 0 1 339 696)">
   <path d="M0.993654 0L3.63775 0L29.3281-67.1323L30.0303-67.1323L30.0303-70.459L28.1226-70.459ZM11.6885-24.4799L46.9815-24.4799L46.2315-26.7285L12.4385-26.7285ZM55.1196 0L57.7637 0L30.6382-70.459L29.4326-70.459L29.4326-67.1323Z"/>
  </g>
  <line id="Baseline-S" style="fill:none;stroke:#27AAE1;opacity:1;stroke-width:0.5;" x1="263" x2="3036" y1="696" y2="696"/>
  <line id="Capline-S" style="fill:none;stroke:#27AAE1;opacity:1;stroke-width:0.5;" x1="263" x2="3036" y1="625.541" y2="625.541"/>
  <g id="H-reference" style="fill:#27AAE1;stroke:none;" transform="matrix(1 0 0 1 339 1126)">
   <path d="M0.993654 0L3.63775 0L29.3281-67.1323L30.0303-67.1323L30.0303-70.459L28.1226-70.459ZM11.6885-24.4799L46.9815-24.4799L46.2315-26.7285L12.4385-26.7285ZM55.1196 0L57.7637 0L30.6382-70.459L29.4326-70.459L29.4326-67.1323Z"/>
  </g>
  <line id="Baseline-M" style="fill:none;stroke:#27AAE1;opacity:1;stroke-width:0.5;" x1="263" x2="3036" y1="1126" y2="1126"/>
  <line id="Capline-M" style="fill:none;stroke:#27AAE1;opacity:1;stroke-width:0.5;" x1="263" x2="3036" y1="1055.54" y2="1055.54"/>
  <g id="H-reference" style="fill:#27AAE1;stroke:none;" transform="matrix(1 0 0 1 339 1556)">
   <path d="M0.993654 0L3.63775 0L29.3281-67.1323L30.0303-67.1323L30.0303-70.459L28.1226-70.459ZM11.6885-24.4799L46.9815-24.4799L46.2315-26.7285L12.4385-26.7285ZM55.1196 0L57.7637 0L30.6382-70.459L29.4326-70.459L29.4326-67.1323Z"/>
  </g>
  <line id="Baseline-L" style="fill:none;stroke:#27AAE1;opacity:1;stroke-width:0.5;" x1="263" x2="3036" y1="1556" y2="1556"/>
  <line id="Capline-L" style="fill:none;stroke:#27AAE1;opacity:1;stroke-width:0.5;" x1="263" x2="3036" y1="1485.54" y2="1485.54"/>
  <line id="right-margin-Black-S" style="fill:none;stroke:#00AEEF;stroke-width:0.5;opacity:1.0;" x1="2992.19" x2="2992.19" y1="600.785" y2="720.121"/>
  <line id="left-margin-Black-S" style="fill:none;stroke:#00AEEF;stroke-width:0.5;opacity:1.0;" x1="2874.61" x2="2874.61" y1="600.785" y2="720.121"/>
  <line id="right-margin-Regular-S" style="fill:none;stroke:#00AEEF;stroke-width:0.5;opacity:1.0;" x1="1505.29" x2="1505.29" y1="600.785" y2="720.121"/>
  <line id="left-margin-Regular-S" style="fill:none;stroke:#00AEEF;stroke-width:0.5;opacity:1.0;" x1="1394.4" x2="1394.4" y1="600.785" y2="720.121"/>
  <line id="right-margin-Ultralight-S" style="fill:none;stroke:#00AEEF;stroke-width:0.5;opacity:1.0;" x1="612.953" x2="612.953" y1="600.785" y2="720.121"/>
  <line id="left-margin-Ultralight-S" style="fill:none;stroke:#00AEEF;stroke-width:0.5;opacity:1.0;" x1="506.469" x2="506.469" y1="600.785" y2="720.121"/>
 </g>
 <g id="Symbols">
  <g id="Black-S" transform="matrix(1 0 0 1 2874.61 696)">
   <path class="monochrome-0 multicolor-0:tintColor hierarchical-0:primary SFSymbolsPreviewWireframe" d="M82.5684-43.2129C87.9395-43.2129 92.334-47.6074 92.334-52.9785C92.334-58.3496 87.9395-62.7441 82.5684-62.7441C77.1973-62.7441 72.8027-58.3496 72.8027-52.9785C72.8027-47.6074 77.1973-43.2129 82.5684-43.2129ZM43.7012-37.3047C50.4883-35.6934 53.9062-31.3477 58.7891-31.3477C64.3555-31.3477 67.9688-36.9141 76.8555-37.793L52.6367-62.9395C50.5371-65.1367 47.3145-65.4297 44.6777-63.5742L28.7109-52.2461C25.4395-49.9512 25.7812-46.3867 27.6855-44.2871C29.2969-42.4805 32.1777-41.748 34.9609-43.7012L47.2168-52.3438L53.4668-45.8984C54.2969-45.0684 54.1992-44.1406 53.2227-43.5059ZM13.2812-18.457L17.9688-18.457C29.6387-18.457 31.7383-25 38.3789-25C43.5547-25 47.0703-18.457 58.7891-18.457C70.5078-18.457 74.0234-25 79.1992-25C85.8398-25 87.9395-18.457 99.6094-18.457L104.297-18.457C106.25-18.457 107.812-20.0195 107.812-21.9727C107.812-23.9258 106.25-25.4883 104.297-25.4883L99.6094-25.4883C92.7246-25.4883 90.4297-32.0312 79.1992-32.0312C69.4336-32.0312 65.6738-25.4883 58.7891-25.4883C51.9043-25.4883 48.1445-32.0312 38.3789-32.0312C27.1484-32.0312 24.8535-25.4883 17.9688-25.4883L13.2812-25.4883C11.3281-25.4883 9.76562-23.9258 9.76562-21.9727C9.76562-20.0195 11.3281-18.457 13.2812-18.457ZM13.623-5.0293C15.2344-5.0293 16.5527-6.34766 16.5527-7.95898C16.5527-9.57031 15.2344-10.8887 13.623-10.8887C12.0117-10.8887 10.6934-9.57031 10.6934-7.95898C10.6934-6.34766 12.0117-5.0293 13.623-5.0293ZM21.4355-6.39648C23.0469-6.39648 24.3652-7.71484 24.3652-9.32617C24.3652-10.9375 23.0469-12.2559 21.4355-12.2559C19.8242-12.2559 18.5059-10.9375 18.5059-9.32617C18.5059-7.71484 19.8242-6.39648 21.4355-6.39648ZM28.5645-9.76562C30.1758-9.76562 31.4941-11.084 31.4941-12.6953C31.4941-14.3066 30.1758-15.625 28.5645-15.625C26.9531-15.625 25.6348-14.3066 25.6348-12.6953C25.6348-11.084 26.9531-9.76562 28.5645-9.76562ZM36.1816-12.1094C37.793-12.1094 39.1113-13.4277 39.1113-15.0391C39.1113-16.6504 37.793-17.9688 36.1816-17.9688C34.5703-17.9688 33.252-16.6504 33.252-15.0391C33.252-13.4277 34.5703-12.1094 36.1816-12.1094ZM43.75-9.76562C45.3613-9.76562 46.6797-11.084 46.6797-12.6953C46.6797-14.3066 45.3613-15.625 43.75-15.625C42.1387-15.625 40.8203-14.3066 40.8203-12.6953C40.8203-11.084 42.1387-9.76562 43.75-9.76562ZM50.8789-6.39648C52.4902-6.39648 53.8086-7.71484 53.8086-9.32617C53.8086-10.9375 52.4902-12.2559 50.8789-12.2559C49.2676-12.2559 47.9492-10.9375 47.9492-9.32617C47.9492-7.71484 49.2676-6.39648 50.8789-6.39648ZM58.7891-5.0293C60.4004-5.0293 61.7188-6.34766 61.7188-7.95898C61.7188-9.57031 60.4004-10.8887 58.7891-10.8887C57.1777-10.8887 55.8594-9.57031 55.8594-7.95898C55.8594-6.34766 57.1777-5.0293 58.7891-5.0293ZM66.6992-6.39648C68.3105-6.39648 69.6289-7.71484 69.6289-9.32617C69.6289-10.9375 68.3105-12.2559 66.6992-12.2559C65.0879-12.2559 63.7695-10.9375 63.7695-9.32617C63.7695-7.71484 65.0879-6.39648 66.6992-6.39648ZM73.8281-9.76562C75.4395-9.76562 76.7578-11.084 76.7578-12.6953C76.7578-14.3066 75.4395-15.625 73.8281-15.625C72.2168-15.625 70.8984-14.3066 70.8984-12.6953C70.8984-11.084 72.2168-9.76562 73.8281-9.76562ZM81.3965-12.1094C83.0078-12.1094 84.3262-13.4277 84.3262-15.0391C84.3262-16.6504 83.0078-17.9688 81.3965-17.9688C79.7852-17.9688 78.4668-16.6504 78.4668-15.0391C78.4668-13.4277 79.7852-12.1094 81.3965-12.1094ZM89.0137-9.76562C90.625-9.76562 91.9434-11.084 91.9434-12.6953C91.9434-14.3066 90.625-15.625 89.0137-15.625C87.4023-15.625 86.084-14.3066 86.084-12.6953C86.084-11.084 87.4023-9.76562 89.0137-9.76562ZM96.1426-6.39648C97.7539-6.39648 99.0723-7.71484 99.0723-9.32617C99.0723-10.9375 97.7539-12.2559 96.1426-12.2559C94.5312-12.2559 93.2129-10.9375 93.2129-9.32617C93.2129-7.71484 94.5312-6.39648 96.1426-6.39648ZM103.955-5.0293C105.566-5.0293 106.885-6.34766 106.885-7.95898C106.885-9.57031 105.566-10.8887 103.955-10.8887C102.344-10.8887 101.025-9.57031 101.025-7.95898C101.025-6.34766 102.344-5.0293 103.955-5.0293Z"/>
  </g>
  <g id="Regular-S" transform="matrix(1 0 0 1 1394.4 696)">
   <path class="monochrome-0 multicolor-0:tintColor hierarchical-0:primary SFSymbolsPreviewWireframe" d="M75.9766-41.1621C80.6641-41.1621 84.4727-44.9707 84.4727-49.6582C84.4727-54.3945 80.6641-58.1543 75.9766-58.1543C71.2891-58.1543 67.4805-54.3945 67.4805-49.6582C67.4805-44.9707 71.2891-41.1621 75.9766-41.1621ZM42.3828-35.4492C46.8262-33.6426 49.3164-30.4199 55.4199-30.4199C62.6465-30.4199 64.4531-34.8145 70.7031-36.2793L48.4863-59.375C46.7773-61.1328 44.1895-61.377 42.0898-59.9121L26.8555-49.0723C24.2188-47.2168 24.4629-44.4336 25.9766-42.7734C27.2461-41.4062 29.4922-40.8203 31.6895-42.334L44.0918-51.0742L51.0742-43.8965C51.8555-43.0664 52.0996-41.8457 50.8789-41.0645ZM12.1094-19.8242L16.1621-19.8242C26.6113-19.8242 28.8574-26.123 35.791-26.123C42.7734-26.123 45.0195-19.8242 55.4199-19.8242C65.8691-19.8242 68.1152-26.123 75.0488-26.123C82.0312-26.123 84.2773-19.8242 94.6777-19.8242L98.7305-19.8242C100.049-19.8242 101.123-20.8496 101.123-22.168C101.123-23.5352 100.049-24.5605 98.7305-24.5605L94.6777-24.5605C87.5-24.5605 85.0586-30.8594 75.0488-30.8594C65.0879-30.8594 62.6465-24.5605 55.4199-24.5605C48.2422-24.5605 45.8008-30.8594 35.791-30.8594C25.8301-30.8594 23.3887-24.5605 16.1621-24.5605L12.1094-24.5605C10.791-24.5605 9.76562-23.5352 9.76562-22.168C9.76562-20.8496 10.791-19.8242 12.1094-19.8242ZM13.1348-9.13086C14.4531-9.13086 15.5273-10.1562 15.5273-11.5234C15.5273-12.8418 14.4531-13.916 13.1348-13.916C11.7676-13.916 10.7422-12.8418 10.7422-11.5234C10.7422-10.1562 11.7676-9.13086 13.1348-9.13086ZM20.3125-10.4004C21.6309-10.4004 22.7051-11.4746 22.7051-12.793C22.7051-14.1602 21.6309-15.1855 20.3125-15.1855C18.9453-15.1855 17.9199-14.1602 17.9199-12.793C17.9199-11.4746 18.9453-10.4004 20.3125-10.4004ZM27.0508-13.623C28.418-13.623 29.4434-14.6973 29.4434-16.0156C29.4434-17.3828 28.418-18.4082 27.0508-18.4082C25.7324-18.4082 24.6582-17.3828 24.6582-16.0156C24.6582-14.6973 25.7324-13.623 27.0508-13.623ZM34.375-15.3809C35.6934-15.3809 36.7676-16.4062 36.7676-17.7734C36.7676-19.0918 35.6934-20.166 34.375-20.166C33.0078-20.166 31.9824-19.0918 31.9824-17.7734C31.9824-16.4062 33.0078-15.3809 34.375-15.3809ZM41.6504-13.623C43.0176-13.623 44.043-14.6973 44.043-16.0156C44.043-17.3828 43.0176-18.4082 41.6504-18.4082C40.332-18.4082 39.2578-17.3828 39.2578-16.0156C39.2578-14.6973 40.332-13.623 41.6504-13.623ZM48.4863-10.4004C49.8047-10.4004 50.8789-11.4746 50.8789-12.793C50.8789-14.1602 49.8047-15.1855 48.4863-15.1855C47.168-15.1855 46.0938-14.1602 46.0938-12.793C46.0938-11.4746 47.168-10.4004 48.4863-10.4004ZM55.4688-9.13086C56.8359-9.13086 57.8613-10.1562 57.8613-11.5234C57.8613-12.8418 56.8359-13.916 55.4688-13.916C54.1504-13.916 53.0762-12.8418 53.0762-11.5234C53.0762-10.1562 54.1504-9.13086 55.4688-9.13086ZM62.5-10.4004C63.8184-10.4004 64.8926-11.4746 64.8926-12.793C64.8926-14.1602 63.8184-15.1855 62.5-15.1855C61.1328-15.1855 60.1074-14.1602 60.1074-12.793C60.1074-11.4746 61.1328-10.4004 62.5-10.4004ZM69.2871-13.623C70.6543-13.623 71.6797-14.6973 71.6797-16.0156C71.6797-17.3828 70.6543-18.4082 69.2871-18.4082C67.9688-18.4082 66.9434-17.3828 66.9434-16.0156C66.9434-14.6973 67.9688-13.623 69.2871-13.623ZM76.6113-15.3809C77.9297-15.3809 79.0039-16.4062 79.0039-17.7734C79.0039-19.0918 77.9297-20.166 76.6113-20.166C75.293-20.166 74.2188-19.0918 74.2188-17.7734C74.2188-16.4062 75.293-15.3809 76.6113-15.3809ZM83.8867-13.623C85.2539-13.623 86.2793-14.6973 86.2793-16.0156C86.2793-17.3828 85.2539-18.4082 83.8867-18.4082C82.5684-18.4082 81.543-17.3828 81.543-16.0156C81.543-14.6973 82.5684-13.623 83.8867-13.623ZM90.6738-10.4004C92.041-10.4004 93.0664-11.4746 93.0664-12.793C93.0664-14.1602 92.041-15.1855 90.6738-15.1855C89.3555-15.1855 88.2812-14.1602 88.2812-12.793C88.2812-11.4746 89.3555-10.4004 90.6738-10.4004ZM97.8516-9.13086C99.1699-9.13086 100.244-10.1562 100.244-11.5234C100.244-12.8418 99.1699-13.916 97.8516-13.916C96.5332-13.916 95.459-12.8418 95.459-11.5234C95.459-10.1562 96.5332-9.13086 97.8516-9.13086Z"/>
  </g>
  <g id="Ultralight-S" transform="matrix(1 0 0 1 506.469 696)">
   <path class="monochrome-0 multicolor-0:tintColor hierarchical-0:primary SFSymbolsPreviewWireframe" d="M71.7989-39.6182C76.0323-39.6182 79.523-43.1089 79.523-47.3877C79.523-51.6245 76.0323-55.1118 71.7989-55.1118C67.52-55.1118 64.0293-51.6245 64.0293-47.3877C64.0293-43.1089 67.52-39.6182 71.7989-39.6182ZM42.9277-35.3584C46.6899-33.5063 48.9985-31.1011 53.2403-31.1011C58.0601-31.1011 60.3208-34.2695 65.1177-36.0977L46.3521-55.6514C44.7793-57.3184 42.4185-57.5171 40.5005-56.1431L26.6284-46.3023C24.2188-44.583 24.4629-42.0269 25.8857-40.5484C27.0645-39.3174 29.0835-38.8223 31.0537-40.1997L42.3208-48.168L48.7129-41.626C49.4033-40.8867 49.6021-39.7569 48.5176-39.021ZM10.7925-23.1845L13.9824-23.1845C23.251-23.1845 26.042-29.4834 33.6113-29.4834C41.1841-29.4834 43.9297-23.1845 53.2403-23.1845C62.5088-23.1845 65.2998-29.4834 72.8692-29.4834C80.4419-29.4834 83.1875-23.1845 92.4981-23.1845L95.688-23.1845C96.2344-23.1845 96.7183-23.6196 96.7183-24.2114C96.7183-24.8066 96.2344-25.2417 95.688-25.2417L92.4981-25.2417C84.5938-25.2417 81.7891-31.5405 72.8692-31.5405C63.9072-31.5405 61.148-25.2417 53.2403-25.2417C45.336-25.2417 42.5313-31.5405 33.6113-31.5405C24.6494-31.5405 21.8901-25.2417 13.9824-25.2417L10.7925-25.2417C10.2461-25.2417 9.76562-24.8066 9.76562-24.2114C9.76562-23.6196 10.2461-23.1845 10.7925-23.1845ZM11.9995-12.9907C12.8638-12.9907 13.5293-13.6528 13.5293-14.4751C13.5293-15.3393 12.8638-16.0049 11.9995-16.0049C11.1773-16.0049 10.5151-15.3393 10.5151-14.4751C10.5151-13.6528 11.1773-12.9907 11.9995-12.9907ZM19.0864-14.1694C19.9507-14.1694 20.6162-14.8349 20.6162-15.6538C20.6162-16.5215 19.9507-17.1836 19.0864-17.1836C18.2642-17.1836 17.6021-16.5215 17.6021-15.6538C17.6021-14.8349 18.2642-14.1694 19.0864-14.1694ZM25.5977-17.1196C26.4653-17.1196 27.1275-17.7397 27.1275-18.604C27.1275-19.4717 26.4653-20.1338 25.5977-20.1338C24.7788-20.1338 24.1133-19.4717 24.1133-18.604C24.1133-17.7397 24.7788-17.1196 25.5977-17.1196ZM32.5132-18.6958C33.3775-18.6958 34.043-19.3125 34.043-20.1802C34.043-21.0444 33.3775-21.7099 32.5132-21.7099C31.6455-21.7099 31.0288-21.0444 31.0288-20.1802C31.0288-19.3125 31.6455-18.6958 32.5132-18.6958ZM39.3799-17.1196C40.2476-17.1196 40.8643-17.7397 40.8643-18.604C40.8643-19.4717 40.2476-20.1338 39.3799-20.1338C38.5156-20.1338 37.8501-19.4717 37.8501-18.604C37.8501-17.7397 38.5156-17.1196 39.3799-17.1196ZM45.9888-14.1694C46.8531-14.1694 47.4732-14.8349 47.4732-15.6538C47.4732-16.5215 46.8531-17.1836 45.9888-17.1836C45.1245-17.1836 44.459-16.5215 44.459-15.6538C44.459-14.8349 45.1245-14.1694 45.9888-14.1694ZM53.2891-12.9907C54.1568-12.9907 54.8189-13.6528 54.8189-14.4751C54.8189-15.3393 54.1568-16.0049 53.2891-16.0049C52.4248-16.0049 51.7593-15.3393 51.7593-14.4751C51.7593-13.6528 52.4248-12.9907 53.2891-12.9907ZM60.5928-14.1694C61.457-14.1694 62.1226-14.8349 62.1226-15.6538C62.1226-16.5215 61.457-17.1836 60.5928-17.1836C59.7251-17.1836 59.1084-16.5215 59.1084-15.6538C59.1084-14.8349 59.7251-14.1694 60.5928-14.1694ZM67.1983-17.1196C68.0659-17.1196 68.7281-17.7397 68.7281-18.604C68.7281-19.4717 68.0659-20.1338 67.1983-20.1338C66.334-20.1338 65.6719-19.4717 65.6719-18.604C65.6719-17.7397 66.334-17.1196 67.1983-17.1196ZM74.0684-18.6958C74.9326-18.6958 75.5528-19.3125 75.5528-20.1802C75.5528-21.0444 74.9326-21.7099 74.0684-21.7099C73.2041-21.7099 72.5386-21.0444 72.5386-20.1802C72.5386-19.3125 73.2041-18.6958 74.0684-18.6958ZM80.9805-17.1196C81.8028-17.1196 82.4649-17.7397 82.4649-18.604C82.4649-19.4717 81.8028-20.1338 80.9805-20.1338C80.1162-20.1338 79.4541-19.4717 79.4541-18.604C79.4541-17.7397 80.1162-17.1196 80.9805-17.1196ZM87.4497-14.1694C88.3174-14.1694 88.9795-14.8349 88.9795-15.6538C88.9795-16.5215 88.3174-17.1836 87.4497-17.1836C86.6309-17.1836 85.9654-16.5215 85.9654-15.6538C85.9654-14.8349 86.6309-14.1694 87.4497-14.1694ZM94.4458-12.9907C95.3101-12.9907 95.9756-13.6528 95.9756-14.4751C95.9756-15.3393 95.3101-16.0049 94.4458-16.0049C93.627-16.0049 92.9614-15.3393 92.9614-14.4751C92.9614-13.6528 93.627-12.9907 94.4458-12.9907Z"/>
  </g>
 </g>
</svg>
