<?xml version="1.0" encoding="UTF-8"?>
<!--Generator: Apple Native CoreSVG 336-->
<!DOCTYPE svg
PUBLIC "-//W3C//DTD SVG 1.1//EN"
       "http://www.w3.org/Graphics/SVG/1.1/DTD/svg11.dtd">
<svg version="1.1" xmlns="http://www.w3.org/2000/svg" xmlns:xlink="http://www.w3.org/1999/xlink" viewBox="0 0 3300 2200">
 <!--glyph: "101701", point size: 100.0, font version: "20.0d8e1", template writer version: "138.0.0"-->
 <style>.defaults {-sfsymbols-wiggle-style:clockwise}

.monochrome-0 {-sfsymbols-motion-group:0;-sfsymbols-layer-tags:cricket.ball}

.multicolor-0:tintColor {-sfsymbols-motion-group:0;-sfsymbols-layer-tags:cricket.ball}

.hierarchical-0:primary {-sfsymbols-motion-group:0;-sfsymbols-layer-tags:cricket.ball}

.SFSymbolsPreviewWireframe {fill:none;opacity:1.0;stroke:black;stroke-width:0.5}
</style>
 <g id="Notes">
  <rect height="2200" id="artboard" style="fill:white;opacity:1" width="3300" x="0" y="0"/>
  <line style="fill:none;stroke:black;opacity:1;stroke-width:0.5;" x1="263" x2="3036" y1="292" y2="292"/>
  <text style="stroke:none;fill:black;font-family:sans-serif;font-size:13;font-weight:bold;" transform="matrix(1 0 0 1 263 322)">Weight/Scale Variations</text>
  <text style="stroke:none;fill:black;font-family:sans-serif;font-size:13;text-anchor:middle;" transform="matrix(1 0 0 1 559.711 322)">Ultralight</text>
  <text style="stroke:none;fill:black;font-family:sans-serif;font-size:13;text-anchor:middle;" transform="matrix(1 0 0 1 856.422 322)">Thin</text>
  <text style="stroke:none;fill:black;font-family:sans-serif;font-size:13;text-anchor:middle;" transform="matrix(1 0 0 1 1153.13 322)">Light</text>
  <text style="stroke:none;fill:black;font-family:sans-serif;font-size:13;text-anchor:middle;" transform="matrix(1 0 0 1 1449.84 322)">Regular</text>
  <text style="stroke:none;fill:black;font-family:sans-serif;font-size:13;text-anchor:middle;" transform="matrix(1 0 0 1 1746.56 322)">Medium</text>
  <text style="stroke:none;fill:black;font-family:sans-serif;font-size:13;text-anchor:middle;" transform="matrix(1 0 0 1 2043.27 322)">Semibold</text>
  <text style="stroke:none;fill:black;font-family:sans-serif;font-size:13;text-anchor:middle;" transform="matrix(1 0 0 1 2339.98 322)">Bold</text>
  <text style="stroke:none;fill:black;font-family:sans-serif;font-size:13;text-anchor:middle;" transform="matrix(1 0 0 1 2636.69 322)">Heavy</text>
  <text style="stroke:none;fill:black;font-family:sans-serif;font-size:13;text-anchor:middle;" transform="matrix(1 0 0 1 2933.4 322)">Black</text>
  <line style="fill:none;stroke:black;opacity:1;stroke-width:0.5;" x1="263" x2="3036" y1="1903" y2="1903"/>
  <g transform="matrix(0.2 0 0 0.2 263 1933)">
   <path d="m46.2402 4.15039c21.7773 0 39.4531-17.627 39.4531-39.4043s-17.6758-39.4043-39.4531-39.4043c-21.7285 0-39.4043 17.627-39.4043 39.4043s17.6758 39.4043 39.4043 39.4043Zm0-7.42188c-17.6758 0-31.9336-14.3066-31.9336-31.9824s14.2578-31.9824 31.9336-31.9824 31.9824 14.3066 31.9824 31.9824-14.3066 31.9824-31.9824 31.9824Zm-17.9688-31.9824c0 2.14844 1.51367 3.61328 3.75977 3.61328h10.498v10.5957c0 2.19727 1.46484 3.71094 3.61328 3.71094 2.24609 0 3.71094-1.51367 3.71094-3.71094v-10.5957h10.5957c2.19727 0 3.71094-1.46484 3.71094-3.61328 0-2.19727-1.51367-3.71094-3.71094-3.71094h-10.5957v-10.5469c0-2.24609-1.46484-3.75977-3.71094-3.75977-2.14844 0-3.61328 1.51367-3.61328 3.75977v10.5469h-10.498c-2.24609 0-3.75977 1.51367-3.75977 3.71094Z"/>
  </g>
  <g transform="matrix(0.2 0 0 0.2 281.506 1933)">
   <path d="m58.5449 14.5508c27.4902 0 49.8047-22.3145 49.8047-49.8047s-22.3145-49.8047-49.8047-49.8047-49.8047 22.3145-49.8047 49.8047 22.3145 49.8047 49.8047 49.8047Zm0-8.30078c-22.9492 0-41.5039-18.5547-41.5039-41.5039s18.5547-41.5039 41.5039-41.5039 41.5039 18.5547 41.5039 41.5039-18.5547 41.5039-41.5039 41.5039Zm-22.6562-41.5039c0 2.39258 1.66016 4.00391 4.15039 4.00391h14.3555v14.4043c0 2.44141 1.66016 4.15039 4.05273 4.15039 2.44141 0 4.15039-1.66016 4.15039-4.15039v-14.4043h14.4043c2.44141 0 4.15039-1.61133 4.15039-4.00391 0-2.44141-1.70898-4.15039-4.15039-4.15039h-14.4043v-14.3555c0-2.49023-1.70898-4.19922-4.15039-4.19922-2.39258 0-4.05273 1.70898-4.05273 4.19922v14.3555h-14.3555c-2.49023 0-4.15039 1.70898-4.15039 4.15039Z"/>
  </g>
  <g transform="matrix(0.2 0 0 0.2 304.924 1933)">
   <path d="m74.8535 28.3203c35.1074 0 63.623-28.4668 63.623-63.5742s-28.5156-63.623-63.623-63.623-63.5742 28.5156-63.5742 63.623 28.4668 63.5742 63.5742 63.5742Zm0-9.08203c-30.127 0-54.4922-24.3652-54.4922-54.4922s24.3652-54.4922 54.4922-54.4922 54.4922 24.3652 54.4922 54.4922-24.3652 54.4922-54.4922 54.4922Zm-28.8574-54.4922c0 2.58789 1.85547 4.39453 4.58984 4.39453h19.7266v19.7754c0 2.68555 1.85547 4.58984 4.44336 4.58984 2.68555 0 4.54102-1.85547 4.54102-4.58984v-19.7754h19.7754c2.68555 0 4.58984-1.80664 4.58984-4.39453 0-2.73438-1.85547-4.58984-4.58984-4.58984h-19.7754v-19.7266c0-2.73438-1.85547-4.63867-4.54102-4.63867-2.58789 0-4.44336 1.9043-4.44336 4.63867v19.7266h-19.7266c-2.73438 0-4.58984 1.85547-4.58984 4.58984Z"/>
  </g>
  <text style="stroke:none;fill:black;font-family:sans-serif;font-size:13;font-weight:bold;" transform="matrix(1 0 0 1 263 1953)">Design Variations</text>
  <text style="stroke:none;fill:black;font-family:sans-serif;font-size:13;" transform="matrix(1 0 0 1 263 1971)">Symbols are supported in up to nine weights and three scales.</text>
  <text style="stroke:none;fill:black;font-family:sans-serif;font-size:13;" transform="matrix(1 0 0 1 263 1989)">For optimal layout with text and other symbols, vertically align</text>
  <text style="stroke:none;fill:black;font-family:sans-serif;font-size:13;" transform="matrix(1 0 0 1 263 2007)">symbols with the adjacent text.</text>
  <line style="fill:none;stroke:#00AEEF;stroke-width:0.5;opacity:1.0;" x1="776" x2="776" y1="1919" y2="1933"/>
  <g transform="matrix(0.2 0 0 0.2 776 1933)">
   <path d="m16.5527 0.78125c2.58789 0 3.85742-0.976562 4.78516-3.71094l6.29883-17.2363h28.8086l6.29883 17.2363c0.927734 2.73438 2.19727 3.71094 4.73633 3.71094 2.58789 0 4.24805-1.5625 4.24805-4.00391 0-0.830078-0.146484-1.61133-0.537109-2.63672l-22.9004-60.9863c-1.12305-2.97852-3.125-4.49219-6.25-4.49219-3.02734 0-5.07812 1.46484-6.15234 4.44336l-22.9004 61.084c-0.390625 1.02539-0.537109 1.80664-0.537109 2.63672 0 2.44141 1.5625 3.95508 4.10156 3.95508Zm13.4766-28.3691 11.8652-32.8613h0.244141l11.8652 32.8613Z"/>
  </g>
  <line style="fill:none;stroke:#00AEEF;stroke-width:0.5;opacity:1.0;" x1="792.836" x2="792.836" y1="1919" y2="1933"/>
  <text style="stroke:none;fill:black;font-family:sans-serif;font-size:13;font-weight:bold;" transform="matrix(1 0 0 1 776 1953)">Margins</text>
  <text style="stroke:none;fill:black;font-family:sans-serif;font-size:13;" transform="matrix(1 0 0 1 776 1971)">Leading and trailing margins on the left and right side of each symbol</text>
  <text style="stroke:none;fill:black;font-family:sans-serif;font-size:13;" transform="matrix(1 0 0 1 776 1989)">can be adjusted by modifying the x-location of the margin guidelines.</text>
  <text style="stroke:none;fill:black;font-family:sans-serif;font-size:13;" transform="matrix(1 0 0 1 776 2007)">Modifications are automatically applied proportionally to all</text>
  <text style="stroke:none;fill:black;font-family:sans-serif;font-size:13;" transform="matrix(1 0 0 1 776 2025)">scales and weights.</text>
  <g transform="matrix(0.2 0 0 0.2 1289 1933)">
   <path d="m14.209 9.32617 8.49609 8.54492c4.29688 4.3457 9.22852 4.05273 13.8672-1.07422l53.4668-58.9355-4.83398-4.88281-53.0762 58.3984c-1.75781 2.00195-3.41797 2.49023-5.76172 0.146484l-5.85938-5.81055c-2.34375-2.29492-1.80664-4.00391 0.195312-5.81055l57.373-54.0039-4.88281-4.83398-57.959 54.4434c-4.93164 4.58984-5.32227 9.47266-1.02539 13.8184Zm32.0801-90.9668c-2.09961 2.05078-2.24609 4.93164-1.07422 6.88477 1.17188 1.80664 3.4668 2.97852 6.68945 2.14844 7.32422-1.70898 14.9414-2.00195 22.0703 2.68555l-2.92969 7.27539c-1.70898 4.15039-0.830078 7.08008 1.85547 9.81445l11.4746 11.5723c2.44141 2.44141 4.49219 2.53906 7.32422 2.05078l5.32227-0.976562 3.32031 3.36914-0.195312 2.7832c-0.195312 2.49023 0.439453 4.39453 2.88086 6.78711l3.80859 3.71094c2.39258 2.39258 5.46875 2.53906 7.8125 0.195312l14.5508-14.5996c2.34375-2.34375 2.24609-5.32227-0.146484-7.71484l-3.85742-3.80859c-2.39258-2.39258-4.24805-3.17383-6.64062-2.97852l-2.88086 0.244141-3.22266-3.17383 1.2207-5.61523c0.634766-2.83203-0.146484-5.0293-3.07617-7.95898l-10.9863-10.9375c-16.6992-16.6016-38.8672-16.2109-53.3203-1.75781Zm7.4707 1.85547c12.1582-8.88672 28.6133-7.37305 39.7461 3.75977l12.1582 12.0605c1.17188 1.17188 1.36719 2.09961 1.02539 3.80859l-1.61133 7.42188 7.51953 7.42188 4.93164-0.292969c1.26953-0.0488281 1.66016 0.0488281 2.63672 1.02539l2.88086 2.88086-12.207 12.207-2.88086-2.88086c-0.976562-0.976562-1.12305-1.36719-1.07422-2.68555l0.341797-4.88281-7.4707-7.42188-7.61719 1.26953c-1.61133 0.341797-2.34375 0.195312-3.56445-0.976562l-10.0098-10.0098c-1.26953-1.17188-1.41602-2.00195-0.634766-3.85742l4.39453-10.4492c-7.8125-7.27539-17.9688-10.4004-28.125-7.42188-0.78125 0.195312-1.07422-0.439453-0.439453-0.976562Z"/>
  </g>
  <text style="stroke:none;fill:black;font-family:sans-serif;font-size:13;font-weight:bold;" transform="matrix(1 0 0 1 1289 1953)">Exporting</text>
  <text style="stroke:none;fill:black;font-family:sans-serif;font-size:13;" transform="matrix(1 0 0 1 1289 1971)">Symbols should be outlined when exporting to ensure the</text>
  <text style="stroke:none;fill:black;font-family:sans-serif;font-size:13;" transform="matrix(1 0 0 1 1289 1989)">design is preserved when submitting to Xcode.</text>
  <text id="template-version" style="stroke:none;fill:black;font-family:sans-serif;font-size:13;text-anchor:end;" transform="matrix(1 0 0 1 3036 1933)">Template v.6.0</text>
  <text style="stroke:none;fill:black;font-family:sans-serif;font-size:13;text-anchor:end;" transform="matrix(1 0 0 1 3036 1951)">Requires Xcode 16 or greater</text>
  <text id="descriptive-name" style="stroke:none;fill:black;font-family:sans-serif;font-size:13;text-anchor:end;" transform="matrix(1 0 0 1 3036 1969)">Generated from cricket.ball</text>
  <text style="stroke:none;fill:black;font-family:sans-serif;font-size:13;text-anchor:end;" transform="matrix(1 0 0 1 3036 1987)">Typeset at 100.0 points</text>
  <text style="stroke:none;fill:black;font-family:sans-serif;font-size:13;" transform="matrix(1 0 0 1 263 726)">Small</text>
  <text style="stroke:none;fill:black;font-family:sans-serif;font-size:13;" transform="matrix(1 0 0 1 263 1156)">Medium</text>
  <text style="stroke:none;fill:black;font-family:sans-serif;font-size:13;" transform="matrix(1 0 0 1 263 1586)">Large</text>
 </g>
 <g id="Guides">
  <g id="H-reference" style="fill:#27AAE1;stroke:none;" transform="matrix(1 0 0 1 339 696)">
   <path d="M0.993654 0L3.63775 0L29.3281-67.1323L30.0303-67.1323L30.0303-70.459L28.1226-70.459ZM11.6885-24.4799L46.9815-24.4799L46.2315-26.7285L12.4385-26.7285ZM55.1196 0L57.7637 0L30.6382-70.459L29.4326-70.459L29.4326-67.1323Z"/>
  </g>
  <line id="Baseline-S" style="fill:none;stroke:#27AAE1;opacity:1;stroke-width:0.5;" x1="263" x2="3036" y1="696" y2="696"/>
  <line id="Capline-S" style="fill:none;stroke:#27AAE1;opacity:1;stroke-width:0.5;" x1="263" x2="3036" y1="625.541" y2="625.541"/>
  <g id="H-reference" style="fill:#27AAE1;stroke:none;" transform="matrix(1 0 0 1 339 1126)">
   <path d="M0.993654 0L3.63775 0L29.3281-67.1323L30.0303-67.1323L30.0303-70.459L28.1226-70.459ZM11.6885-24.4799L46.9815-24.4799L46.2315-26.7285L12.4385-26.7285ZM55.1196 0L57.7637 0L30.6382-70.459L29.4326-70.459L29.4326-67.1323Z"/>
  </g>
  <line id="Baseline-M" style="fill:none;stroke:#27AAE1;opacity:1;stroke-width:0.5;" x1="263" x2="3036" y1="1126" y2="1126"/>
  <line id="Capline-M" style="fill:none;stroke:#27AAE1;opacity:1;stroke-width:0.5;" x1="263" x2="3036" y1="1055.54" y2="1055.54"/>
  <g id="H-reference" style="fill:#27AAE1;stroke:none;" transform="matrix(1 0 0 1 339 1556)">
   <path d="M0.993654 0L3.63775 0L29.3281-67.1323L30.0303-67.1323L30.0303-70.459L28.1226-70.459ZM11.6885-24.4799L46.9815-24.4799L46.2315-26.7285L12.4385-26.7285ZM55.1196 0L57.7637 0L30.6382-70.459L29.4326-70.459L29.4326-67.1323Z"/>
  </g>
  <line id="Baseline-L" style="fill:none;stroke:#27AAE1;opacity:1;stroke-width:0.5;" x1="263" x2="3036" y1="1556" y2="1556"/>
  <line id="Capline-L" style="fill:none;stroke:#27AAE1;opacity:1;stroke-width:0.5;" x1="263" x2="3036" y1="1485.54" y2="1485.54"/>
  <line id="right-margin-Black-S" style="fill:none;stroke:#00AEEF;stroke-width:0.5;opacity:1.0;" x1="2982.23" x2="2982.23" y1="600.785" y2="720.121"/>
  <line id="left-margin-Black-S" style="fill:none;stroke:#00AEEF;stroke-width:0.5;opacity:1.0;" x1="2884.57" x2="2884.57" y1="600.785" y2="720.121"/>
  <line id="right-margin-Regular-S" style="fill:none;stroke:#00AEEF;stroke-width:0.5;opacity:1.0;" x1="1496.11" x2="1496.11" y1="600.785" y2="720.121"/>
  <line id="left-margin-Regular-S" style="fill:none;stroke:#00AEEF;stroke-width:0.5;opacity:1.0;" x1="1403.58" x2="1403.58" y1="600.785" y2="720.121"/>
  <line id="right-margin-Ultralight-S" style="fill:none;stroke:#00AEEF;stroke-width:0.5;opacity:1.0;" x1="603.773" x2="603.773" y1="600.785" y2="720.121"/>
  <line id="left-margin-Ultralight-S" style="fill:none;stroke:#00AEEF;stroke-width:0.5;opacity:1.0;" x1="515.649" x2="515.649" y1="600.785" y2="720.121"/>
 </g>
 <g id="Symbols">
  <g id="Black-S" transform="matrix(1 0 0 1 2884.57 696)">
   <path class="monochrome-0 multicolor-0:tintColor hierarchical-0:primary SFSymbolsPreviewWireframe" d="M25.4395-6.49414L78.7109-59.8145L73.4375-65.0879L20.1172-11.7676ZM18.8965-24.9023L13.5254-19.5312C12.2559-18.2617 12.2559-16.3574 13.5254-15.0879C14.7461-13.8672 16.6504-13.8672 17.9199-15.0879L23.291-20.5078C24.5117-21.7285 24.4629-23.6328 23.291-24.9023C22.0703-26.123 20.1172-26.123 18.8965-24.9023ZM30.2734-36.2793L24.9023-30.9082C23.6328-29.6387 23.6328-27.7344 24.9023-26.5137C26.123-25.2441 28.0762-25.2441 29.2969-26.5137L34.668-31.8848C35.9375-33.1543 35.8887-35.0586 34.668-36.2793C33.4473-37.5488 31.543-37.5488 30.2734-36.2793ZM41.6992-47.7051L36.2793-42.2852C35.0586-41.0645 35.0586-39.1602 36.2793-37.8906C37.5488-36.6699 39.4531-36.6699 40.6738-37.8906L46.0938-43.2617C47.3145-44.5312 47.3145-46.4355 46.0938-47.7051C44.8242-48.9258 42.9199-48.9258 41.6992-47.7051ZM53.0762-59.082L47.7051-53.7109C46.4355-52.4414 46.4355-50.5371 47.7051-49.2676C48.9258-48.0957 50.8301-48.0469 52.0996-49.2676L57.4707-54.6875C58.7402-55.9082 58.7402-57.8613 57.4707-59.082C56.25-60.3027 54.2969-60.3027 53.0762-59.082ZM64.4531-70.459L59.082-65.0879C57.8613-63.8672 57.8613-61.9141 59.082-60.6934C60.3027-59.4727 62.2559-59.4238 63.4766-60.6934L68.8965-66.0645C70.1172-67.334 70.1172-69.2383 68.8965-70.459C67.627-71.7285 65.7227-71.7285 64.4531-70.459ZM34.1797-9.81445L28.7598-4.44336C27.5391-3.17383 27.5391-1.26953 28.7598-0.0488281C30.0293 1.2207 31.9336 1.2207 33.2031-0.0488281L38.5742-5.41992C39.7949-6.64062 39.7949-8.59375 38.5742-9.81445C37.3535-11.0352 35.4004-11.084 34.1797-9.81445ZM45.5566-21.2402L40.1855-15.8203C38.916-14.5996 38.916-12.6465 40.1855-11.4258C41.4062-10.2051 43.3594-10.2051 44.5801-11.4258L49.9512-16.7969C51.2207-18.0664 51.2207-19.9707 49.9512-21.2402C48.7305-22.4121 46.8262-22.4609 45.5566-21.2402ZM56.9824-32.6172L51.5625-27.2461C50.3418-25.9766 50.3418-24.0723 51.5625-22.8027C52.832-21.582 54.7363-21.582 55.957-22.8027L61.377-28.2227C62.5977-29.4434 62.5977-31.3477 61.377-32.6172C60.1074-33.8379 58.2031-33.8379 56.9824-32.6172ZM68.3594-43.9941L62.9883-38.623C61.7188-37.3535 61.7676-35.4492 62.9883-34.2285C64.209-32.959 66.1133-32.959 67.3828-34.2285L72.7539-39.5996C74.0234-40.8691 74.0234-42.7734 72.7539-43.9941C71.5332-45.2637 69.5801-45.2637 68.3594-43.9941ZM79.7363-55.4199L74.3652-50C73.1445-48.7793 73.1934-46.875 74.3652-45.6055C75.5859-44.3848 77.5391-44.3848 78.7598-45.6055L84.1309-50.9766C85.4004-52.2461 85.4004-54.1504 84.1309-55.4199C82.9102-56.6406 81.0059-56.6406 79.7363-55.4199ZM48.8281-77.2461C25.6348-77.2461 6.83594-58.4473 6.83594-35.2539C6.83594-12.0605 25.6348 6.73828 48.8281 6.73828C72.0215 6.73828 90.8203-12.0605 90.8203-35.2539C90.8203-58.4473 72.0215-77.2461 48.8281-77.2461ZM48.8281-66.5039C66.0645-66.5039 80.0781-52.4902 80.0781-35.2539C80.0781-18.0176 66.0645-4.00391 48.8281-4.00391C31.5918-4.00391 17.5781-18.0176 17.5781-35.2539C17.5781-52.4902 31.5918-66.5039 48.8281-66.5039Z"/>
  </g>
  <g id="Regular-S" transform="matrix(1 0 0 1 1403.58 696)">
   <path class="monochrome-0 multicolor-0:tintColor hierarchical-0:primary SFSymbolsPreviewWireframe" d="M24.0723-8.88672L73.6816-58.4473L69.5312-62.5977L19.9219-12.9883ZM18.5547-24.9512L13.4766-19.873C12.5488-18.9453 12.5488-17.4805 13.4766-16.5527C14.4043-15.5762 15.8691-15.5762 16.8457-16.5527L21.9238-21.6309C22.8516-22.5586 22.8027-24.0234 21.9238-24.9512C20.9473-25.9277 19.4824-25.9277 18.5547-24.9512ZM29.2969-35.6934L24.2188-30.6152C23.291-29.6875 23.291-28.2227 24.2188-27.2949C25.1465-26.3184 26.6113-26.3184 27.5879-27.2949L32.666-32.373C33.5938-33.3008 33.5449-34.7656 32.666-35.6934C31.6895-36.6699 30.2246-36.6699 29.2969-35.6934ZM40.0391-46.4355L34.9609-41.3574C34.0332-40.4297 34.0332-38.9648 34.9609-38.0371C35.8887-37.0605 37.3535-37.0605 38.3301-38.0371L43.4082-43.1152C44.3359-44.043 44.3359-45.5078 43.4082-46.4355C42.4316-47.4121 40.9668-47.4121 40.0391-46.4355ZM50.7812-57.1777L45.7031-52.0996C44.7754-51.1719 44.7754-49.707 45.7031-48.7793C46.6309-47.8516 48.0957-47.8027 49.0723-48.7793L54.1504-53.8574C55.0781-54.7852 55.0781-56.25 54.1504-57.1777C53.1738-58.1543 51.709-58.1543 50.7812-57.1777ZM61.5234-67.9199L56.4453-62.8418C55.5176-61.9141 55.5176-60.4492 56.4453-59.5215C57.373-58.5938 58.8379-58.5449 59.8145-59.5215L64.8926-64.5996C65.8203-65.5273 65.8203-66.9922 64.8926-67.9199C63.916-68.8965 62.4512-68.8965 61.5234-67.9199ZM32.7148-10.9863L27.6367-5.9082C26.709-4.98047 26.709-3.51562 27.6367-2.58789C28.5645-1.61133 30.0293-1.61133 31.0059-2.58789L36.084-7.66602C37.0117-8.59375 37.0117-10.0586 36.084-10.9863C35.1074-11.9141 33.6426-11.9629 32.7148-10.9863ZM43.457-21.7285L38.3789-16.6504C37.4512-15.7227 37.4512-14.2578 38.3789-13.3301C39.3066-12.3535 40.7715-12.3535 41.748-13.3301L46.8262-18.4082C47.7539-19.3359 47.7539-20.8008 46.8262-21.7285C45.8496-22.6562 44.3848-22.7051 43.457-21.7285ZM54.1992-32.4707L49.1211-27.3926C48.1934-26.4648 48.1934-25 49.1211-24.0723C50.0488-23.0957 51.5137-23.0957 52.4902-24.0723L57.5684-29.1504C58.4961-30.0781 58.4961-31.543 57.5684-32.4707C56.5918-33.4473 55.127-33.4473 54.1992-32.4707ZM64.9414-43.2129L59.8633-38.1348C58.9355-37.207 58.9844-35.7422 59.8633-34.8145C60.791-33.8379 62.2559-33.8379 63.2324-34.8145L68.3105-39.8926C69.2383-40.8203 69.2383-42.2852 68.3105-43.2129C67.334-44.1895 65.8691-44.1895 64.9414-43.2129ZM75.6836-53.9551L70.6055-48.877C69.6777-47.9492 69.7266-46.4844 70.6055-45.5566C71.5332-44.5801 72.998-44.5801 73.9746-45.5566L79.0527-50.6348C79.9805-51.5625 79.9805-53.0273 79.0527-53.9551C78.0762-54.9316 76.6113-54.9316 75.6836-53.9551ZM46.2402-74.6582C24.5117-74.6582 6.83594-57.0312 6.83594-35.2539C6.83594-13.4766 24.5117 4.15039 46.2402 4.15039C68.0176 4.15039 85.6934-13.4766 85.6934-35.2539C85.6934-57.0312 68.0176-74.6582 46.2402-74.6582ZM46.2402-68.7988C64.7461-68.7988 79.7852-53.7598 79.7852-35.2539C79.7852-16.748 64.7461-1.70898 46.2402-1.70898C27.7344-1.70898 12.7441-16.748 12.7441-35.2539C12.7441-53.7598 27.7344-68.7988 46.2402-68.7988Z"/>
  </g>
  <g id="Ultralight-S" transform="matrix(1 0 0 1 515.649 696)">
   <path class="monochrome-0 multicolor-0:tintColor hierarchical-0:primary SFSymbolsPreviewWireframe" d="M19.7129-9.38623L69.958-59.6733L68.4414-61.1445L18.1963-10.8994ZM19.4175-21.9995L14.3393-16.9214C13.9565-16.4932 13.9565-15.8003 14.3393-15.4175C14.7222-15.0313 15.415-15.0313 15.8467-15.4175L20.9248-20.4956C21.3076-20.8784 21.3042-21.5713 20.9248-21.9995C20.4932-22.3858 19.8003-22.3858 19.4175-21.9995ZM30.1597-32.7871L25.0815-27.709C24.7441-27.2808 24.7441-26.5879 25.0815-26.1597C25.5098-25.8189 26.2026-25.8189 26.6343-26.1597L31.7124-31.2378C32.0498-31.666 32.0464-32.3589 31.7124-32.7871C31.2808-33.128 30.5879-33.128 30.1597-32.7871ZM40.9018-43.4839L35.8237-38.4512C35.4409-38.023 35.4409-37.3301 35.8237-36.9019C36.252-36.5156 36.9448-36.5156 37.3765-36.9019L42.4092-41.98C42.792-42.4082 42.792-43.1011 42.4092-43.4839C42.023-43.8701 41.3301-43.8701 40.9018-43.4839ZM51.644-54.2261L46.5659-49.148C46.1831-48.7652 46.1831-48.0723 46.5659-47.6441C46.9941-47.2612 47.687-47.2578 48.0733-47.6441L53.1514-52.7222C53.5342-53.1504 53.5342-53.8433 53.1514-54.2261C52.7651-54.6123 52.0723-54.6123 51.644-54.2261ZM62.3862-64.9683L57.3081-59.8902C56.9253-59.5073 56.9253-58.8145 57.3081-58.3862C57.7363-58.0034 58.4292-58 58.8154-58.3862L63.8936-63.4644C64.2764-63.8926 64.2764-64.5855 63.8936-64.9683C63.5073-65.3545 62.8145-65.3545 62.3862-64.9683ZM29.3091-12.1216L24.231-7.04345C23.8482-6.61522 23.8482-5.92234 24.231-5.53953C24.6138-5.15329 25.3067-5.15329 25.6929-5.53953L30.771-10.6177C31.1993-11.0005 31.1993-11.6933 30.771-12.1216C30.3848-12.5044 29.6919-12.5078 29.3091-12.1216ZM40.0513-22.9092L34.9732-17.831C34.6358-17.4028 34.6358-16.7099 34.9732-16.2817C35.4014-15.9409 36.0943-15.9409 36.4805-16.2817L41.5586-21.3598C41.9415-21.7881 41.9415-22.4809 41.5586-22.9092C41.1724-23.2466 40.4795-23.25 40.0513-22.9092ZM50.7935-33.6059L45.7154-28.5732C45.3325-28.145 45.3325-27.4521 45.7154-27.0239C46.1436-26.6377 46.8365-26.6377 47.2227-27.0239L52.2554-32.102C52.6836-32.5303 52.6836-33.2231 52.2554-33.6059C51.9146-33.9922 51.2217-33.9922 50.7935-33.6059ZM61.5357-44.3481L56.4575-39.27C56.0747-38.8872 56.0781-38.1943 56.4575-37.7661C56.8858-37.3799 57.5787-37.3799 57.9195-37.7661L62.9976-42.8442C63.4258-43.2724 63.4258-43.9653 62.9976-44.3481C62.6568-44.7344 61.9639-44.7344 61.5357-44.3481ZM72.2779-55.0903L67.1997-50.0122C66.8169-49.6294 66.8203-48.9365 67.1997-48.5083C67.628-48.122 68.3208-48.122 68.6617-48.5083L73.7398-53.5864C74.168-54.0146 74.168-54.7075 73.7398-55.0903C73.399-55.4766 72.7061-55.4766 72.2779-55.0903ZM44.0606-72.4785C23.5127-72.4785 6.83594-55.8052 6.83594-35.2539C6.83594-14.7026 23.5127 1.97072 44.0606 1.97072C64.6118 1.97072 81.2886-14.7026 81.2886-35.2539C81.2886-55.8052 64.6118-72.4785 44.0606-72.4785ZM44.0606-70.3428C63.4292-70.3428 79.1494-54.6226 79.1494-35.2539C79.1494-15.8853 63.4292-0.165051 44.0606-0.165051C24.6919-0.165051 8.97513-15.8853 8.97513-35.2539C8.97513-54.6226 24.6919-70.3428 44.0606-70.3428Z"/>
  </g>
 </g>
</svg>
