<?xml version="1.0" encoding="utf-8"?>
<!-- Generator: Adobe Illustrator 25.2.1, SVG Export Plug-In . SVG Version: 6.00 Build 0)  -->
<svg version="1.1" id="Layer_1" xmlns="http://www.w3.org/2000/svg" xmlns:xlink="http://www.w3.org/1999/xlink" x="0px" y="0px"
	 viewBox="0 0 177.2 198.3" style="enable-background:new 0 0 177.2 198.3;" xml:space="preserve">
<style type="text/css">
	.st0{fill:none;}
	.st1{fill:#F3D8CD;}
	.st2{fill:#EEC2B4;}
	.st3{fill:#F0B48B;}
	.st4{fill:#C58449;}
	.st5{fill:#B26444;}
	.st6{fill:#7F4A37;}
</style>
<g>
	<path d="M172.6,76.6L172.6,76.6l0.1-0.3l4.2-17.1c0.6-2.5,0.2-5.2-1.1-7.4c-1.4-2.2-3.5-3.8-6-4.5c-0.8-0.2-1.6-0.3-2.3-0.3
		c-4.5,0-8.5,3.1-9.5,7.5l-0.1,0.3l-3.9-15.3c-1.1-4.3-4.9-7.3-9.3-7.3c-0.8,0-1.6,0.1-2.4,0.3c-3.1,0.8-5.4,3-6.5,5.7l0,0
		c0,0-1.4-1.2-7-2.8c-5.6-1.6-6.8-6.4-6.8-6.4v0c-1.3-3.5-3.3-6.8-5.6-9l-5.2-5l-0.1-0.1l-0.1-0.1L98.3,2.7C96.4,1,94,0,91.5,0
		c-2.7,0-5.2,1.1-7.1,3c-3.8,3.9-3.6,10.1,0.3,13.9l0.2,0.2l-15.2-4.3c-0.8-0.2-1.7-0.4-2.6-0.4c-4.3,0-8.1,2.9-9.3,7
		c-0.7,2.5-0.4,5.1,0.9,7.3c0.2,0.4,0.5,0.8,0.8,1.2c0,0-1.7,0.7-5.9,4.7c-4.2,4-8.9,2.6-8.9,2.6c-1.6-0.3-3.2-0.4-4.7-0.4
		c-2.1,0-4.1,0.3-5.8,0.8l-6.9,2l-0.1,0l-0.2,0.1L9.9,42.6c-2.5,0.7-4.6,2.4-5.9,4.7c-1.3,2.3-1.6,5-0.8,7.5
		c1.2,4.2,5.1,7.1,9.4,7.1c0.9,0,1.8-0.1,2.7-0.4l0.3-0.1l-11.3,11c-1.8,1.8-2.9,4.2-2.9,6.8c0,2.6,0.9,5,2.7,6.8
		c1.8,1.8,4.3,2.9,6.9,2.9c0.4,0,0.8,0,1.2-0.1l0,0c0,0,0.4,0,0.7-0.1c0,1,0.2,3,1.1,6.8c1.4,5.7-2.2,9.1-2.2,9.1l0,0
		c-2.7,3-4.9,6.7-5.7,10.1l-1.7,7l0,0.1l0,0.2L0.3,139c-0.6,2.5-0.2,5.2,1.1,7.4c1.4,2.2,3.5,3.8,6,4.5c0.8,0.2,1.6,0.3,2.3,0.3
		c4.5,0,8.5-3.1,9.5-7.5l0.1-0.3l3.9,15.3c1.1,4.3,4.9,7.3,9.3,7.3c0.8,0,1.6-0.1,2.4-0.3c2.5-0.6,4.6-2.2,5.9-4.4
		c0.2-0.4,0.5-0.8,0.6-1.3l0,0c0,0,1.4,1.2,7,2.8c5.6,1.6,6.8,6.4,6.8,6.4l0,0c1.3,3.5,3.3,6.8,5.6,9l5.2,5l0.1,0.1l0.1,0.1
		l12.7,12.2c1.8,1.8,4.3,2.7,6.8,2.7c2.7,0,5.2-1.1,7.1-3c3.8-3.9,3.6-10.1-0.3-13.9l-0.2-0.2l15.2,4.3c0.8,0.2,1.7,0.4,2.6,0.4
		c4.3,0,8.1-2.9,9.3-7c0.9-3,0.1-6.2-1.7-8.5l0,0c0,0,1.7-0.7,5.9-4.7c4.2-4,8.9-2.6,8.9-2.6l0,0c1.6,0.3,3.2,0.4,4.8,0.4
		c2.1,0,4.1-0.3,5.8-0.8l6.9-2l0.1,0l0.2-0.1l16.9-4.9c2.5-0.7,4.6-2.4,5.9-4.7c1.3-2.3,1.6-5,0.8-7.5c-1.2-4.2-5.1-7.1-9.4-7.1
		c-0.9,0-1.8,0.1-2.7,0.4l-0.3,0.1l11.3-11c1.8-1.8,2.9-4.2,2.9-6.8c0-2.6-0.9-5-2.7-6.8c-1.8-1.8-4.3-2.9-6.9-2.9
		c-0.4,0-0.9,0-1.3,0.1l0,0c0,0,0.3-1.8-1.1-7.5c-1.4-5.7,2.2-9.1,2.2-9.1l0,0c2.4-2.8,4.2-6.2,5-9.3L172.6,76.6z M131.7,102.6
		c-1.3-0.7-2.7-1.1-4.2-1.1c-5.2,0-9.3,4.1-9.4,9.2l-0.1,9.7l0,1.2c-0.1,1.6-0.4,5.3-2.2,8.7l0,0c0,0-1.9,4-8.7,7.9c0,0,0,0,0,0
		c-0.1-1.5-0.5-2.9-1.2-4.2c-1.6-2.9-4.7-4.7-8.1-4.7c-1.6,0-3.2,0.4-4.6,1.2l-8.5,4.8l-1,0.6c-1.4,0.7-4.8,2.3-8.5,2.4l0,0
		c0,0-0.1,0-0.2,0c0,0,0,0,0,0c-1,0-5.1-0.1-11-3.6l0,0c0,0,0,0,0,0c1.2-0.8,2.3-1.8,3.1-3.1c1.3-2.1,1.6-4.6,1-7
		c-0.6-2.4-2.1-4.4-4.3-5.7l-8.4-5l-1-0.6c-1.4-0.9-4.7-3.3-6.8-6.8c0,0,0,0,0,0c-0.7-1.4-2.1-4.9-2.2-10.8c0,0,0,0,0,0
		c1.3,0.7,2.7,1.1,4.2,1.1c5.2,0,9.3-4.1,9.4-9.2l0.1-9.7l0-1.2c0.1-1.6,0.5-5.5,2.3-9c0.6-1.1,2.9-4.3,8.5-7.6
		c0.1,1.5,0.5,2.9,1.2,4.2c1.6,2.9,4.7,4.7,8.1,4.7c1.6,0,3.2-0.4,4.6-1.2l8.5-4.8l1-0.6c1.4-0.7,4.8-2.3,8.6-2.4l0,0
		c0,0,4.4-0.4,11.2,3.5c0,0,0,0,0,0c-1.2,0.8-2.3,1.8-3.1,3.1c-2.6,4.4-1.1,10.1,3.3,12.7l8.4,5l1,0.6c1.4,0.9,4.6,3.2,6.6,6.6
		C130.1,92.7,131.7,96.3,131.7,102.6C131.7,102.6,131.7,102.6,131.7,102.6z"/>
	<g>
		<path class="st0" d="M113.2,63.5C113.2,63.5,113.2,63.5,113.2,63.5C106.4,59.6,102,60,102,60l0,0c-3.8,0.2-7.2,1.7-8.6,2.4l-1,0.6
			l-8.5,4.8c-1.4,0.8-3,1.2-4.6,1.2c-3.4,0-6.5-1.8-8.1-4.7c-0.7-1.3-1.1-2.8-1.2-4.2c-5.6,3.3-7.9,6.6-8.5,7.6
			c-1.9,3.5-2.3,7.3-2.3,9l0,1.2l-0.1,9.7c-0.1,5.1-4.2,9.2-9.4,9.2c-1.5,0-3-0.4-4.2-1.1c0,0,0,0,0,0c0,5.9,1.4,9.4,2.2,10.8
			c0,0,0,0,0,0c2,3.5,5.4,5.9,6.8,6.8l1,0.6l8.4,5c2.1,1.3,3.6,3.3,4.3,5.7c0.6,2.4,0.3,4.9-1,7c-0.8,1.3-1.8,2.4-3.1,3.1
			c0,0,0,0,0,0l0,0c6,3.4,10.1,3.6,11,3.6c0,0,0,0,0,0c0.1,0,0.2,0,0.2,0l0,0c3.8-0.2,7.2-1.7,8.5-2.4l1-0.6l8.5-4.8
			c1.4-0.8,3-1.2,4.6-1.2c3.4,0,6.5,1.8,8.1,4.7c0.7,1.3,1.1,2.8,1.2,4.2c0,0,0,0,0,0c6.8-4,8.7-7.9,8.7-7.9l0,0
			c1.7-3.4,2.1-7.1,2.2-8.7l0-1.2l0.1-9.7c0.1-5.1,4.2-9.2,9.4-9.2c1.5,0,3,0.4,4.2,1.1c0,0,0,0,0,0c0-6.3-1.6-9.9-2.3-11
			c-2.1-3.4-5.3-5.7-6.6-6.6l-1-0.6l-8.4-5c-4.4-2.6-5.9-8.3-3.3-12.7C110.9,65.4,112,64.3,113.2,63.5z"/>
		<path class="st1" d="M63.4,40.1h15.8h8.1c0.4,0,0.8,0.3,0.8,0.8v0.2c0,0.4-0.3,0.9-0.7,1l-20.1,5.4c-1.8,0.5-2.8,2.3-2.4,4.1
			c0.4,1.5,1.8,2.5,3.2,2.5c0.3,0,0.6,0,0.9-0.1L79.6,51l5.1-1.4l5.2-1.4c0.1,0,0.1,0,0.2,0c0.4,0,0.7,0.2,0.9,0.5l0,0.1
			c0.2,0.4,0,0.9-0.3,1.1L85,53.1l-7.1,4c-1.4,0.8-2,2.6-1.1,4.1c0.5,1,1.6,1.5,2.6,1.5c0.5,0,1-0.1,1.5-0.4l8.5-4.8l1.1-0.6
			c2.1-1.1,6.8-3.2,12.3-3.2c7.3,0,14.4-5.6,14.4-15.3c0-0.1,0-0.1,0-0.2c0,0,0-0.1,0-0.1v-1.4c0-3.9-2.3-9.4-5.1-12.1l-5.2-5
			c0,0-0.1-0.1-0.1-0.1L93.9,7.3c-0.7-0.7-1.6-1-2.4-1c-0.9,0-1.9,0.4-2.5,1.1c-1.3,1.4-1.3,3.6,0.1,5l9.2,8.8
			c0.9,1.2,0.7,2.7-0.5,3.6c-1,0.7-2.6,1.1-4,1.1c-0.5,0-1.1-0.1-1.5-0.2L68,18.9c-0.3-0.1-0.6-0.1-0.9-0.1c-1.5,0-2.8,1-3.2,2.4v0
			c-0.5,1.8,0.5,3.6,2.3,4.1l14.9,4.2c0,0,0,0,0,0l4.6,1.3l2.6,0.7c0.4,0.1,0.7,0.5,0.6,1l0,0.2c-0.1,0.4-0.5,0.8-0.9,0.8h-7.1H63.4
			c-1.8,0-3.3,1.5-3.3,3.3C60.1,38.6,61.6,40.1,63.4,40.1z"/>
		<path class="st2" d="M24.9,91.4l7.9-13.7l4-7c0.1-0.2,0.4-0.4,0.7-0.4c0.1,0,0.3,0,0.4,0.1l0.2,0.1c0.4,0.2,0.6,0.7,0.5,1.1
			l-5.4,20.1c-0.5,1.8,0.6,3.6,2.4,4.1c0.3,0.1,0.6,0.1,0.9,0.1c1.5,0,2.8-1,3.2-2.5l2.8-10.5v0l1.4-5.1l1.4-5.2
			c0.1-0.4,0.5-0.7,0.9-0.7c0,0,0,0,0,0l0.1,0c0.4,0,0.8,0.4,0.8,0.8l-0.1,6.5l-0.1,8.1c0,1.7,1.3,3,3,3c0,0,0,0,0,0
			c1.6,0,3-1.3,3-3l0.1-9.7v0l0-1.3c0.1-2.4,0.6-7.5,3.4-12.3c3.7-6.4,2.3-15.2-6.1-20.1c-0.1,0-0.1-0.1-0.2-0.1c0,0,0,0-0.1,0
			l-1.2-0.7c-2.3-1.3-5.8-2.1-9-2.1c-1.5,0-2.9,0.2-4.1,0.5l-6.9,2c-0.1,0-0.1,0-0.2,0l-17,4.9c-1.9,0.5-2.9,2.5-2.4,4.4
			c0.4,1.5,1.9,2.5,3.4,2.5c0.3,0,0.7,0,1-0.1l12.2-3.5c0.2,0,0.3,0,0.4,0c1.3,0,2.3,0.9,2.4,2.3c0.1,1.7-0.7,4-1.9,5.2l-18,17.6
			c-1.3,1.3-1.3,3.4-0.1,4.7c0.7,0.7,1.5,1,2.4,1c0.8,0,1.7-0.3,2.3-0.9l11.1-10.8c0,0,0,0,0,0l3.4-3.3l1.9-1.9
			c0.2-0.2,0.4-0.2,0.6-0.2c0.2,0,0.4,0.1,0.5,0.2l0.1,0.1c0.3,0.3,0.4,0.8,0.2,1.2L27.7,73l-8.7,15c-0.9,1.6-0.4,3.6,1.2,4.6
			c0.5,0.3,1.1,0.4,1.7,0.4C23.1,93,24.2,92.4,24.9,91.4z"/>
		<path class="st3" d="M51.5,131L51.5,131l-3.7-3.7l-3.8-3.8c-0.3-0.3-0.4-0.8-0.1-1.2l0-0.1c0.2-0.2,0.4-0.4,0.7-0.4
			c0.1,0,0.3,0,0.4,0.1l5.6,3.3l7,4.1c0.5,0.3,1,0.4,1.5,0.4c1,0,2-0.5,2.6-1.5c0.8-1.4,0.4-3.3-1.1-4.1l-8.4-5v0l-1.1-0.7
			c-2-1.3-6.2-4.3-8.9-9c-2.5-4.2-7-7.1-12.2-7.1c-2.6,0-5.4,0.7-8.2,2.3c-0.1,0-0.1,0.1-0.2,0.1c0,0,0,0-0.1,0l-1.2,0.7
			c-3.4,2-6.9,6.7-7.9,10.5l-1.7,7c0,0.1,0,0.1,0,0.2l-4.3,17.2c-0.5,1.9,0.7,3.8,2.6,4.3c0.3,0.1,0.6,0.1,0.8,0.1
			c1.6,0,3-1.1,3.4-2.7l3.1-12.4c0.4-1,1.2-1.6,2.2-1.6c0.4,0,0.8,0.1,1.2,0.3c1.5,0.7,3.1,2.6,3.5,4.3l6.2,24.4
			c0.4,1.5,1.7,2.5,3.2,2.5c0.3,0,0.5,0,0.8-0.1c1.8-0.5,2.9-2.3,2.4-4.1l-3.8-15l-1.2-4.6l-0.7-2.6c-0.1-0.4,0.1-0.9,0.5-1l0.1,0
			c0.1,0,0.2,0,0.3,0c0.3,0,0.7,0.2,0.8,0.5l3.5,6.1l8.7,15c0.6,1.1,1.7,1.7,2.9,1.7c0.6,0,1.1-0.1,1.7-0.4c1.6-0.9,2.1-3,1.2-4.6
			l-7.9-13.7l-4-7c-0.2-0.4-0.1-0.8,0.3-1l0.2-0.1c0.1-0.1,0.3-0.1,0.5-0.1c0.3,0,0.5,0.1,0.7,0.3l14.7,14.7c0.6,0.7,1.5,1,2.4,1
			c0.9,0,1.7-0.3,2.4-1h0c1.3-1.3,1.3-3.4,0-4.7L51.5,131z"/>
		<path class="st4" d="M113.8,158.2H97.9h-8.1c-0.4,0-0.8-0.3-0.8-0.8v-0.2c0-0.4,0.3-0.9,0.7-1l20.1-5.4c1.8-0.5,2.8-2.3,2.4-4.1
			c-0.4-1.5-1.8-2.5-3.2-2.5c-0.3,0-0.6,0-0.9,0.1l-10.5,2.8l-5.1,1.4l-5.2,1.4c-0.1,0-0.1,0-0.2,0c-0.4,0-0.7-0.2-0.9-0.5l0-0.1
			c-0.2-0.4,0-0.9,0.3-1.1l5.6-3.2l7.1-4c1.4-0.8,2-2.6,1.1-4.1c-0.5-1-1.6-1.5-2.6-1.5c-0.5,0-1,0.1-1.5,0.4l-8.5,4.8h0l-1.1,0.6
			c-2.1,1.1-6.8,3.2-12.3,3.2c-7.3,0-14.4,5.6-14.4,15.3c0,0.1,0,0.1,0,0.2c0,0,0,0.1,0,0.1v1.4c0,3.9,2.3,9.4,5.1,12.1l5.2,5
			c0,0,0.1,0.1,0.1,0.1L83.3,191c0.7,0.7,1.6,1,2.4,1c0.9,0,1.9-0.4,2.5-1.1c1.3-1.4,1.3-3.6-0.1-5l-9.2-8.8
			c-0.9-1.2-0.7-2.7,0.5-3.6c1-0.7,2.6-1.1,4-1.1c0.5,0,1.1,0.1,1.5,0.2l24.2,6.8c0.3,0.1,0.6,0.1,0.9,0.1c1.5,0,2.8-1,3.2-2.4
			c0.5-1.8-0.5-3.6-2.3-4.1l-14.9-4.2l-4.6-1.3l-2.6-0.7c-0.4-0.1-0.7-0.5-0.6-1l0-0.2c0.1-0.4,0.5-0.8,0.9-0.8h7.1h17.3
			c1.8,0,3.3-1.5,3.3-3.3C117.1,159.7,115.6,158.2,113.8,158.2z"/>
		<path class="st5" d="M155.3,105.2c-1.2,0-2.3,0.6-2.9,1.7l-7.9,13.7l-4,7c-0.1,0.2-0.4,0.4-0.7,0.4c-0.1,0-0.3,0-0.4-0.1l-0.2-0.1
			c-0.4-0.2-0.6-0.7-0.5-1.1l5.4-20.1c0.5-1.8-0.6-3.6-2.4-4.1h0c-0.3-0.1-0.6-0.1-0.9-0.1c-1.5,0-2.8,1-3.2,2.5l-2.8,10.5l-1.4,5.1
			l-1.4,5.2c-0.1,0.4-0.5,0.7-0.9,0.7c0,0,0,0,0,0l-0.1,0c-0.4,0-0.8-0.4-0.8-0.8l0.1-6.5v0l0.1-8.1c0-1.7-1.3-3-3-3c0,0,0,0,0,0
			c-1.6,0-3,1.3-3,3l-0.1,9.7l0,1.3c-0.1,2.4-0.6,7.5-3.4,12.3c-3.7,6.4-2.3,15.2,6.1,20.1c0.1,0,0.1,0.1,0.2,0.1c0,0,0,0,0.1,0
			l1.2,0.7c2.3,1.3,5.8,2.1,9,2.1c1.5,0,2.9-0.2,4.1-0.5l6.9-2c0.1,0,0.1,0,0.2,0l17-4.9c1.9-0.5,2.9-2.5,2.4-4.4
			c-0.4-1.5-1.9-2.5-3.4-2.5c-0.3,0-0.7,0-1,0.1l-12.2,3.5c-0.2,0-0.3,0-0.4,0c-1.3,0-2.3-0.9-2.4-2.3c-0.1-1.7,0.7-4,1.9-5.2
			l18-17.6c1.3-1.3,1.3-3.4,0.1-4.7c-0.7-0.7-1.5-1-2.4-1c-0.8,0-1.7,0.3-2.3,0.9l-11.1,10.8c0,0,0,0,0,0l-3.4,3.3l-1.9,1.9
			c-0.2,0.2-0.4,0.2-0.6,0.2c-0.2,0-0.4-0.1-0.5-0.2l-0.1-0.1c-0.3-0.3-0.4-0.8-0.2-1.2l3.5-6.1l8.7-15c0.9-1.6,0.4-3.6-1.2-4.6v0
			C156.4,105.4,155.8,105.2,155.3,105.2z"/>
		<path class="st6" d="M166.5,75.1c0-0.1,0-0.1,0-0.2l4.3-17.2c0.5-1.9-0.7-3.8-2.6-4.3c-0.3-0.1-0.6-0.1-0.8-0.1
			c-1.6,0-3,1.1-3.4,2.7l-3.1,12.4c-0.4,1-1.2,1.6-2.2,1.6c-0.4,0-0.8-0.1-1.2-0.3c-1.5-0.7-3.1-2.6-3.5-4.3l-6.2-24.4
			c-0.4-1.5-1.7-2.5-3.2-2.5c-0.3,0-0.5,0-0.8,0.1c-1.8,0.5-2.9,2.3-2.4,4.1l3.8,15c0,0,0,0,0,0l1.2,4.6L147,65
			c0.1,0.4-0.1,0.9-0.5,1l-0.1,0c-0.1,0-0.2,0-0.3,0c-0.3,0-0.7-0.2-0.8-0.5l-3.5-6.1l-8.7-15c-0.6-1.1-1.7-1.7-2.9-1.7
			c-0.6,0-1.1,0.1-1.7,0.4c-1.6,0.9-2.1,3-1.2,4.6l7.9,13.7l4,7c0.2,0.4,0.1,0.8-0.3,1l-0.2,0.1c-0.1,0.1-0.3,0.1-0.5,0.1
			c-0.3,0-0.5-0.1-0.7-0.3l-14.7-14.7c-0.6-0.7-1.5-1-2.4-1c-0.9,0-1.7,0.3-2.4,1c-1.3,1.3-1.3,3.4,0,4.7l7.7,7.7l3.7,3.7l3.8,3.8
			c0.3,0.3,0.4,0.8,0.1,1.2l0,0.1c-0.2,0.2-0.4,0.4-0.7,0.4c-0.1,0-0.3,0-0.4-0.1l-5.6-3.3l-7-4.1c-0.5-0.3-1-0.4-1.5-0.4
			c-1,0-2,0.5-2.6,1.5c-0.8,1.4-0.4,3.3,1.1,4.1l8.4,5l1.1,0.7c2,1.3,6.2,4.3,8.9,9c2.5,4.2,7,7.1,12.2,7.1c2.6,0,5.4-0.7,8.2-2.3
			c0.1,0,0.1-0.1,0.2-0.1c0,0,0,0,0.1,0l1.2-0.7c3.4-2,6.9-6.7,7.9-10.5L166.5,75.1z"/>
	</g>
</g>
</svg>
