<?xml version="1.0" encoding="UTF-8"?>
<!--Generator: Apple Native CoreSVG 336-->
<!DOCTYPE svg
PUBLIC "-//W3C//DTD SVG 1.1//EN"
       "http://www.w3.org/Graphics/SVG/1.1/DTD/svg11.dtd">
<svg version="1.1" xmlns="http://www.w3.org/2000/svg" xmlns:xlink="http://www.w3.org/1999/xlink" viewBox="0 0 3300 2200">
 <!--glyph: "10154A", point size: 100.0, font version: "20.0d8e1", template writer version: "138.0.0"-->
 <style>.monochrome-0 {-sfsymbols-motion-group:0;-sfsymbols-layer-tags:figure.waterpolo}

.multicolor-0:tintColor {-sfsymbols-motion-group:0;-sfsymbols-layer-tags:figure.waterpolo}

.hierarchical-0:primary {-sfsymbols-motion-group:0;-sfsymbols-layer-tags:figure.waterpolo}

.SFSymbolsPreviewWireframe {fill:none;opacity:1.0;stroke:black;stroke-width:0.5}
</style>
 <g id="Notes">
  <rect height="2200" id="artboard" style="fill:white;opacity:1" width="3300" x="0" y="0"/>
  <line style="fill:none;stroke:black;opacity:1;stroke-width:0.5;" x1="263" x2="3036" y1="292" y2="292"/>
  <text style="stroke:none;fill:black;font-family:sans-serif;font-size:13;font-weight:bold;" transform="matrix(1 0 0 1 263 322)">Weight/Scale Variations</text>
  <text style="stroke:none;fill:black;font-family:sans-serif;font-size:13;text-anchor:middle;" transform="matrix(1 0 0 1 559.711 322)">Ultralight</text>
  <text style="stroke:none;fill:black;font-family:sans-serif;font-size:13;text-anchor:middle;" transform="matrix(1 0 0 1 856.422 322)">Thin</text>
  <text style="stroke:none;fill:black;font-family:sans-serif;font-size:13;text-anchor:middle;" transform="matrix(1 0 0 1 1153.13 322)">Light</text>
  <text style="stroke:none;fill:black;font-family:sans-serif;font-size:13;text-anchor:middle;" transform="matrix(1 0 0 1 1449.84 322)">Regular</text>
  <text style="stroke:none;fill:black;font-family:sans-serif;font-size:13;text-anchor:middle;" transform="matrix(1 0 0 1 1746.56 322)">Medium</text>
  <text style="stroke:none;fill:black;font-family:sans-serif;font-size:13;text-anchor:middle;" transform="matrix(1 0 0 1 2043.27 322)">Semibold</text>
  <text style="stroke:none;fill:black;font-family:sans-serif;font-size:13;text-anchor:middle;" transform="matrix(1 0 0 1 2339.98 322)">Bold</text>
  <text style="stroke:none;fill:black;font-family:sans-serif;font-size:13;text-anchor:middle;" transform="matrix(1 0 0 1 2636.69 322)">Heavy</text>
  <text style="stroke:none;fill:black;font-family:sans-serif;font-size:13;text-anchor:middle;" transform="matrix(1 0 0 1 2933.4 322)">Black</text>
  <line style="fill:none;stroke:black;opacity:1;stroke-width:0.5;" x1="263" x2="3036" y1="1903" y2="1903"/>
  <g transform="matrix(0.2 0 0 0.2 263 1933)">
   <path d="m46.2402 4.15039c21.7773 0 39.4531-17.627 39.4531-39.4043s-17.6758-39.4043-39.4531-39.4043c-21.7285 0-39.4043 17.627-39.4043 39.4043s17.6758 39.4043 39.4043 39.4043Zm0-7.42188c-17.6758 0-31.9336-14.3066-31.9336-31.9824s14.2578-31.9824 31.9336-31.9824 31.9824 14.3066 31.9824 31.9824-14.3066 31.9824-31.9824 31.9824Zm-17.9688-31.9824c0 2.14844 1.51367 3.61328 3.75977 3.61328h10.498v10.5957c0 2.19727 1.46484 3.71094 3.61328 3.71094 2.24609 0 3.71094-1.51367 3.71094-3.71094v-10.5957h10.5957c2.19727 0 3.71094-1.46484 3.71094-3.61328 0-2.19727-1.51367-3.71094-3.71094-3.71094h-10.5957v-10.5469c0-2.24609-1.46484-3.75977-3.71094-3.75977-2.14844 0-3.61328 1.51367-3.61328 3.75977v10.5469h-10.498c-2.24609 0-3.75977 1.51367-3.75977 3.71094Z"/>
  </g>
  <g transform="matrix(0.2 0 0 0.2 281.506 1933)">
   <path d="m58.5449 14.5508c27.4902 0 49.8047-22.3145 49.8047-49.8047s-22.3145-49.8047-49.8047-49.8047-49.8047 22.3145-49.8047 49.8047 22.3145 49.8047 49.8047 49.8047Zm0-8.30078c-22.9492 0-41.5039-18.5547-41.5039-41.5039s18.5547-41.5039 41.5039-41.5039 41.5039 18.5547 41.5039 41.5039-18.5547 41.5039-41.5039 41.5039Zm-22.6562-41.5039c0 2.39258 1.66016 4.00391 4.15039 4.00391h14.3555v14.4043c0 2.44141 1.66016 4.15039 4.05273 4.15039 2.44141 0 4.15039-1.66016 4.15039-4.15039v-14.4043h14.4043c2.44141 0 4.15039-1.61133 4.15039-4.00391 0-2.44141-1.70898-4.15039-4.15039-4.15039h-14.4043v-14.3555c0-2.49023-1.70898-4.19922-4.15039-4.19922-2.39258 0-4.05273 1.70898-4.05273 4.19922v14.3555h-14.3555c-2.49023 0-4.15039 1.70898-4.15039 4.15039Z"/>
  </g>
  <g transform="matrix(0.2 0 0 0.2 304.924 1933)">
   <path d="m74.8535 28.3203c35.1074 0 63.623-28.4668 63.623-63.5742s-28.5156-63.623-63.623-63.623-63.5742 28.5156-63.5742 63.623 28.4668 63.5742 63.5742 63.5742Zm0-9.08203c-30.127 0-54.4922-24.3652-54.4922-54.4922s24.3652-54.4922 54.4922-54.4922 54.4922 24.3652 54.4922 54.4922-24.3652 54.4922-54.4922 54.4922Zm-28.8574-54.4922c0 2.58789 1.85547 4.39453 4.58984 4.39453h19.7266v19.7754c0 2.68555 1.85547 4.58984 4.44336 4.58984 2.68555 0 4.54102-1.85547 4.54102-4.58984v-19.7754h19.7754c2.68555 0 4.58984-1.80664 4.58984-4.39453 0-2.73438-1.85547-4.58984-4.58984-4.58984h-19.7754v-19.7266c0-2.73438-1.85547-4.63867-4.54102-4.63867-2.58789 0-4.44336 1.9043-4.44336 4.63867v19.7266h-19.7266c-2.73438 0-4.58984 1.85547-4.58984 4.58984Z"/>
  </g>
  <text style="stroke:none;fill:black;font-family:sans-serif;font-size:13;font-weight:bold;" transform="matrix(1 0 0 1 263 1953)">Design Variations</text>
  <text style="stroke:none;fill:black;font-family:sans-serif;font-size:13;" transform="matrix(1 0 0 1 263 1971)">Symbols are supported in up to nine weights and three scales.</text>
  <text style="stroke:none;fill:black;font-family:sans-serif;font-size:13;" transform="matrix(1 0 0 1 263 1989)">For optimal layout with text and other symbols, vertically align</text>
  <text style="stroke:none;fill:black;font-family:sans-serif;font-size:13;" transform="matrix(1 0 0 1 263 2007)">symbols with the adjacent text.</text>
  <line style="fill:none;stroke:#00AEEF;stroke-width:0.5;opacity:1.0;" x1="776" x2="776" y1="1919" y2="1933"/>
  <g transform="matrix(0.2 0 0 0.2 776 1933)">
   <path d="m16.5527 0.78125c2.58789 0 3.85742-0.976562 4.78516-3.71094l6.29883-17.2363h28.8086l6.29883 17.2363c0.927734 2.73438 2.19727 3.71094 4.73633 3.71094 2.58789 0 4.24805-1.5625 4.24805-4.00391 0-0.830078-0.146484-1.61133-0.537109-2.63672l-22.9004-60.9863c-1.12305-2.97852-3.125-4.49219-6.25-4.49219-3.02734 0-5.07812 1.46484-6.15234 4.44336l-22.9004 61.084c-0.390625 1.02539-0.537109 1.80664-0.537109 2.63672 0 2.44141 1.5625 3.95508 4.10156 3.95508Zm13.4766-28.3691 11.8652-32.8613h0.244141l11.8652 32.8613Z"/>
  </g>
  <line style="fill:none;stroke:#00AEEF;stroke-width:0.5;opacity:1.0;" x1="792.836" x2="792.836" y1="1919" y2="1933"/>
  <text style="stroke:none;fill:black;font-family:sans-serif;font-size:13;font-weight:bold;" transform="matrix(1 0 0 1 776 1953)">Margins</text>
  <text style="stroke:none;fill:black;font-family:sans-serif;font-size:13;" transform="matrix(1 0 0 1 776 1971)">Leading and trailing margins on the left and right side of each symbol</text>
  <text style="stroke:none;fill:black;font-family:sans-serif;font-size:13;" transform="matrix(1 0 0 1 776 1989)">can be adjusted by modifying the x-location of the margin guidelines.</text>
  <text style="stroke:none;fill:black;font-family:sans-serif;font-size:13;" transform="matrix(1 0 0 1 776 2007)">Modifications are automatically applied proportionally to all</text>
  <text style="stroke:none;fill:black;font-family:sans-serif;font-size:13;" transform="matrix(1 0 0 1 776 2025)">scales and weights.</text>
  <g transform="matrix(0.2 0 0 0.2 1289 1933)">
   <path d="m14.209 9.32617 8.49609 8.54492c4.29688 4.3457 9.22852 4.05273 13.8672-1.07422l53.4668-58.9355-4.83398-4.88281-53.0762 58.3984c-1.75781 2.00195-3.41797 2.49023-5.76172 0.146484l-5.85938-5.81055c-2.34375-2.29492-1.80664-4.00391 0.195312-5.81055l57.373-54.0039-4.88281-4.83398-57.959 54.4434c-4.93164 4.58984-5.32227 9.47266-1.02539 13.8184Zm32.0801-90.9668c-2.09961 2.05078-2.24609 4.93164-1.07422 6.88477 1.17188 1.80664 3.4668 2.97852 6.68945 2.14844 7.32422-1.70898 14.9414-2.00195 22.0703 2.68555l-2.92969 7.27539c-1.70898 4.15039-0.830078 7.08008 1.85547 9.81445l11.4746 11.5723c2.44141 2.44141 4.49219 2.53906 7.32422 2.05078l5.32227-0.976562 3.32031 3.36914-0.195312 2.7832c-0.195312 2.49023 0.439453 4.39453 2.88086 6.78711l3.80859 3.71094c2.39258 2.39258 5.46875 2.53906 7.8125 0.195312l14.5508-14.5996c2.34375-2.34375 2.24609-5.32227-0.146484-7.71484l-3.85742-3.80859c-2.39258-2.39258-4.24805-3.17383-6.64062-2.97852l-2.88086 0.244141-3.22266-3.17383 1.2207-5.61523c0.634766-2.83203-0.146484-5.0293-3.07617-7.95898l-10.9863-10.9375c-16.6992-16.6016-38.8672-16.2109-53.3203-1.75781Zm7.4707 1.85547c12.1582-8.88672 28.6133-7.37305 39.7461 3.75977l12.1582 12.0605c1.17188 1.17188 1.36719 2.09961 1.02539 3.80859l-1.61133 7.42188 7.51953 7.42188 4.93164-0.292969c1.26953-0.0488281 1.66016 0.0488281 2.63672 1.02539l2.88086 2.88086-12.207 12.207-2.88086-2.88086c-0.976562-0.976562-1.12305-1.36719-1.07422-2.68555l0.341797-4.88281-7.4707-7.42188-7.61719 1.26953c-1.61133 0.341797-2.34375 0.195312-3.56445-0.976562l-10.0098-10.0098c-1.26953-1.17188-1.41602-2.00195-0.634766-3.85742l4.39453-10.4492c-7.8125-7.27539-17.9688-10.4004-28.125-7.42188-0.78125 0.195312-1.07422-0.439453-0.439453-0.976562Z"/>
  </g>
  <text style="stroke:none;fill:black;font-family:sans-serif;font-size:13;font-weight:bold;" transform="matrix(1 0 0 1 1289 1953)">Exporting</text>
  <text style="stroke:none;fill:black;font-family:sans-serif;font-size:13;" transform="matrix(1 0 0 1 1289 1971)">Symbols should be outlined when exporting to ensure the</text>
  <text style="stroke:none;fill:black;font-family:sans-serif;font-size:13;" transform="matrix(1 0 0 1 1289 1989)">design is preserved when submitting to Xcode.</text>
  <text id="template-version" style="stroke:none;fill:black;font-family:sans-serif;font-size:13;text-anchor:end;" transform="matrix(1 0 0 1 3036 1933)">Template v.6.0</text>
  <text style="stroke:none;fill:black;font-family:sans-serif;font-size:13;text-anchor:end;" transform="matrix(1 0 0 1 3036 1951)">Requires Xcode 16 or greater</text>
  <text id="descriptive-name" style="stroke:none;fill:black;font-family:sans-serif;font-size:13;text-anchor:end;" transform="matrix(1 0 0 1 3036 1969)">Generated from figure.waterpolo</text>
  <text style="stroke:none;fill:black;font-family:sans-serif;font-size:13;text-anchor:end;" transform="matrix(1 0 0 1 3036 1987)">Typeset at 100.0 points</text>
  <text style="stroke:none;fill:black;font-family:sans-serif;font-size:13;" transform="matrix(1 0 0 1 263 726)">Small</text>
  <text style="stroke:none;fill:black;font-family:sans-serif;font-size:13;" transform="matrix(1 0 0 1 263 1156)">Medium</text>
  <text style="stroke:none;fill:black;font-family:sans-serif;font-size:13;" transform="matrix(1 0 0 1 263 1586)">Large</text>
 </g>
 <g id="Guides">
  <g id="H-reference" style="fill:#27AAE1;stroke:none;" transform="matrix(1 0 0 1 339 696)">
   <path d="M0.993654 0L3.63775 0L29.3281-67.1323L30.0303-67.1323L30.0303-70.459L28.1226-70.459ZM11.6885-24.4799L46.9815-24.4799L46.2315-26.7285L12.4385-26.7285ZM55.1196 0L57.7637 0L30.6382-70.459L29.4326-70.459L29.4326-67.1323Z"/>
  </g>
  <line id="Baseline-S" style="fill:none;stroke:#27AAE1;opacity:1;stroke-width:0.5;" x1="263" x2="3036" y1="696" y2="696"/>
  <line id="Capline-S" style="fill:none;stroke:#27AAE1;opacity:1;stroke-width:0.5;" x1="263" x2="3036" y1="625.541" y2="625.541"/>
  <g id="H-reference" style="fill:#27AAE1;stroke:none;" transform="matrix(1 0 0 1 339 1126)">
   <path d="M0.993654 0L3.63775 0L29.3281-67.1323L30.0303-67.1323L30.0303-70.459L28.1226-70.459ZM11.6885-24.4799L46.9815-24.4799L46.2315-26.7285L12.4385-26.7285ZM55.1196 0L57.7637 0L30.6382-70.459L29.4326-70.459L29.4326-67.1323Z"/>
  </g>
  <line id="Baseline-M" style="fill:none;stroke:#27AAE1;opacity:1;stroke-width:0.5;" x1="263" x2="3036" y1="1126" y2="1126"/>
  <line id="Capline-M" style="fill:none;stroke:#27AAE1;opacity:1;stroke-width:0.5;" x1="263" x2="3036" y1="1055.54" y2="1055.54"/>
  <g id="H-reference" style="fill:#27AAE1;stroke:none;" transform="matrix(1 0 0 1 339 1556)">
   <path d="M0.993654 0L3.63775 0L29.3281-67.1323L30.0303-67.1323L30.0303-70.459L28.1226-70.459ZM11.6885-24.4799L46.9815-24.4799L46.2315-26.7285L12.4385-26.7285ZM55.1196 0L57.7637 0L30.6382-70.459L29.4326-70.459L29.4326-67.1323Z"/>
  </g>
  <line id="Baseline-L" style="fill:none;stroke:#27AAE1;opacity:1;stroke-width:0.5;" x1="263" x2="3036" y1="1556" y2="1556"/>
  <line id="Capline-L" style="fill:none;stroke:#27AAE1;opacity:1;stroke-width:0.5;" x1="263" x2="3036" y1="1485.54" y2="1485.54"/>
  <line id="right-margin-Black-S" style="fill:none;stroke:#00AEEF;stroke-width:0.5;opacity:1.0;" x1="2992.19" x2="2992.19" y1="600.785" y2="720.121"/>
  <line id="left-margin-Black-S" style="fill:none;stroke:#00AEEF;stroke-width:0.5;opacity:1.0;" x1="2874.61" x2="2874.61" y1="600.785" y2="720.121"/>
  <line id="right-margin-Regular-S" style="fill:none;stroke:#00AEEF;stroke-width:0.5;opacity:1.0;" x1="1505.29" x2="1505.29" y1="600.785" y2="720.121"/>
  <line id="left-margin-Regular-S" style="fill:none;stroke:#00AEEF;stroke-width:0.5;opacity:1.0;" x1="1394.4" x2="1394.4" y1="600.785" y2="720.121"/>
  <line id="right-margin-Ultralight-S" style="fill:none;stroke:#00AEEF;stroke-width:0.5;opacity:1.0;" x1="612.953" x2="612.953" y1="600.785" y2="720.121"/>
  <line id="left-margin-Ultralight-S" style="fill:none;stroke:#00AEEF;stroke-width:0.5;opacity:1.0;" x1="506.469" x2="506.469" y1="600.785" y2="720.121"/>
 </g>
 <g id="Symbols">
  <g id="Black-S" transform="matrix(1 0 0 1 2874.61 696)">
   <path class="monochrome-0 multicolor-0:tintColor hierarchical-0:primary SFSymbolsPreviewWireframe" d="M61.0352-47.7051C66.4062-47.7051 70.8008-52.0996 70.8008-57.4707C70.8008-62.8418 66.4062-67.2363 61.0352-67.2363C55.6641-67.2363 51.2695-62.8418 51.2695-57.4707C51.2695-52.0996 55.6641-47.7051 61.0352-47.7051ZM40.4785-27.1973C49.1211-26.416 52.7832-20.752 58.7891-20.752C59.3262-20.752 59.8633-20.8984 60.4004-21.1426L64.3555-31.9824C64.5996-32.666 65.2832-33.1543 65.9668-33.1543L102.1-33.1543C105.029-33.1543 107.471-35.5469 107.471-38.4766C107.471-41.3574 105.029-43.7988 102.1-43.7988L34.7168-43.7988L29.2969-61.5723C28.418-64.4043 25.5371-66.0156 22.7539-65.1855C19.9707-64.3066 18.4082-61.2793 19.2383-58.5938L25.5859-37.4512C26.2695-35.1562 28.0762-33.1543 30.7617-33.1543L42.041-33.1543C42.4316-33.1543 42.5781-32.9102 42.4316-32.5195ZM36.8652-61.5234C40.8691-61.5234 44.1895-64.7949 44.1895-68.8477C44.1895-72.9004 40.8691-76.1719 36.8652-76.1719C32.8125-76.1719 29.541-72.9004 29.541-68.8477C29.541-64.7949 32.8125-61.5234 36.8652-61.5234ZM13.2812-7.86133L17.9688-7.86133C29.6387-7.86133 31.7383-14.4043 38.3789-14.4043C43.5547-14.4043 47.0703-7.86133 58.7891-7.86133C70.5078-7.86133 74.0234-14.4043 79.1992-14.4043C85.8398-14.4043 87.9395-7.86133 99.6094-7.86133L104.297-7.86133C106.25-7.86133 107.812-9.42383 107.812-11.377C107.812-13.3301 106.25-14.8926 104.297-14.8926L99.6094-14.8926C92.7246-14.8926 90.4297-21.4355 79.1992-21.4355C69.4336-21.4355 65.6738-14.8926 58.7891-14.8926C51.9043-14.8926 48.1445-21.4355 38.3789-21.4355C27.1484-21.4355 24.8535-14.8926 17.9688-14.8926L13.2812-14.8926C11.3281-14.8926 9.76562-13.3301 9.76562-11.377C9.76562-9.42383 11.3281-7.86133 13.2812-7.86133ZM13.623 5.56641C15.2344 5.56641 16.5527 4.24805 16.5527 2.63672C16.5527 1.02539 15.2344-0.292969 13.623-0.292969C12.0117-0.292969 10.6934 1.02539 10.6934 2.63672C10.6934 4.24805 12.0117 5.56641 13.623 5.56641ZM21.4355 4.19922C23.0469 4.19922 24.3652 2.88086 24.3652 1.26953C24.3652-0.341797 23.0469-1.66016 21.4355-1.66016C19.8242-1.66016 18.5059-0.341797 18.5059 1.26953C18.5059 2.88086 19.8242 4.19922 21.4355 4.19922ZM28.5645 0.830078C30.1758 0.830078 31.4941-0.488281 31.4941-2.09961C31.4941-3.71094 30.1758-5.0293 28.5645-5.0293C26.9531-5.0293 25.6348-3.71094 25.6348-2.09961C25.6348-0.488281 26.9531 0.830078 28.5645 0.830078ZM36.1816-1.51367C37.793-1.51367 39.1113-2.83203 39.1113-4.44336C39.1113-6.05469 37.793-7.37305 36.1816-7.37305C34.5703-7.37305 33.252-6.05469 33.252-4.44336C33.252-2.83203 34.5703-1.51367 36.1816-1.51367ZM43.75 0.830078C45.3613 0.830078 46.6797-0.488281 46.6797-2.09961C46.6797-3.71094 45.3613-5.0293 43.75-5.0293C42.1387-5.0293 40.8203-3.71094 40.8203-2.09961C40.8203-0.488281 42.1387 0.830078 43.75 0.830078ZM50.8789 4.19922C52.4902 4.19922 53.8086 2.88086 53.8086 1.26953C53.8086-0.341797 52.4902-1.66016 50.8789-1.66016C49.2676-1.66016 47.9492-0.341797 47.9492 1.26953C47.9492 2.88086 49.2676 4.19922 50.8789 4.19922ZM58.7891 5.56641C60.4004 5.56641 61.7188 4.24805 61.7188 2.63672C61.7188 1.02539 60.4004-0.292969 58.7891-0.292969C57.1777-0.292969 55.8594 1.02539 55.8594 2.63672C55.8594 4.24805 57.1777 5.56641 58.7891 5.56641ZM66.6992 4.19922C68.3105 4.19922 69.6289 2.88086 69.6289 1.26953C69.6289-0.341797 68.3105-1.66016 66.6992-1.66016C65.0879-1.66016 63.7695-0.341797 63.7695 1.26953C63.7695 2.88086 65.0879 4.19922 66.6992 4.19922ZM73.8281 0.830078C75.4395 0.830078 76.7578-0.488281 76.7578-2.09961C76.7578-3.71094 75.4395-5.0293 73.8281-5.0293C72.2168-5.0293 70.8984-3.71094 70.8984-2.09961C70.8984-0.488281 72.2168 0.830078 73.8281 0.830078ZM81.3965-1.51367C83.0078-1.51367 84.3262-2.83203 84.3262-4.44336C84.3262-6.05469 83.0078-7.37305 81.3965-7.37305C79.7852-7.37305 78.4668-6.05469 78.4668-4.44336C78.4668-2.83203 79.7852-1.51367 81.3965-1.51367ZM89.0137 0.830078C90.625 0.830078 91.9434-0.488281 91.9434-2.09961C91.9434-3.71094 90.625-5.0293 89.0137-5.0293C87.4023-5.0293 86.084-3.71094 86.084-2.09961C86.084-0.488281 87.4023 0.830078 89.0137 0.830078ZM96.1426 4.19922C97.7539 4.19922 99.0723 2.88086 99.0723 1.26953C99.0723-0.341797 97.7539-1.66016 96.1426-1.66016C94.5312-1.66016 93.2129-0.341797 93.2129 1.26953C93.2129 2.88086 94.5312 4.19922 96.1426 4.19922ZM103.955 5.56641C105.566 5.56641 106.885 4.24805 106.885 2.63672C106.885 1.02539 105.566-0.292969 103.955-0.292969C102.344-0.292969 101.025 1.02539 101.025 2.63672C101.025 4.24805 102.344 5.56641 103.955 5.56641Z"/>
  </g>
  <g id="Regular-S" transform="matrix(1 0 0 1 1394.4 696)">
   <path class="monochrome-0 multicolor-0:tintColor hierarchical-0:primary SFSymbolsPreviewWireframe" d="M57.5684-44.6777C62.3047-44.6777 66.0645-48.4863 66.0645-53.2227C66.0645-57.9102 62.3047-61.7188 57.5684-61.7188C52.8809-61.7188 49.0723-57.9102 49.0723-53.2227C49.0723-48.4863 52.8809-44.6777 57.5684-44.6777ZM39.0137-26.0742C47.998-25.0488 48.7305-19.9219 55.4199-19.9219C55.6152-19.9219 55.8105-19.9219 56.0059-19.9707L59.8633-30.8105C60.3027-31.9824 60.9863-32.4707 62.3047-32.4707L96.875-32.4707C99.1699-32.4707 101.025-34.375 101.025-36.6699C101.025-38.916 99.1699-40.7715 96.875-40.7715L31.7383-40.7715L26.3672-58.4961C25.6836-60.6934 23.3887-61.9629 21.2402-61.2793C19.043-60.5957 17.8223-58.3008 18.457-56.2012L24.5605-35.9375C25.1465-34.0332 26.5625-32.4707 28.6133-32.4707L39.7461-32.4707C40.5762-32.4707 41.1133-31.7871 40.8203-31.0059ZM34.4727-59.6191C37.793-59.6191 40.5273-62.3535 40.5273-65.7227C40.5273-69.043 37.793-71.7773 34.4727-71.7773C31.1035-71.7773 28.3691-69.043 28.3691-65.7227C28.3691-62.3535 31.1035-59.6191 34.4727-59.6191ZM12.1094-9.32617L16.1621-9.32617C26.6113-9.32617 28.8574-15.625 35.791-15.625C42.7734-15.625 45.0195-9.32617 55.4199-9.32617C65.8691-9.32617 68.1152-15.625 75.0488-15.625C82.0312-15.625 84.2773-9.32617 94.6777-9.32617L98.7305-9.32617C100.049-9.32617 101.123-10.4004 101.123-11.7188C101.123-13.0371 100.049-14.0625 98.7305-14.0625L94.6777-14.0625C87.5-14.0625 85.0586-20.3613 75.0488-20.3613C65.0879-20.3613 62.6465-14.0625 55.4199-14.0625C48.2422-14.0625 45.8008-20.3613 35.791-20.3613C25.8301-20.3613 23.3887-14.0625 16.1621-14.0625L12.1094-14.0625C10.791-14.0625 9.76562-13.0371 9.76562-11.7188C9.76562-10.4004 10.791-9.32617 12.1094-9.32617ZM13.1348 1.36719C14.4531 1.36719 15.5273 0.292969 15.5273-1.02539C15.5273-2.34375 14.4531-3.41797 13.1348-3.41797C11.7676-3.41797 10.7422-2.34375 10.7422-1.02539C10.7422 0.292969 11.7676 1.36719 13.1348 1.36719ZM20.3125 0.0488281C21.6309 0.0488281 22.7051-0.976562 22.7051-2.34375C22.7051-3.66211 21.6309-4.73633 20.3125-4.73633C18.9453-4.73633 17.9199-3.66211 17.9199-2.34375C17.9199-0.976562 18.9453 0.0488281 20.3125 0.0488281ZM27.0508-3.17383C28.418-3.17383 29.4434-4.19922 29.4434-5.56641C29.4434-6.88477 28.418-7.95898 27.0508-7.95898C25.7324-7.95898 24.6582-6.88477 24.6582-5.56641C24.6582-4.19922 25.7324-3.17383 27.0508-3.17383ZM34.375-4.88281C35.6934-4.88281 36.7676-5.95703 36.7676-7.27539C36.7676-8.64258 35.6934-9.66797 34.375-9.66797C33.0078-9.66797 31.9824-8.64258 31.9824-7.27539C31.9824-5.95703 33.0078-4.88281 34.375-4.88281ZM41.6504-3.17383C43.0176-3.17383 44.043-4.19922 44.043-5.56641C44.043-6.88477 43.0176-7.95898 41.6504-7.95898C40.332-7.95898 39.2578-6.88477 39.2578-5.56641C39.2578-4.19922 40.332-3.17383 41.6504-3.17383ZM48.4863 0.0488281C49.8047 0.0488281 50.8789-0.976562 50.8789-2.34375C50.8789-3.66211 49.8047-4.73633 48.4863-4.73633C47.168-4.73633 46.0938-3.66211 46.0938-2.34375C46.0938-0.976562 47.168 0.0488281 48.4863 0.0488281ZM55.4688 1.36719C56.8359 1.36719 57.8613 0.292969 57.8613-1.02539C57.8613-2.34375 56.8359-3.41797 55.4688-3.41797C54.1504-3.41797 53.0762-2.34375 53.0762-1.02539C53.0762 0.292969 54.1504 1.36719 55.4688 1.36719ZM62.5 0.0488281C63.8184 0.0488281 64.8926-0.976562 64.8926-2.34375C64.8926-3.66211 63.8184-4.73633 62.5-4.73633C61.1328-4.73633 60.1074-3.66211 60.1074-2.34375C60.1074-0.976562 61.1328 0.0488281 62.5 0.0488281ZM69.2871-3.17383C70.6543-3.17383 71.6797-4.19922 71.6797-5.56641C71.6797-6.88477 70.6543-7.95898 69.2871-7.95898C67.9688-7.95898 66.9434-6.88477 66.9434-5.56641C66.9434-4.19922 67.9688-3.17383 69.2871-3.17383ZM76.6113-4.88281C77.9297-4.88281 79.0039-5.95703 79.0039-7.27539C79.0039-8.64258 77.9297-9.66797 76.6113-9.66797C75.293-9.66797 74.2188-8.64258 74.2188-7.27539C74.2188-5.95703 75.293-4.88281 76.6113-4.88281ZM83.8867-3.17383C85.2539-3.17383 86.2793-4.19922 86.2793-5.56641C86.2793-6.88477 85.2539-7.95898 83.8867-7.95898C82.5684-7.95898 81.543-6.88477 81.543-5.56641C81.543-4.19922 82.5684-3.17383 83.8867-3.17383ZM90.6738 0.0488281C92.041 0.0488281 93.0664-0.976562 93.0664-2.34375C93.0664-3.66211 92.041-4.73633 90.6738-4.73633C89.3555-4.73633 88.2812-3.66211 88.2812-2.34375C88.2812-0.976562 89.3555 0.0488281 90.6738 0.0488281ZM97.8516 1.36719C99.1699 1.36719 100.244 0.292969 100.244-1.02539C100.244-2.34375 99.1699-3.41797 97.8516-3.41797C96.5332-3.41797 95.459-2.34375 95.459-1.02539C95.459 0.292969 96.5332 1.36719 97.8516 1.36719Z"/>
  </g>
  <g id="Ultralight-S" transform="matrix(1 0 0 1 506.469 696)">
   <path class="monochrome-0 multicolor-0:tintColor hierarchical-0:primary SFSymbolsPreviewWireframe" d="M55.207-43.3609C59.4439-43.3609 62.8858-46.8516 62.8858-51.1338C62.8858-55.3672 59.4439-58.8579 55.207-58.8579C50.9282-58.8579 47.4375-55.3672 47.4375-51.1338C47.4375-46.8516 50.9282-43.3609 55.207-43.3609ZM38.6504-26.7554C45.4551-25.2759 48.5488-21.0571 53.2403-21.0571C53.481-21.0571 53.7671-21.0571 54.0078-21.1059L57.2749-30.4019C57.669-31.5283 58.3072-31.9712 59.4893-31.9712L90.9263-31.9712C92.9942-31.9712 94.7134-33.6939 94.7134-35.7617C94.7134-37.7354 92.9942-39.4546 90.9263-39.4546L31.6929-39.4546L26.7759-55.5899C26.1377-57.6055 24.0698-58.7388 22.103-58.1006C20.1782-57.5532 19.0937-55.3946 19.6377-53.522L25.1509-35.0747C25.646-33.3521 26.9712-31.9712 28.8403-31.9712L38.9741-31.9712C39.7588-31.9712 40.2051-31.333 39.9575-30.5972ZM34.1548-56.6675C37.2026-56.6675 39.71-59.084 39.71-62.1353C39.71-65.1831 37.2026-67.6905 34.1548-67.6905C31.1035-67.6905 28.6416-65.1831 28.6416-62.1353C28.6416-59.084 31.1035-56.6675 34.1548-56.6675ZM10.7925-13.0952L13.9824-13.0952C23.251-13.0952 26.042-19.394 33.6113-19.394C41.1841-19.394 43.9297-13.0952 53.2403-13.0952C62.5088-13.0952 65.2998-19.394 72.8692-19.394C80.4419-19.394 83.1875-13.0952 92.4981-13.0952L95.688-13.0952C96.2344-13.0952 96.7183-13.5791 96.7183-14.1255C96.7183-14.7173 96.2344-15.1977 95.688-15.1977L92.4981-15.1977C84.5938-15.1977 81.7891-21.4966 72.8692-21.4966C63.9072-21.4966 61.148-15.1977 53.2403-15.1977C45.336-15.1977 42.5313-21.4966 33.6113-21.4966C24.6494-21.4966 21.8901-15.1977 13.9824-15.1977L10.7925-15.1977C10.2461-15.1977 9.76562-14.7173 9.76562-14.1255C9.76562-13.5791 10.2461-13.0952 10.7925-13.0952ZM11.9995-2.90133C12.8638-2.90133 13.5293-3.56686 13.5293-4.43113C13.5293-5.24998 12.8638-5.91551 11.9995-5.91551C11.1773-5.91551 10.5151-5.24998 10.5151-4.43113C10.5151-3.56686 11.1773-2.90133 11.9995-2.90133ZM19.0864-4.08346C19.9507-4.08346 20.6162-4.74558 20.6162-5.61326C20.6162-6.43211 19.9507-7.09764 19.0864-7.09764C18.2642-7.09764 17.6021-6.43211 17.6021-5.61326C17.6021-4.74558 18.2642-4.08346 19.0864-4.08346ZM25.5977-7.03366C26.4653-7.03366 27.1275-7.69577 27.1275-8.51804C27.1275-9.3823 26.4653-10.0478 25.5977-10.0478C24.7788-10.0478 24.1133-9.3823 24.1133-8.51804C24.1133-7.69577 24.7788-7.03366 25.5977-7.03366ZM32.5132-8.60642C33.3775-8.60642 34.043-9.27195 34.043-10.0908C34.043-10.9585 33.3775-11.6206 32.5132-11.6206C31.6455-11.6206 31.0288-10.9585 31.0288-10.0908C31.0288-9.27195 31.6455-8.60642 32.5132-8.60642ZM39.3799-7.03366C40.2476-7.03366 40.8643-7.69577 40.8643-8.51804C40.8643-9.3823 40.2476-10.0478 39.3799-10.0478C38.5156-10.0478 37.8501-9.3823 37.8501-8.51804C37.8501-7.69577 38.5156-7.03366 39.3799-7.03366ZM45.9888-4.08346C46.8531-4.08346 47.4732-4.74558 47.4732-5.61326C47.4732-6.43211 46.8531-7.09764 45.9888-7.09764C45.1245-7.09764 44.459-6.43211 44.459-5.61326C44.459-4.74558 45.1245-4.08346 45.9888-4.08346ZM53.2891-2.90133C54.1568-2.90133 54.8189-3.56686 54.8189-4.43113C54.8189-5.24998 54.1568-5.91551 53.2891-5.91551C52.4248-5.91551 51.7593-5.24998 51.7593-4.43113C51.7593-3.56686 52.4248-2.90133 53.2891-2.90133ZM60.5928-4.08346C61.457-4.08346 62.1226-4.74558 62.1226-5.61326C62.1226-6.43211 61.457-7.09764 60.5928-7.09764C59.7251-7.09764 59.1084-6.43211 59.1084-5.61326C59.1084-4.74558 59.7251-4.08346 60.5928-4.08346ZM67.1983-7.03366C68.0659-7.03366 68.7281-7.69577 68.7281-8.51804C68.7281-9.3823 68.0659-10.0478 67.1983-10.0478C66.334-10.0478 65.6719-9.3823 65.6719-8.51804C65.6719-7.69577 66.334-7.03366 67.1983-7.03366ZM74.0684-8.60642C74.9326-8.60642 75.5528-9.27195 75.5528-10.0908C75.5528-10.9585 74.9326-11.6206 74.0684-11.6206C73.2041-11.6206 72.5386-10.9585 72.5386-10.0908C72.5386-9.27195 73.2041-8.60642 74.0684-8.60642ZM80.9805-7.03366C81.8028-7.03366 82.4649-7.69577 82.4649-8.51804C82.4649-9.3823 81.8028-10.0478 80.9805-10.0478C80.1162-10.0478 79.4541-9.3823 79.4541-8.51804C79.4541-7.69577 80.1162-7.03366 80.9805-7.03366ZM87.4497-4.08346C88.3174-4.08346 88.9795-4.74558 88.9795-5.61326C88.9795-6.43211 88.3174-7.09764 87.4497-7.09764C86.6309-7.09764 85.9654-6.43211 85.9654-5.61326C85.9654-4.74558 86.6309-4.08346 87.4497-4.08346ZM94.4458-2.90133C95.3101-2.90133 95.9756-3.56686 95.9756-4.43113C95.9756-5.24998 95.3101-5.91551 94.4458-5.91551C93.627-5.91551 92.9614-5.24998 92.9614-4.43113C92.9614-3.56686 93.627-2.90133 94.4458-2.90133Z"/>
  </g>
 </g>
</svg>
