<?xml version="1.0" encoding="UTF-8"?>
<!--Generator: Apple Native CoreSVG 336-->
<!DOCTYPE svg
PUBLIC "-//W3C//DTD SVG 1.1//EN"
       "http://www.w3.org/Graphics/SVG/1.1/DTD/svg11.dtd">
<svg version="1.1" xmlns="http://www.w3.org/2000/svg" xmlns:xlink="http://www.w3.org/1999/xlink" viewBox="0 0 3300 2200">
 <!--glyph: "101314", point size: 100.0, font version: "20.0d8e1", template writer version: "138.0.0"-->
 <style>.monochrome-0 {-sfsymbols-motion-group:0;-sfsymbols-layer-tags:figure.table.tennis}

.multicolor-0:tintColor {-sfsymbols-motion-group:0;-sfsymbols-layer-tags:figure.table.tennis}

.hierarchical-0:primary {-sfsymbols-motion-group:0;-sfsymbols-layer-tags:figure.table.tennis}

.SFSymbolsPreviewWireframe {fill:none;opacity:1.0;stroke:black;stroke-width:0.5}
</style>
 <g id="Notes">
  <rect height="2200" id="artboard" style="fill:white;opacity:1" width="3300" x="0" y="0"/>
  <line style="fill:none;stroke:black;opacity:1;stroke-width:0.5;" x1="263" x2="3036" y1="292" y2="292"/>
  <text style="stroke:none;fill:black;font-family:sans-serif;font-size:13;font-weight:bold;" transform="matrix(1 0 0 1 263 322)">Weight/Scale Variations</text>
  <text style="stroke:none;fill:black;font-family:sans-serif;font-size:13;text-anchor:middle;" transform="matrix(1 0 0 1 559.711 322)">Ultralight</text>
  <text style="stroke:none;fill:black;font-family:sans-serif;font-size:13;text-anchor:middle;" transform="matrix(1 0 0 1 856.422 322)">Thin</text>
  <text style="stroke:none;fill:black;font-family:sans-serif;font-size:13;text-anchor:middle;" transform="matrix(1 0 0 1 1153.13 322)">Light</text>
  <text style="stroke:none;fill:black;font-family:sans-serif;font-size:13;text-anchor:middle;" transform="matrix(1 0 0 1 1449.84 322)">Regular</text>
  <text style="stroke:none;fill:black;font-family:sans-serif;font-size:13;text-anchor:middle;" transform="matrix(1 0 0 1 1746.56 322)">Medium</text>
  <text style="stroke:none;fill:black;font-family:sans-serif;font-size:13;text-anchor:middle;" transform="matrix(1 0 0 1 2043.27 322)">Semibold</text>
  <text style="stroke:none;fill:black;font-family:sans-serif;font-size:13;text-anchor:middle;" transform="matrix(1 0 0 1 2339.98 322)">Bold</text>
  <text style="stroke:none;fill:black;font-family:sans-serif;font-size:13;text-anchor:middle;" transform="matrix(1 0 0 1 2636.69 322)">Heavy</text>
  <text style="stroke:none;fill:black;font-family:sans-serif;font-size:13;text-anchor:middle;" transform="matrix(1 0 0 1 2933.4 322)">Black</text>
  <line style="fill:none;stroke:black;opacity:1;stroke-width:0.5;" x1="263" x2="3036" y1="1903" y2="1903"/>
  <g transform="matrix(0.2 0 0 0.2 263 1933)">
   <path d="m46.2402 4.15039c21.7773 0 39.4531-17.627 39.4531-39.4043s-17.6758-39.4043-39.4531-39.4043c-21.7285 0-39.4043 17.627-39.4043 39.4043s17.6758 39.4043 39.4043 39.4043Zm0-7.42188c-17.6758 0-31.9336-14.3066-31.9336-31.9824s14.2578-31.9824 31.9336-31.9824 31.9824 14.3066 31.9824 31.9824-14.3066 31.9824-31.9824 31.9824Zm-17.9688-31.9824c0 2.14844 1.51367 3.61328 3.75977 3.61328h10.498v10.5957c0 2.19727 1.46484 3.71094 3.61328 3.71094 2.24609 0 3.71094-1.51367 3.71094-3.71094v-10.5957h10.5957c2.19727 0 3.71094-1.46484 3.71094-3.61328 0-2.19727-1.51367-3.71094-3.71094-3.71094h-10.5957v-10.5469c0-2.24609-1.46484-3.75977-3.71094-3.75977-2.14844 0-3.61328 1.51367-3.61328 3.75977v10.5469h-10.498c-2.24609 0-3.75977 1.51367-3.75977 3.71094Z"/>
  </g>
  <g transform="matrix(0.2 0 0 0.2 281.506 1933)">
   <path d="m58.5449 14.5508c27.4902 0 49.8047-22.3145 49.8047-49.8047s-22.3145-49.8047-49.8047-49.8047-49.8047 22.3145-49.8047 49.8047 22.3145 49.8047 49.8047 49.8047Zm0-8.30078c-22.9492 0-41.5039-18.5547-41.5039-41.5039s18.5547-41.5039 41.5039-41.5039 41.5039 18.5547 41.5039 41.5039-18.5547 41.5039-41.5039 41.5039Zm-22.6562-41.5039c0 2.39258 1.66016 4.00391 4.15039 4.00391h14.3555v14.4043c0 2.44141 1.66016 4.15039 4.05273 4.15039 2.44141 0 4.15039-1.66016 4.15039-4.15039v-14.4043h14.4043c2.44141 0 4.15039-1.61133 4.15039-4.00391 0-2.44141-1.70898-4.15039-4.15039-4.15039h-14.4043v-14.3555c0-2.49023-1.70898-4.19922-4.15039-4.19922-2.39258 0-4.05273 1.70898-4.05273 4.19922v14.3555h-14.3555c-2.49023 0-4.15039 1.70898-4.15039 4.15039Z"/>
  </g>
  <g transform="matrix(0.2 0 0 0.2 304.924 1933)">
   <path d="m74.8535 28.3203c35.1074 0 63.623-28.4668 63.623-63.5742s-28.5156-63.623-63.623-63.623-63.5742 28.5156-63.5742 63.623 28.4668 63.5742 63.5742 63.5742Zm0-9.08203c-30.127 0-54.4922-24.3652-54.4922-54.4922s24.3652-54.4922 54.4922-54.4922 54.4922 24.3652 54.4922 54.4922-24.3652 54.4922-54.4922 54.4922Zm-28.8574-54.4922c0 2.58789 1.85547 4.39453 4.58984 4.39453h19.7266v19.7754c0 2.68555 1.85547 4.58984 4.44336 4.58984 2.68555 0 4.54102-1.85547 4.54102-4.58984v-19.7754h19.7754c2.68555 0 4.58984-1.80664 4.58984-4.39453 0-2.73438-1.85547-4.58984-4.58984-4.58984h-19.7754v-19.7266c0-2.73438-1.85547-4.63867-4.54102-4.63867-2.58789 0-4.44336 1.9043-4.44336 4.63867v19.7266h-19.7266c-2.73438 0-4.58984 1.85547-4.58984 4.58984Z"/>
  </g>
  <text style="stroke:none;fill:black;font-family:sans-serif;font-size:13;font-weight:bold;" transform="matrix(1 0 0 1 263 1953)">Design Variations</text>
  <text style="stroke:none;fill:black;font-family:sans-serif;font-size:13;" transform="matrix(1 0 0 1 263 1971)">Symbols are supported in up to nine weights and three scales.</text>
  <text style="stroke:none;fill:black;font-family:sans-serif;font-size:13;" transform="matrix(1 0 0 1 263 1989)">For optimal layout with text and other symbols, vertically align</text>
  <text style="stroke:none;fill:black;font-family:sans-serif;font-size:13;" transform="matrix(1 0 0 1 263 2007)">symbols with the adjacent text.</text>
  <line style="fill:none;stroke:#00AEEF;stroke-width:0.5;opacity:1.0;" x1="776" x2="776" y1="1919" y2="1933"/>
  <g transform="matrix(0.2 0 0 0.2 776 1933)">
   <path d="m16.5527 0.78125c2.58789 0 3.85742-0.976562 4.78516-3.71094l6.29883-17.2363h28.8086l6.29883 17.2363c0.927734 2.73438 2.19727 3.71094 4.73633 3.71094 2.58789 0 4.24805-1.5625 4.24805-4.00391 0-0.830078-0.146484-1.61133-0.537109-2.63672l-22.9004-60.9863c-1.12305-2.97852-3.125-4.49219-6.25-4.49219-3.02734 0-5.07812 1.46484-6.15234 4.44336l-22.9004 61.084c-0.390625 1.02539-0.537109 1.80664-0.537109 2.63672 0 2.44141 1.5625 3.95508 4.10156 3.95508Zm13.4766-28.3691 11.8652-32.8613h0.244141l11.8652 32.8613Z"/>
  </g>
  <line style="fill:none;stroke:#00AEEF;stroke-width:0.5;opacity:1.0;" x1="792.836" x2="792.836" y1="1919" y2="1933"/>
  <text style="stroke:none;fill:black;font-family:sans-serif;font-size:13;font-weight:bold;" transform="matrix(1 0 0 1 776 1953)">Margins</text>
  <text style="stroke:none;fill:black;font-family:sans-serif;font-size:13;" transform="matrix(1 0 0 1 776 1971)">Leading and trailing margins on the left and right side of each symbol</text>
  <text style="stroke:none;fill:black;font-family:sans-serif;font-size:13;" transform="matrix(1 0 0 1 776 1989)">can be adjusted by modifying the x-location of the margin guidelines.</text>
  <text style="stroke:none;fill:black;font-family:sans-serif;font-size:13;" transform="matrix(1 0 0 1 776 2007)">Modifications are automatically applied proportionally to all</text>
  <text style="stroke:none;fill:black;font-family:sans-serif;font-size:13;" transform="matrix(1 0 0 1 776 2025)">scales and weights.</text>
  <g transform="matrix(0.2 0 0 0.2 1289 1933)">
   <path d="m14.209 9.32617 8.49609 8.54492c4.29688 4.3457 9.22852 4.05273 13.8672-1.07422l53.4668-58.9355-4.83398-4.88281-53.0762 58.3984c-1.75781 2.00195-3.41797 2.49023-5.76172 0.146484l-5.85938-5.81055c-2.34375-2.29492-1.80664-4.00391 0.195312-5.81055l57.373-54.0039-4.88281-4.83398-57.959 54.4434c-4.93164 4.58984-5.32227 9.47266-1.02539 13.8184Zm32.0801-90.9668c-2.09961 2.05078-2.24609 4.93164-1.07422 6.88477 1.17188 1.80664 3.4668 2.97852 6.68945 2.14844 7.32422-1.70898 14.9414-2.00195 22.0703 2.68555l-2.92969 7.27539c-1.70898 4.15039-0.830078 7.08008 1.85547 9.81445l11.4746 11.5723c2.44141 2.44141 4.49219 2.53906 7.32422 2.05078l5.32227-0.976562 3.32031 3.36914-0.195312 2.7832c-0.195312 2.49023 0.439453 4.39453 2.88086 6.78711l3.80859 3.71094c2.39258 2.39258 5.46875 2.53906 7.8125 0.195312l14.5508-14.5996c2.34375-2.34375 2.24609-5.32227-0.146484-7.71484l-3.85742-3.80859c-2.39258-2.39258-4.24805-3.17383-6.64062-2.97852l-2.88086 0.244141-3.22266-3.17383 1.2207-5.61523c0.634766-2.83203-0.146484-5.0293-3.07617-7.95898l-10.9863-10.9375c-16.6992-16.6016-38.8672-16.2109-53.3203-1.75781Zm7.4707 1.85547c12.1582-8.88672 28.6133-7.37305 39.7461 3.75977l12.1582 12.0605c1.17188 1.17188 1.36719 2.09961 1.02539 3.80859l-1.61133 7.42188 7.51953 7.42188 4.93164-0.292969c1.26953-0.0488281 1.66016 0.0488281 2.63672 1.02539l2.88086 2.88086-12.207 12.207-2.88086-2.88086c-0.976562-0.976562-1.12305-1.36719-1.07422-2.68555l0.341797-4.88281-7.4707-7.42188-7.61719 1.26953c-1.61133 0.341797-2.34375 0.195312-3.56445-0.976562l-10.0098-10.0098c-1.26953-1.17188-1.41602-2.00195-0.634766-3.85742l4.39453-10.4492c-7.8125-7.27539-17.9688-10.4004-28.125-7.42188-0.78125 0.195312-1.07422-0.439453-0.439453-0.976562Z"/>
  </g>
  <text style="stroke:none;fill:black;font-family:sans-serif;font-size:13;font-weight:bold;" transform="matrix(1 0 0 1 1289 1953)">Exporting</text>
  <text style="stroke:none;fill:black;font-family:sans-serif;font-size:13;" transform="matrix(1 0 0 1 1289 1971)">Symbols should be outlined when exporting to ensure the</text>
  <text style="stroke:none;fill:black;font-family:sans-serif;font-size:13;" transform="matrix(1 0 0 1 1289 1989)">design is preserved when submitting to Xcode.</text>
  <text id="template-version" style="stroke:none;fill:black;font-family:sans-serif;font-size:13;text-anchor:end;" transform="matrix(1 0 0 1 3036 1933)">Template v.6.0</text>
  <text style="stroke:none;fill:black;font-family:sans-serif;font-size:13;text-anchor:end;" transform="matrix(1 0 0 1 3036 1951)">Requires Xcode 16 or greater</text>
  <text id="descriptive-name" style="stroke:none;fill:black;font-family:sans-serif;font-size:13;text-anchor:end;" transform="matrix(1 0 0 1 3036 1969)">Generated from figure.table.tennis</text>
  <text style="stroke:none;fill:black;font-family:sans-serif;font-size:13;text-anchor:end;" transform="matrix(1 0 0 1 3036 1987)">Typeset at 100.0 points</text>
  <text style="stroke:none;fill:black;font-family:sans-serif;font-size:13;" transform="matrix(1 0 0 1 263 726)">Small</text>
  <text style="stroke:none;fill:black;font-family:sans-serif;font-size:13;" transform="matrix(1 0 0 1 263 1156)">Medium</text>
  <text style="stroke:none;fill:black;font-family:sans-serif;font-size:13;" transform="matrix(1 0 0 1 263 1586)">Large</text>
 </g>
 <g id="Guides">
  <g id="H-reference" style="fill:#27AAE1;stroke:none;" transform="matrix(1 0 0 1 339 696)">
   <path d="M0.993654 0L3.63775 0L29.3281-67.1323L30.0303-67.1323L30.0303-70.459L28.1226-70.459ZM11.6885-24.4799L46.9815-24.4799L46.2315-26.7285L12.4385-26.7285ZM55.1196 0L57.7637 0L30.6382-70.459L29.4326-70.459L29.4326-67.1323Z"/>
  </g>
  <line id="Baseline-S" style="fill:none;stroke:#27AAE1;opacity:1;stroke-width:0.5;" x1="263" x2="3036" y1="696" y2="696"/>
  <line id="Capline-S" style="fill:none;stroke:#27AAE1;opacity:1;stroke-width:0.5;" x1="263" x2="3036" y1="625.541" y2="625.541"/>
  <g id="H-reference" style="fill:#27AAE1;stroke:none;" transform="matrix(1 0 0 1 339 1126)">
   <path d="M0.993654 0L3.63775 0L29.3281-67.1323L30.0303-67.1323L30.0303-70.459L28.1226-70.459ZM11.6885-24.4799L46.9815-24.4799L46.2315-26.7285L12.4385-26.7285ZM55.1196 0L57.7637 0L30.6382-70.459L29.4326-70.459L29.4326-67.1323Z"/>
  </g>
  <line id="Baseline-M" style="fill:none;stroke:#27AAE1;opacity:1;stroke-width:0.5;" x1="263" x2="3036" y1="1126" y2="1126"/>
  <line id="Capline-M" style="fill:none;stroke:#27AAE1;opacity:1;stroke-width:0.5;" x1="263" x2="3036" y1="1055.54" y2="1055.54"/>
  <g id="H-reference" style="fill:#27AAE1;stroke:none;" transform="matrix(1 0 0 1 339 1556)">
   <path d="M0.993654 0L3.63775 0L29.3281-67.1323L30.0303-67.1323L30.0303-70.459L28.1226-70.459ZM11.6885-24.4799L46.9815-24.4799L46.2315-26.7285L12.4385-26.7285ZM55.1196 0L57.7637 0L30.6382-70.459L29.4326-70.459L29.4326-67.1323Z"/>
  </g>
  <line id="Baseline-L" style="fill:none;stroke:#27AAE1;opacity:1;stroke-width:0.5;" x1="263" x2="3036" y1="1556" y2="1556"/>
  <line id="Capline-L" style="fill:none;stroke:#27AAE1;opacity:1;stroke-width:0.5;" x1="263" x2="3036" y1="1485.54" y2="1485.54"/>
  <line id="right-margin-Black-S" style="fill:none;stroke:#00AEEF;stroke-width:0.5;opacity:1.0;" x1="2990.53" x2="2990.53" y1="600.785" y2="720.121"/>
  <line id="left-margin-Black-S" style="fill:none;stroke:#00AEEF;stroke-width:0.5;opacity:1.0;" x1="2876.27" x2="2876.27" y1="600.785" y2="720.121"/>
  <line id="right-margin-Regular-S" style="fill:none;stroke:#00AEEF;stroke-width:0.5;opacity:1.0;" x1="1503.85" x2="1503.85" y1="600.785" y2="720.121"/>
  <line id="left-margin-Regular-S" style="fill:none;stroke:#00AEEF;stroke-width:0.5;opacity:1.0;" x1="1395.84" x2="1395.84" y1="600.785" y2="720.121"/>
  <line id="right-margin-Ultralight-S" style="fill:none;stroke:#00AEEF;stroke-width:0.5;opacity:1.0;" x1="609.719" x2="609.719" y1="600.785" y2="720.121"/>
  <line id="left-margin-Ultralight-S" style="fill:none;stroke:#00AEEF;stroke-width:0.5;opacity:1.0;" x1="509.703" x2="509.703" y1="600.785" y2="720.121"/>
 </g>
 <g id="Symbols">
  <g id="Black-S" transform="matrix(1 0 0 1 2876.27 696)">
   <path class="monochrome-0 multicolor-0:tintColor hierarchical-0:primary SFSymbolsPreviewWireframe" d="M62.4512-62.3047C67.8223-62.3047 72.2168-66.6992 72.2168-72.0703C72.2168-77.4414 67.8223-81.8359 62.4512-81.8359C57.0801-81.8359 52.6855-77.4414 52.6855-72.0703C52.6855-66.6992 57.0801-62.3047 62.4512-62.3047ZM73.6328 10.3027C76.123 9.66797 78.125 7.27539 77.1973 4.00391L71.0449-17.4316C70.7031-18.6523 69.9707-19.6777 68.7988-20.3613L56.6406-27.4902L62.4512-44.8242C62.6953-45.6055 63.1348-45.6543 63.8184-45.0195L72.9004-35.9863C73.8281-35.0586 75.0977-34.4727 76.416-34.4727C77.7344-34.4727 79.0039-35.0098 79.9805-35.9863L92.2363-48.2422C94.1895-50.1953 94.2871-53.3203 92.2363-55.3711C90.332-57.3242 87.1582-57.4219 85.1074-55.3711L76.416-46.6797L69.2383-54.1016C65.3809-58.1055 61.2305-58.8867 53.5645-58.8867L15.1367-58.8867C12.3535-58.8867 10.0586-56.6406 10.0586-53.8086C10.0586-51.0254 12.3535-48.7793 15.1367-48.7793L43.6523-48.7793C44.4824-48.7793 44.8242-48.4863 44.4824-47.4609L39.6973-33.2031C37.8418-27.6855 40.4785-21.7773 45.8008-19.4336L61.9141-12.3047L67.5293 6.68945C68.5059 9.96094 71.2402 10.9375 73.6328 10.3027ZM21.3867 8.64258C22.7539 10.4004 25.1953 11.2793 27.8809 9.76562L46.0938-0.292969C47.2656-0.927734 48.0957-2.00195 48.4863-3.22266L51.3184-11.6211L43.8477-14.9414C42.8711-15.3809 41.9434-15.918 41.1133-16.5039L39.3066-8.1543L22.9492 1.02539C19.6289 2.88086 19.6777 6.44531 21.3867 8.64258ZM78.4668-22.5098L104.492-22.5098L104.492-30.3223L78.4668-30.3223C76.3184-30.3223 74.5605-28.5645 74.5605-26.416C74.5605-24.2676 76.3184-22.5098 78.4668-22.5098ZM15.1367-55.9082L21.6309-55.9082L21.6309-63.623L15.1367-63.623ZM18.4082-80.3711C13.5742-80.3711 9.76562-76.5137 9.76562-71.6797C9.76562-67.2852 13.5254-62.0605 18.4082-61.1328C23.2422-62.0605 27.0508-67.2852 27.0508-71.6797C27.0508-76.5137 23.1934-80.3711 18.4082-80.3711Z"/>
  </g>
  <g id="Regular-S" transform="matrix(1 0 0 1 1395.84 696)">
   <path class="monochrome-0 multicolor-0:tintColor hierarchical-0:primary SFSymbolsPreviewWireframe" d="M58.9844-60.8887C63.623-60.8887 67.4805-64.7461 67.4805-69.3848C67.4805-74.0723 63.623-77.8809 58.9844-77.8809C54.2969-77.8809 50.4883-74.0723 50.4883-69.3848C50.4883-64.7461 54.2969-60.8887 58.9844-60.8887ZM69.873 6.49414C71.5332 5.85938 72.8516 4.15039 72.168 1.75781L66.3086-18.75C66.0156-19.7266 65.4785-20.5078 64.5508-20.9961L52.2461-28.2227L58.1055-45.5566C58.5449-46.875 59.9609-47.0215 60.8887-46.0449L69.6289-37.4023C70.3613-36.6699 71.2891-36.2305 72.3145-36.2305C73.3398-36.2305 74.3164-36.6211 75.0977-37.4023L86.8164-49.1211C88.3301-50.6836 88.3789-53.0762 86.8164-54.6387C85.3027-56.1523 82.8613-56.2012 81.2988-54.6387L72.3145-45.6543L64.7949-53.418C61.3281-57.0312 57.666-57.7148 50.4883-57.7148L13.7207-57.7148C11.5723-57.7148 9.76562-56.0059 9.76562-53.8086C9.76562-51.6602 11.5723-49.9023 13.7207-49.9023L41.0156-49.9023C42.1387-49.9023 43.1641-48.9746 42.627-47.4609L38.0859-33.7891C36.4746-28.9551 38.7695-23.7793 43.4082-21.7285L59.2773-14.7949L64.6973 3.80859C65.4785 6.54297 67.9199 7.22656 69.873 6.49414ZM20.2148 5.12695C21.2402 6.64062 23.2422 7.42188 25.4395 6.25L42.8711-3.41797C43.75-3.90625 44.3848-4.6875 44.7266-5.71289L48.0469-15.5273L41.8945-18.2129C41.1621-18.5547 40.4785-18.8965 39.7949-19.3359L37.6465-9.52148L21.6797-0.585938C19.1895 0.830078 19.0918 3.41797 20.2148 5.12695ZM74.2676-27.0508L98.2422-27.0508L98.2422-31.7871L74.2676-31.7871C72.9492-31.7871 71.9238-30.7617 71.9238-29.4434C71.9238-28.125 72.9492-27.0508 74.2676-27.0508ZM14.9902-56.3965L19.2383-56.3965L19.2383-61.8652L14.9902-61.8652ZM17.0898-76.5137C13.0371-76.5137 9.76562-73.291 9.76562-69.1406C9.76562-65.4297 13.0371-60.9375 17.0898-60.0098C21.1914-60.9375 24.4141-65.4297 24.4141-69.1406C24.4141-73.291 21.1914-76.5137 17.0898-76.5137Z"/>
  </g>
  <g id="Ultralight-S" transform="matrix(1 0 0 1 509.703 696)">
   <path class="monochrome-0 multicolor-0:tintColor hierarchical-0:primary SFSymbolsPreviewWireframe" d="M54.5342-58.5274C58.7642-58.5274 62.2129-62.0215 62.2129-66.2061C62.2129-70.4849 58.7642-73.9756 54.5342-73.9756C50.2554-73.9756 46.7647-70.4849 46.7647-66.2061C46.7647-62.0215 50.2554-58.5274 54.5342-58.5274ZM64.5601 2.72513C66.0386 2.09036 67.1299 0.563017 66.5372-1.5571L61.2227-20.2031C60.9751-21.0889 60.438-21.7793 59.6011-22.2676L48.4317-28.7676L53.7461-44.5576C54.1402-45.7398 55.42-45.8408 56.3023-44.9551L64.1797-37.1299C64.8667-36.4883 65.7037-36.0942 66.6382-36.0942C67.5728-36.0942 68.504-36.394 69.1944-37.1299L79.8687-47.8042C81.2461-49.1851 81.295-51.396 79.8687-52.8223C78.4913-54.1997 76.2769-54.2486 74.8506-52.8223L66.6382-44.6553L59.8453-51.6924C56.6963-54.9878 53.3521-55.626 46.7647-55.626L13.3574-55.626C11.3906-55.626 9.76562-54.0532 9.76562-52.0376C9.76562-50.1162 11.3906-48.4946 13.3574-48.4946L38.2002-48.4946C39.2324-48.4946 40.167-47.6577 39.6753-46.2349L35.543-33.8799C34.0679-29.4546 36.1358-24.7329 40.4112-22.9092L54.7818-16.6113L59.7476 0.312039C60.4834 2.86478 62.834 3.45755 64.5601 2.72513ZM19.4883 1.76663C20.4683 3.00784 22.1524 3.56204 24.0317 2.5264L39.9195-6.23338C40.7075-6.67625 41.2969-7.36668 41.5479-8.30125L44.732-17.7524L39.2154-20.1655C38.5283-20.4619 37.8447-20.8945 37.2066-21.2886L35.1489-11.792L20.5899-3.62839C18.2358-2.25779 18.229 0.239283 19.4883 1.76663ZM68.4097-29.957L90.2501-29.957L90.2501-32.0596L68.4097-32.0596C67.8633-32.0596 67.3828-31.5791 67.3828-31.0327C67.3828-30.4409 67.8633-29.957 68.4097-29.957ZM15.3989-53.5357L17.4673-53.5357L17.4673-58.4595L15.3989-58.4595ZM16.4541-72.6992C12.7192-72.6992 9.76562-69.7491 9.76562-66.0528C9.76562-62.6143 12.7192-58.5308 16.4541-57.6939C20.1924-58.5308 23.0972-62.6143 23.0972-66.0528C23.0972-69.7491 20.1924-72.6992 16.4541-72.6992Z"/>
  </g>
 </g>
</svg>
