<?xml version="1.0" encoding="UTF-8"?>
<!--Generator: Apple Native CoreSVG 336-->
<!DOCTYPE svg
PUBLIC "-//W3C//DTD SVG 1.1//EN"
       "http://www.w3.org/Graphics/SVG/1.1/DTD/svg11.dtd">
<svg version="1.1" xmlns="http://www.w3.org/2000/svg" xmlns:xlink="http://www.w3.org/1999/xlink" viewBox="0 0 3300 2200">
 <!--glyph: "10158C", point size: 100.0, font version: "20.0d8e1", template writer version: "138.0.0"-->
 <style>.monochrome-0 {-sfsymbols-motion-group:0;-sfsymbols-layer-tags:dumbbell}

.multicolor-0:tintColor {-sfsymbols-motion-group:0;-sfsymbols-layer-tags:dumbbell}

.hierarchical-0:primary {-sfsymbols-motion-group:0;-sfsymbols-layer-tags:dumbbell}

.SFSymbolsPreviewWireframe {fill:none;opacity:1.0;stroke:black;stroke-width:0.5}
</style>
 <g id="Notes">
  <rect height="2200" id="artboard" style="fill:white;opacity:1" width="3300" x="0" y="0"/>
  <line style="fill:none;stroke:black;opacity:1;stroke-width:0.5;" x1="263" x2="3036" y1="292" y2="292"/>
  <text style="stroke:none;fill:black;font-family:sans-serif;font-size:13;font-weight:bold;" transform="matrix(1 0 0 1 263 322)">Weight/Scale Variations</text>
  <text style="stroke:none;fill:black;font-family:sans-serif;font-size:13;text-anchor:middle;" transform="matrix(1 0 0 1 559.711 322)">Ultralight</text>
  <text style="stroke:none;fill:black;font-family:sans-serif;font-size:13;text-anchor:middle;" transform="matrix(1 0 0 1 856.422 322)">Thin</text>
  <text style="stroke:none;fill:black;font-family:sans-serif;font-size:13;text-anchor:middle;" transform="matrix(1 0 0 1 1153.13 322)">Light</text>
  <text style="stroke:none;fill:black;font-family:sans-serif;font-size:13;text-anchor:middle;" transform="matrix(1 0 0 1 1449.84 322)">Regular</text>
  <text style="stroke:none;fill:black;font-family:sans-serif;font-size:13;text-anchor:middle;" transform="matrix(1 0 0 1 1746.56 322)">Medium</text>
  <text style="stroke:none;fill:black;font-family:sans-serif;font-size:13;text-anchor:middle;" transform="matrix(1 0 0 1 2043.27 322)">Semibold</text>
  <text style="stroke:none;fill:black;font-family:sans-serif;font-size:13;text-anchor:middle;" transform="matrix(1 0 0 1 2339.98 322)">Bold</text>
  <text style="stroke:none;fill:black;font-family:sans-serif;font-size:13;text-anchor:middle;" transform="matrix(1 0 0 1 2636.69 322)">Heavy</text>
  <text style="stroke:none;fill:black;font-family:sans-serif;font-size:13;text-anchor:middle;" transform="matrix(1 0 0 1 2933.4 322)">Black</text>
  <line style="fill:none;stroke:black;opacity:1;stroke-width:0.5;" x1="263" x2="3036" y1="1903" y2="1903"/>
  <g transform="matrix(0.2 0 0 0.2 263 1933)">
   <path d="m46.2402 4.15039c21.7773 0 39.4531-17.627 39.4531-39.4043s-17.6758-39.4043-39.4531-39.4043c-21.7285 0-39.4043 17.627-39.4043 39.4043s17.6758 39.4043 39.4043 39.4043Zm0-7.42188c-17.6758 0-31.9336-14.3066-31.9336-31.9824s14.2578-31.9824 31.9336-31.9824 31.9824 14.3066 31.9824 31.9824-14.3066 31.9824-31.9824 31.9824Zm-17.9688-31.9824c0 2.14844 1.51367 3.61328 3.75977 3.61328h10.498v10.5957c0 2.19727 1.46484 3.71094 3.61328 3.71094 2.24609 0 3.71094-1.51367 3.71094-3.71094v-10.5957h10.5957c2.19727 0 3.71094-1.46484 3.71094-3.61328 0-2.19727-1.51367-3.71094-3.71094-3.71094h-10.5957v-10.5469c0-2.24609-1.46484-3.75977-3.71094-3.75977-2.14844 0-3.61328 1.51367-3.61328 3.75977v10.5469h-10.498c-2.24609 0-3.75977 1.51367-3.75977 3.71094Z"/>
  </g>
  <g transform="matrix(0.2 0 0 0.2 281.506 1933)">
   <path d="m58.5449 14.5508c27.4902 0 49.8047-22.3145 49.8047-49.8047s-22.3145-49.8047-49.8047-49.8047-49.8047 22.3145-49.8047 49.8047 22.3145 49.8047 49.8047 49.8047Zm0-8.30078c-22.9492 0-41.5039-18.5547-41.5039-41.5039s18.5547-41.5039 41.5039-41.5039 41.5039 18.5547 41.5039 41.5039-18.5547 41.5039-41.5039 41.5039Zm-22.6562-41.5039c0 2.39258 1.66016 4.00391 4.15039 4.00391h14.3555v14.4043c0 2.44141 1.66016 4.15039 4.05273 4.15039 2.44141 0 4.15039-1.66016 4.15039-4.15039v-14.4043h14.4043c2.44141 0 4.15039-1.61133 4.15039-4.00391 0-2.44141-1.70898-4.15039-4.15039-4.15039h-14.4043v-14.3555c0-2.49023-1.70898-4.19922-4.15039-4.19922-2.39258 0-4.05273 1.70898-4.05273 4.19922v14.3555h-14.3555c-2.49023 0-4.15039 1.70898-4.15039 4.15039Z"/>
  </g>
  <g transform="matrix(0.2 0 0 0.2 304.924 1933)">
   <path d="m74.8535 28.3203c35.1074 0 63.623-28.4668 63.623-63.5742s-28.5156-63.623-63.623-63.623-63.5742 28.5156-63.5742 63.623 28.4668 63.5742 63.5742 63.5742Zm0-9.08203c-30.127 0-54.4922-24.3652-54.4922-54.4922s24.3652-54.4922 54.4922-54.4922 54.4922 24.3652 54.4922 54.4922-24.3652 54.4922-54.4922 54.4922Zm-28.8574-54.4922c0 2.58789 1.85547 4.39453 4.58984 4.39453h19.7266v19.7754c0 2.68555 1.85547 4.58984 4.44336 4.58984 2.68555 0 4.54102-1.85547 4.54102-4.58984v-19.7754h19.7754c2.68555 0 4.58984-1.80664 4.58984-4.39453 0-2.73438-1.85547-4.58984-4.58984-4.58984h-19.7754v-19.7266c0-2.73438-1.85547-4.63867-4.54102-4.63867-2.58789 0-4.44336 1.9043-4.44336 4.63867v19.7266h-19.7266c-2.73438 0-4.58984 1.85547-4.58984 4.58984Z"/>
  </g>
  <text style="stroke:none;fill:black;font-family:sans-serif;font-size:13;font-weight:bold;" transform="matrix(1 0 0 1 263 1953)">Design Variations</text>
  <text style="stroke:none;fill:black;font-family:sans-serif;font-size:13;" transform="matrix(1 0 0 1 263 1971)">Symbols are supported in up to nine weights and three scales.</text>
  <text style="stroke:none;fill:black;font-family:sans-serif;font-size:13;" transform="matrix(1 0 0 1 263 1989)">For optimal layout with text and other symbols, vertically align</text>
  <text style="stroke:none;fill:black;font-family:sans-serif;font-size:13;" transform="matrix(1 0 0 1 263 2007)">symbols with the adjacent text.</text>
  <line style="fill:none;stroke:#00AEEF;stroke-width:0.5;opacity:1.0;" x1="776" x2="776" y1="1919" y2="1933"/>
  <g transform="matrix(0.2 0 0 0.2 776 1933)">
   <path d="m16.5527 0.78125c2.58789 0 3.85742-0.976562 4.78516-3.71094l6.29883-17.2363h28.8086l6.29883 17.2363c0.927734 2.73438 2.19727 3.71094 4.73633 3.71094 2.58789 0 4.24805-1.5625 4.24805-4.00391 0-0.830078-0.146484-1.61133-0.537109-2.63672l-22.9004-60.9863c-1.12305-2.97852-3.125-4.49219-6.25-4.49219-3.02734 0-5.07812 1.46484-6.15234 4.44336l-22.9004 61.084c-0.390625 1.02539-0.537109 1.80664-0.537109 2.63672 0 2.44141 1.5625 3.95508 4.10156 3.95508Zm13.4766-28.3691 11.8652-32.8613h0.244141l11.8652 32.8613Z"/>
  </g>
  <line style="fill:none;stroke:#00AEEF;stroke-width:0.5;opacity:1.0;" x1="792.836" x2="792.836" y1="1919" y2="1933"/>
  <text style="stroke:none;fill:black;font-family:sans-serif;font-size:13;font-weight:bold;" transform="matrix(1 0 0 1 776 1953)">Margins</text>
  <text style="stroke:none;fill:black;font-family:sans-serif;font-size:13;" transform="matrix(1 0 0 1 776 1971)">Leading and trailing margins on the left and right side of each symbol</text>
  <text style="stroke:none;fill:black;font-family:sans-serif;font-size:13;" transform="matrix(1 0 0 1 776 1989)">can be adjusted by modifying the x-location of the margin guidelines.</text>
  <text style="stroke:none;fill:black;font-family:sans-serif;font-size:13;" transform="matrix(1 0 0 1 776 2007)">Modifications are automatically applied proportionally to all</text>
  <text style="stroke:none;fill:black;font-family:sans-serif;font-size:13;" transform="matrix(1 0 0 1 776 2025)">scales and weights.</text>
  <g transform="matrix(0.2 0 0 0.2 1289 1933)">
   <path d="m14.209 9.32617 8.49609 8.54492c4.29688 4.3457 9.22852 4.05273 13.8672-1.07422l53.4668-58.9355-4.83398-4.88281-53.0762 58.3984c-1.75781 2.00195-3.41797 2.49023-5.76172 0.146484l-5.85938-5.81055c-2.34375-2.29492-1.80664-4.00391 0.195312-5.81055l57.373-54.0039-4.88281-4.83398-57.959 54.4434c-4.93164 4.58984-5.32227 9.47266-1.02539 13.8184Zm32.0801-90.9668c-2.09961 2.05078-2.24609 4.93164-1.07422 6.88477 1.17188 1.80664 3.4668 2.97852 6.68945 2.14844 7.32422-1.70898 14.9414-2.00195 22.0703 2.68555l-2.92969 7.27539c-1.70898 4.15039-0.830078 7.08008 1.85547 9.81445l11.4746 11.5723c2.44141 2.44141 4.49219 2.53906 7.32422 2.05078l5.32227-0.976562 3.32031 3.36914-0.195312 2.7832c-0.195312 2.49023 0.439453 4.39453 2.88086 6.78711l3.80859 3.71094c2.39258 2.39258 5.46875 2.53906 7.8125 0.195312l14.5508-14.5996c2.34375-2.34375 2.24609-5.32227-0.146484-7.71484l-3.85742-3.80859c-2.39258-2.39258-4.24805-3.17383-6.64062-2.97852l-2.88086 0.244141-3.22266-3.17383 1.2207-5.61523c0.634766-2.83203-0.146484-5.0293-3.07617-7.95898l-10.9863-10.9375c-16.6992-16.6016-38.8672-16.2109-53.3203-1.75781Zm7.4707 1.85547c12.1582-8.88672 28.6133-7.37305 39.7461 3.75977l12.1582 12.0605c1.17188 1.17188 1.36719 2.09961 1.02539 3.80859l-1.61133 7.42188 7.51953 7.42188 4.93164-0.292969c1.26953-0.0488281 1.66016 0.0488281 2.63672 1.02539l2.88086 2.88086-12.207 12.207-2.88086-2.88086c-0.976562-0.976562-1.12305-1.36719-1.07422-2.68555l0.341797-4.88281-7.4707-7.42188-7.61719 1.26953c-1.61133 0.341797-2.34375 0.195312-3.56445-0.976562l-10.0098-10.0098c-1.26953-1.17188-1.41602-2.00195-0.634766-3.85742l4.39453-10.4492c-7.8125-7.27539-17.9688-10.4004-28.125-7.42188-0.78125 0.195312-1.07422-0.439453-0.439453-0.976562Z"/>
  </g>
  <text style="stroke:none;fill:black;font-family:sans-serif;font-size:13;font-weight:bold;" transform="matrix(1 0 0 1 1289 1953)">Exporting</text>
  <text style="stroke:none;fill:black;font-family:sans-serif;font-size:13;" transform="matrix(1 0 0 1 1289 1971)">Symbols should be outlined when exporting to ensure the</text>
  <text style="stroke:none;fill:black;font-family:sans-serif;font-size:13;" transform="matrix(1 0 0 1 1289 1989)">design is preserved when submitting to Xcode.</text>
  <text id="template-version" style="stroke:none;fill:black;font-family:sans-serif;font-size:13;text-anchor:end;" transform="matrix(1 0 0 1 3036 1933)">Template v.6.0</text>
  <text style="stroke:none;fill:black;font-family:sans-serif;font-size:13;text-anchor:end;" transform="matrix(1 0 0 1 3036 1951)">Requires Xcode 16 or greater</text>
  <text id="descriptive-name" style="stroke:none;fill:black;font-family:sans-serif;font-size:13;text-anchor:end;" transform="matrix(1 0 0 1 3036 1969)">Generated from dumbbell</text>
  <text style="stroke:none;fill:black;font-family:sans-serif;font-size:13;text-anchor:end;" transform="matrix(1 0 0 1 3036 1987)">Typeset at 100.0 points</text>
  <text style="stroke:none;fill:black;font-family:sans-serif;font-size:13;" transform="matrix(1 0 0 1 263 726)">Small</text>
  <text style="stroke:none;fill:black;font-family:sans-serif;font-size:13;" transform="matrix(1 0 0 1 263 1156)">Medium</text>
  <text style="stroke:none;fill:black;font-family:sans-serif;font-size:13;" transform="matrix(1 0 0 1 263 1586)">Large</text>
 </g>
 <g id="Guides">
  <g id="H-reference" style="fill:#27AAE1;stroke:none;" transform="matrix(1 0 0 1 339 696)">
   <path d="M0.993654 0L3.63775 0L29.3281-67.1323L30.0303-67.1323L30.0303-70.459L28.1226-70.459ZM11.6885-24.4799L46.9815-24.4799L46.2315-26.7285L12.4385-26.7285ZM55.1196 0L57.7637 0L30.6382-70.459L29.4326-70.459L29.4326-67.1323Z"/>
  </g>
  <line id="Baseline-S" style="fill:none;stroke:#27AAE1;opacity:1;stroke-width:0.5;" x1="263" x2="3036" y1="696" y2="696"/>
  <line id="Capline-S" style="fill:none;stroke:#27AAE1;opacity:1;stroke-width:0.5;" x1="263" x2="3036" y1="625.541" y2="625.541"/>
  <g id="H-reference" style="fill:#27AAE1;stroke:none;" transform="matrix(1 0 0 1 339 1126)">
   <path d="M0.993654 0L3.63775 0L29.3281-67.1323L30.0303-67.1323L30.0303-70.459L28.1226-70.459ZM11.6885-24.4799L46.9815-24.4799L46.2315-26.7285L12.4385-26.7285ZM55.1196 0L57.7637 0L30.6382-70.459L29.4326-70.459L29.4326-67.1323Z"/>
  </g>
  <line id="Baseline-M" style="fill:none;stroke:#27AAE1;opacity:1;stroke-width:0.5;" x1="263" x2="3036" y1="1126" y2="1126"/>
  <line id="Capline-M" style="fill:none;stroke:#27AAE1;opacity:1;stroke-width:0.5;" x1="263" x2="3036" y1="1055.54" y2="1055.54"/>
  <g id="H-reference" style="fill:#27AAE1;stroke:none;" transform="matrix(1 0 0 1 339 1556)">
   <path d="M0.993654 0L3.63775 0L29.3281-67.1323L30.0303-67.1323L30.0303-70.459L28.1226-70.459ZM11.6885-24.4799L46.9815-24.4799L46.2315-26.7285L12.4385-26.7285ZM55.1196 0L57.7637 0L30.6382-70.459L29.4326-70.459L29.4326-67.1323Z"/>
  </g>
  <line id="Baseline-L" style="fill:none;stroke:#27AAE1;opacity:1;stroke-width:0.5;" x1="263" x2="3036" y1="1556" y2="1556"/>
  <line id="Capline-L" style="fill:none;stroke:#27AAE1;opacity:1;stroke-width:0.5;" x1="263" x2="3036" y1="1485.54" y2="1485.54"/>
  <line id="right-margin-Black-S" style="fill:none;stroke:#00AEEF;stroke-width:0.5;opacity:1.0;" x1="3002.57" x2="3002.57" y1="600.785" y2="720.121"/>
  <line id="left-margin-Black-S" style="fill:none;stroke:#00AEEF;stroke-width:0.5;opacity:1.0;" x1="2864.23" x2="2864.23" y1="600.785" y2="720.121"/>
  <line id="right-margin-Regular-S" style="fill:none;stroke:#00AEEF;stroke-width:0.5;opacity:1.0;" x1="1510.05" x2="1510.05" y1="600.785" y2="720.121"/>
  <line id="left-margin-Regular-S" style="fill:none;stroke:#00AEEF;stroke-width:0.5;opacity:1.0;" x1="1389.64" x2="1389.64" y1="600.785" y2="720.121"/>
  <line id="right-margin-Ultralight-S" style="fill:none;stroke:#00AEEF;stroke-width:0.5;opacity:1.0;" x1="608.655" x2="608.655" y1="600.785" y2="720.121"/>
  <line id="left-margin-Ultralight-S" style="fill:none;stroke:#00AEEF;stroke-width:0.5;opacity:1.0;" x1="510.768" x2="510.768" y1="600.785" y2="720.121"/>
 </g>
 <g id="Symbols">
  <g id="Black-S" transform="matrix(1 0 0 1 2864.23 696)">
   <path class="monochrome-0 multicolor-0:tintColor hierarchical-0:primary SFSymbolsPreviewWireframe" d="M20.3613-11.3281L28.4668-11.3281L28.4668-22.9004L22.2656-22.9004C21.6309-22.9004 21.2891-23.2422 21.2891-23.877L21.2891-46.7773C21.2891-47.4121 21.6309-47.7539 22.2656-47.7539L28.4668-47.7539L28.4668-59.2773L20.3613-59.2773C14.4043-59.2773 9.76562-54.6387 9.76562-48.6816L9.76562-21.875C9.76562-16.0645 14.4043-11.3281 20.3613-11.3281ZM38.2812-0.244141L40.625-0.244141C48.877-0.244141 54.6387-5.56641 54.6387-13.1348L54.6387-57.4219C54.6387-64.9902 48.877-70.3125 40.625-70.3125L38.2812-70.3125C30.0293-70.3125 24.2676-64.9902 24.2676-57.4219L24.2676-13.1348C24.2676-5.56641 30.0293-0.244141 38.2812-0.244141ZM38.3789-12.3047C37.1582-12.3047 36.3281-13.0371 36.3281-14.1113L36.3281-56.4453C36.3281-57.5195 37.1582-58.252 38.3789-58.252L40.5273-58.252C41.748-58.252 42.5781-57.5195 42.5781-56.4453L42.5781-14.1113C42.5781-13.0371 41.748-12.3047 40.5273-12.3047ZM48.7305-36.6699L89.5996-36.6699L89.5996-48.7305L48.7305-48.7305ZM48.7305-21.875L89.5996-21.875L89.5996-33.9355L48.7305-33.9355ZM97.7051-0.244141L100.049-0.244141C108.301-0.244141 114.062-5.56641 114.062-13.1348L114.062-57.4219C114.062-64.9902 108.301-70.3125 100.049-70.3125L97.7051-70.3125C89.4531-70.3125 83.6914-64.9902 83.6914-57.4219L83.6914-13.1348C83.6914-5.56641 89.4531-0.244141 97.7051-0.244141ZM97.8027-12.3047C96.582-12.3047 95.752-13.0371 95.752-14.1113L95.752-56.4453C95.752-57.5195 96.582-58.252 97.8027-58.252L99.9512-58.252C101.172-58.252 102.002-57.5195 102.002-56.4453L102.002-14.1113C102.002-13.0371 101.172-12.3047 99.9512-12.3047ZM109.863-11.3281L117.969-11.3281C123.926-11.3281 128.564-16.0645 128.564-21.875L128.564-48.6816C128.564-54.6387 123.926-59.2773 117.969-59.2773L109.863-59.2773L109.863-47.7539L116.064-47.7539C116.699-47.7539 117.041-47.4121 117.041-46.7773L117.041-23.877C117.041-23.2422 116.699-22.9004 116.064-22.9004L109.863-22.9004Z"/>
  </g>
  <g id="Regular-S" transform="matrix(1 0 0 1 1389.64 696)">
   <path class="monochrome-0 multicolor-0:tintColor hierarchical-0:primary SFSymbolsPreviewWireframe" d="M17.3828-14.9414L22.7051-14.9414L22.7051-21.0449L17.4316-21.0449C16.5527-21.0449 15.8691-21.7285 15.8691-22.6074L15.8691-47.9492C15.8691-48.8281 16.5527-49.5605 17.4316-49.5605L22.7051-49.5605L22.7051-55.6641L17.3828-55.6641C13.1348-55.6641 9.76562-52.2949 9.76562-48.0469L9.76562-22.5098C9.76562-18.3105 13.1348-14.9414 17.3828-14.9414ZM30.5664-6.29883L33.3008-6.29883C40.2344-6.29883 44.0918-10.4492 44.0918-17.7734L44.0918-52.7344C44.0918-60.1074 40.2344-64.2578 33.3008-64.2578L30.127-64.2578C23.7793-64.2578 20.2148-60.1074 20.2148-52.7344L20.2148-17.7734C20.2148-10.4492 23.9258-6.29883 30.5664-6.29883ZM30.6641-12.8906C28.1738-12.8906 26.8066-14.6484 26.8066-17.7734L26.8066-52.7344C26.8066-55.8594 28.0273-57.666 30.2246-57.666L33.2031-57.666C35.9375-57.666 37.5488-55.8594 37.5488-52.7344L37.5488-17.7734C37.5488-14.6484 35.9375-12.8906 33.2031-12.8906ZM43.1152-38.0859L77.2949-38.0859L77.2949-44.6777L43.1152-44.6777ZM43.1152-25.9277L77.2949-25.9277L77.2949-32.5195L43.1152-32.5195ZM87.1094-6.29883L89.8438-6.29883C96.4844-6.29883 100.195-10.4492 100.195-17.7734L100.195-52.7344C100.195-60.1074 96.6309-64.2578 90.2832-64.2578L87.1094-64.2578C80.1758-64.2578 76.3184-60.1074 76.3184-52.7344L76.3184-17.7734C76.3184-10.4492 80.2246-6.29883 87.1094-6.29883ZM87.207-12.8906C84.4727-12.8906 82.8613-14.6484 82.8613-17.7734L82.8613-52.7344C82.8613-55.8594 84.4727-57.666 87.207-57.666L90.1855-57.666C92.3828-57.666 93.6035-55.8594 93.6035-52.7344L93.6035-17.7734C93.6035-14.6484 92.2363-12.8906 89.7461-12.8906ZM97.7539-14.9414L103.027-14.9414C107.275-14.9414 110.645-18.3105 110.645-22.5098L110.645-48.0469C110.645-52.2949 107.275-55.6641 103.027-55.6641L97.7539-55.6641L97.7539-49.5605L102.979-49.5605C103.857-49.5605 104.541-48.8281 104.541-47.9492L104.541-22.6074C104.541-21.7285 103.857-21.0449 102.979-21.0449L97.7539-21.0449Z"/>
  </g>
  <g id="Ultralight-S" transform="matrix(1 0 0 1 510.768 696)">
   <path class="monochrome-0 multicolor-0:tintColor hierarchical-0:primary SFSymbolsPreviewWireframe" d="M14.9761-17.6206L18.1187-17.6206L18.1187-19.7734L15.0249-19.7734C13.1924-19.7734 11.9185-21.0928 11.9185-22.8799L11.9185-47.6768C11.9185-49.5093 13.1924-50.8774 15.0249-50.8774L18.1187-50.8774L18.1187-53.0303L14.9761-53.0303C11.9087-53.0303 9.76562-50.8418 9.76562-47.7744L9.76562-22.7822C9.76562-19.8091 11.9087-17.6206 14.9761-17.6206ZM23.8458-10.0224L26.4893-10.0224C30.6075-10.0224 33.5113-12.5835 33.5113-16.2749L33.5113-54.2329C33.5113-58.0186 30.7891-60.625 26.8526-60.625L23.4517-60.625C19.5108-60.625 16.8091-58.0186 16.8091-54.2329L16.8091-16.2749C16.8091-12.5835 19.7027-10.0224 23.8458-10.0224ZM23.9434-12.2095C21.0445-12.2095 18.9962-13.8765 18.9962-16.2749L18.9962-54.2329C18.9962-56.6768 20.898-58.438 23.5494-58.438L26.7549-58.438C29.4439-58.438 31.3277-56.6768 31.3277-54.2329L31.3277-16.2749C31.3277-13.8765 29.3077-12.2095 26.3917-12.2095ZM32.3531-39.9477L65.5338-39.9477L65.5338-42.1348L32.3531-42.1348ZM32.3531-28.4707L65.5338-28.4707L65.5338-30.6577L32.3531-30.6577ZM71.3976-10.0224L74.0411-10.0224C78.1842-10.0224 81.0778-12.5835 81.0778-16.2749L81.0778-54.2329C81.0778-58.0186 78.3761-60.625 74.4352-60.625L71.0343-60.625C67.0978-60.625 64.3756-58.0186 64.3756-54.2329L64.3756-16.2749C64.3756-12.5835 67.2828-10.0224 71.3976-10.0224ZM71.4952-12.2095C68.5792-12.2095 66.5592-13.8765 66.5592-16.2749L66.5592-54.2329C66.5592-56.6768 68.443-58.438 71.132-58.438L74.3375-58.438C77.0343-58.438 78.8907-56.6768 78.8907-54.2329L78.8907-16.2749C78.8907-13.8765 76.8878-12.2095 73.9435-12.2095ZM79.7716-17.6206L82.9108-17.6206C85.9782-17.6206 88.1213-19.8091 88.1213-22.7822L88.1213-47.7744C88.1213-50.8418 85.9782-53.0303 82.9108-53.0303L79.7716-53.0303L79.7716-50.8774L82.862-50.8774C84.6945-50.8774 85.9684-49.5093 85.9684-47.6768L85.9684-22.8799C85.9684-21.0928 84.6945-19.7734 82.862-19.7734L79.7716-19.7734Z"/>
  </g>
 </g>
</svg>
