<?xml version="1.0" encoding="UTF-8"?>
<!--Generator: Apple Native CoreSVG 336-->
<!DOCTYPE svg
PUBLIC "-//W3C//DTD SVG 1.1//EN"
       "http://www.w3.org/Graphics/SVG/1.1/DTD/svg11.dtd">
<svg version="1.1" xmlns="http://www.w3.org/2000/svg" xmlns:xlink="http://www.w3.org/1999/xlink" viewBox="0 0 3300 2200">
 <!--glyph: "101537", point size: 100.0, font version: "20.0d8e1", template writer version: "138.0.0"-->
 <style>.monochrome-0 {-sfsymbols-motion-group:0;-sfsymbols-layer-tags:figure.pickleball}

.multicolor-0:tintColor {-sfsymbols-motion-group:0;-sfsymbols-layer-tags:figure.pickleball}

.hierarchical-0:primary {-sfsymbols-motion-group:0;-sfsymbols-layer-tags:figure.pickleball}

.SFSymbolsPreviewWireframe {fill:none;opacity:1.0;stroke:black;stroke-width:0.5}
</style>
 <g id="Notes">
  <rect height="2200" id="artboard" style="fill:white;opacity:1" width="3300" x="0" y="0"/>
  <line style="fill:none;stroke:black;opacity:1;stroke-width:0.5;" x1="263" x2="3036" y1="292" y2="292"/>
  <text style="stroke:none;fill:black;font-family:sans-serif;font-size:13;font-weight:bold;" transform="matrix(1 0 0 1 263 322)">Weight/Scale Variations</text>
  <text style="stroke:none;fill:black;font-family:sans-serif;font-size:13;text-anchor:middle;" transform="matrix(1 0 0 1 559.711 322)">Ultralight</text>
  <text style="stroke:none;fill:black;font-family:sans-serif;font-size:13;text-anchor:middle;" transform="matrix(1 0 0 1 856.422 322)">Thin</text>
  <text style="stroke:none;fill:black;font-family:sans-serif;font-size:13;text-anchor:middle;" transform="matrix(1 0 0 1 1153.13 322)">Light</text>
  <text style="stroke:none;fill:black;font-family:sans-serif;font-size:13;text-anchor:middle;" transform="matrix(1 0 0 1 1449.84 322)">Regular</text>
  <text style="stroke:none;fill:black;font-family:sans-serif;font-size:13;text-anchor:middle;" transform="matrix(1 0 0 1 1746.56 322)">Medium</text>
  <text style="stroke:none;fill:black;font-family:sans-serif;font-size:13;text-anchor:middle;" transform="matrix(1 0 0 1 2043.27 322)">Semibold</text>
  <text style="stroke:none;fill:black;font-family:sans-serif;font-size:13;text-anchor:middle;" transform="matrix(1 0 0 1 2339.98 322)">Bold</text>
  <text style="stroke:none;fill:black;font-family:sans-serif;font-size:13;text-anchor:middle;" transform="matrix(1 0 0 1 2636.69 322)">Heavy</text>
  <text style="stroke:none;fill:black;font-family:sans-serif;font-size:13;text-anchor:middle;" transform="matrix(1 0 0 1 2933.4 322)">Black</text>
  <line style="fill:none;stroke:black;opacity:1;stroke-width:0.5;" x1="263" x2="3036" y1="1903" y2="1903"/>
  <g transform="matrix(0.2 0 0 0.2 263 1933)">
   <path d="m46.2402 4.15039c21.7773 0 39.4531-17.627 39.4531-39.4043s-17.6758-39.4043-39.4531-39.4043c-21.7285 0-39.4043 17.627-39.4043 39.4043s17.6758 39.4043 39.4043 39.4043Zm0-7.42188c-17.6758 0-31.9336-14.3066-31.9336-31.9824s14.2578-31.9824 31.9336-31.9824 31.9824 14.3066 31.9824 31.9824-14.3066 31.9824-31.9824 31.9824Zm-17.9688-31.9824c0 2.14844 1.51367 3.61328 3.75977 3.61328h10.498v10.5957c0 2.19727 1.46484 3.71094 3.61328 3.71094 2.24609 0 3.71094-1.51367 3.71094-3.71094v-10.5957h10.5957c2.19727 0 3.71094-1.46484 3.71094-3.61328 0-2.19727-1.51367-3.71094-3.71094-3.71094h-10.5957v-10.5469c0-2.24609-1.46484-3.75977-3.71094-3.75977-2.14844 0-3.61328 1.51367-3.61328 3.75977v10.5469h-10.498c-2.24609 0-3.75977 1.51367-3.75977 3.71094Z"/>
  </g>
  <g transform="matrix(0.2 0 0 0.2 281.506 1933)">
   <path d="m58.5449 14.5508c27.4902 0 49.8047-22.3145 49.8047-49.8047s-22.3145-49.8047-49.8047-49.8047-49.8047 22.3145-49.8047 49.8047 22.3145 49.8047 49.8047 49.8047Zm0-8.30078c-22.9492 0-41.5039-18.5547-41.5039-41.5039s18.5547-41.5039 41.5039-41.5039 41.5039 18.5547 41.5039 41.5039-18.5547 41.5039-41.5039 41.5039Zm-22.6562-41.5039c0 2.39258 1.66016 4.00391 4.15039 4.00391h14.3555v14.4043c0 2.44141 1.66016 4.15039 4.05273 4.15039 2.44141 0 4.15039-1.66016 4.15039-4.15039v-14.4043h14.4043c2.44141 0 4.15039-1.61133 4.15039-4.00391 0-2.44141-1.70898-4.15039-4.15039-4.15039h-14.4043v-14.3555c0-2.49023-1.70898-4.19922-4.15039-4.19922-2.39258 0-4.05273 1.70898-4.05273 4.19922v14.3555h-14.3555c-2.49023 0-4.15039 1.70898-4.15039 4.15039Z"/>
  </g>
  <g transform="matrix(0.2 0 0 0.2 304.924 1933)">
   <path d="m74.8535 28.3203c35.1074 0 63.623-28.4668 63.623-63.5742s-28.5156-63.623-63.623-63.623-63.5742 28.5156-63.5742 63.623 28.4668 63.5742 63.5742 63.5742Zm0-9.08203c-30.127 0-54.4922-24.3652-54.4922-54.4922s24.3652-54.4922 54.4922-54.4922 54.4922 24.3652 54.4922 54.4922-24.3652 54.4922-54.4922 54.4922Zm-28.8574-54.4922c0 2.58789 1.85547 4.39453 4.58984 4.39453h19.7266v19.7754c0 2.68555 1.85547 4.58984 4.44336 4.58984 2.68555 0 4.54102-1.85547 4.54102-4.58984v-19.7754h19.7754c2.68555 0 4.58984-1.80664 4.58984-4.39453 0-2.73438-1.85547-4.58984-4.58984-4.58984h-19.7754v-19.7266c0-2.73438-1.85547-4.63867-4.54102-4.63867-2.58789 0-4.44336 1.9043-4.44336 4.63867v19.7266h-19.7266c-2.73438 0-4.58984 1.85547-4.58984 4.58984Z"/>
  </g>
  <text style="stroke:none;fill:black;font-family:sans-serif;font-size:13;font-weight:bold;" transform="matrix(1 0 0 1 263 1953)">Design Variations</text>
  <text style="stroke:none;fill:black;font-family:sans-serif;font-size:13;" transform="matrix(1 0 0 1 263 1971)">Symbols are supported in up to nine weights and three scales.</text>
  <text style="stroke:none;fill:black;font-family:sans-serif;font-size:13;" transform="matrix(1 0 0 1 263 1989)">For optimal layout with text and other symbols, vertically align</text>
  <text style="stroke:none;fill:black;font-family:sans-serif;font-size:13;" transform="matrix(1 0 0 1 263 2007)">symbols with the adjacent text.</text>
  <line style="fill:none;stroke:#00AEEF;stroke-width:0.5;opacity:1.0;" x1="776" x2="776" y1="1919" y2="1933"/>
  <g transform="matrix(0.2 0 0 0.2 776 1933)">
   <path d="m16.5527 0.78125c2.58789 0 3.85742-0.976562 4.78516-3.71094l6.29883-17.2363h28.8086l6.29883 17.2363c0.927734 2.73438 2.19727 3.71094 4.73633 3.71094 2.58789 0 4.24805-1.5625 4.24805-4.00391 0-0.830078-0.146484-1.61133-0.537109-2.63672l-22.9004-60.9863c-1.12305-2.97852-3.125-4.49219-6.25-4.49219-3.02734 0-5.07812 1.46484-6.15234 4.44336l-22.9004 61.084c-0.390625 1.02539-0.537109 1.80664-0.537109 2.63672 0 2.44141 1.5625 3.95508 4.10156 3.95508Zm13.4766-28.3691 11.8652-32.8613h0.244141l11.8652 32.8613Z"/>
  </g>
  <line style="fill:none;stroke:#00AEEF;stroke-width:0.5;opacity:1.0;" x1="792.836" x2="792.836" y1="1919" y2="1933"/>
  <text style="stroke:none;fill:black;font-family:sans-serif;font-size:13;font-weight:bold;" transform="matrix(1 0 0 1 776 1953)">Margins</text>
  <text style="stroke:none;fill:black;font-family:sans-serif;font-size:13;" transform="matrix(1 0 0 1 776 1971)">Leading and trailing margins on the left and right side of each symbol</text>
  <text style="stroke:none;fill:black;font-family:sans-serif;font-size:13;" transform="matrix(1 0 0 1 776 1989)">can be adjusted by modifying the x-location of the margin guidelines.</text>
  <text style="stroke:none;fill:black;font-family:sans-serif;font-size:13;" transform="matrix(1 0 0 1 776 2007)">Modifications are automatically applied proportionally to all</text>
  <text style="stroke:none;fill:black;font-family:sans-serif;font-size:13;" transform="matrix(1 0 0 1 776 2025)">scales and weights.</text>
  <g transform="matrix(0.2 0 0 0.2 1289 1933)">
   <path d="m14.209 9.32617 8.49609 8.54492c4.29688 4.3457 9.22852 4.05273 13.8672-1.07422l53.4668-58.9355-4.83398-4.88281-53.0762 58.3984c-1.75781 2.00195-3.41797 2.49023-5.76172 0.146484l-5.85938-5.81055c-2.34375-2.29492-1.80664-4.00391 0.195312-5.81055l57.373-54.0039-4.88281-4.83398-57.959 54.4434c-4.93164 4.58984-5.32227 9.47266-1.02539 13.8184Zm32.0801-90.9668c-2.09961 2.05078-2.24609 4.93164-1.07422 6.88477 1.17188 1.80664 3.4668 2.97852 6.68945 2.14844 7.32422-1.70898 14.9414-2.00195 22.0703 2.68555l-2.92969 7.27539c-1.70898 4.15039-0.830078 7.08008 1.85547 9.81445l11.4746 11.5723c2.44141 2.44141 4.49219 2.53906 7.32422 2.05078l5.32227-0.976562 3.32031 3.36914-0.195312 2.7832c-0.195312 2.49023 0.439453 4.39453 2.88086 6.78711l3.80859 3.71094c2.39258 2.39258 5.46875 2.53906 7.8125 0.195312l14.5508-14.5996c2.34375-2.34375 2.24609-5.32227-0.146484-7.71484l-3.85742-3.80859c-2.39258-2.39258-4.24805-3.17383-6.64062-2.97852l-2.88086 0.244141-3.22266-3.17383 1.2207-5.61523c0.634766-2.83203-0.146484-5.0293-3.07617-7.95898l-10.9863-10.9375c-16.6992-16.6016-38.8672-16.2109-53.3203-1.75781Zm7.4707 1.85547c12.1582-8.88672 28.6133-7.37305 39.7461 3.75977l12.1582 12.0605c1.17188 1.17188 1.36719 2.09961 1.02539 3.80859l-1.61133 7.42188 7.51953 7.42188 4.93164-0.292969c1.26953-0.0488281 1.66016 0.0488281 2.63672 1.02539l2.88086 2.88086-12.207 12.207-2.88086-2.88086c-0.976562-0.976562-1.12305-1.36719-1.07422-2.68555l0.341797-4.88281-7.4707-7.42188-7.61719 1.26953c-1.61133 0.341797-2.34375 0.195312-3.56445-0.976562l-10.0098-10.0098c-1.26953-1.17188-1.41602-2.00195-0.634766-3.85742l4.39453-10.4492c-7.8125-7.27539-17.9688-10.4004-28.125-7.42188-0.78125 0.195312-1.07422-0.439453-0.439453-0.976562Z"/>
  </g>
  <text style="stroke:none;fill:black;font-family:sans-serif;font-size:13;font-weight:bold;" transform="matrix(1 0 0 1 1289 1953)">Exporting</text>
  <text style="stroke:none;fill:black;font-family:sans-serif;font-size:13;" transform="matrix(1 0 0 1 1289 1971)">Symbols should be outlined when exporting to ensure the</text>
  <text style="stroke:none;fill:black;font-family:sans-serif;font-size:13;" transform="matrix(1 0 0 1 1289 1989)">design is preserved when submitting to Xcode.</text>
  <text id="template-version" style="stroke:none;fill:black;font-family:sans-serif;font-size:13;text-anchor:end;" transform="matrix(1 0 0 1 3036 1933)">Template v.6.0</text>
  <text style="stroke:none;fill:black;font-family:sans-serif;font-size:13;text-anchor:end;" transform="matrix(1 0 0 1 3036 1951)">Requires Xcode 16 or greater</text>
  <text id="descriptive-name" style="stroke:none;fill:black;font-family:sans-serif;font-size:13;text-anchor:end;" transform="matrix(1 0 0 1 3036 1969)">Generated from figure.pickleball</text>
  <text style="stroke:none;fill:black;font-family:sans-serif;font-size:13;text-anchor:end;" transform="matrix(1 0 0 1 3036 1987)">Typeset at 100.0 points</text>
  <text style="stroke:none;fill:black;font-family:sans-serif;font-size:13;" transform="matrix(1 0 0 1 263 726)">Small</text>
  <text style="stroke:none;fill:black;font-family:sans-serif;font-size:13;" transform="matrix(1 0 0 1 263 1156)">Medium</text>
  <text style="stroke:none;fill:black;font-family:sans-serif;font-size:13;" transform="matrix(1 0 0 1 263 1586)">Large</text>
 </g>
 <g id="Guides">
  <g id="H-reference" style="fill:#27AAE1;stroke:none;" transform="matrix(1 0 0 1 339 696)">
   <path d="M0.993654 0L3.63775 0L29.3281-67.1323L30.0303-67.1323L30.0303-70.459L28.1226-70.459ZM11.6885-24.4799L46.9815-24.4799L46.2315-26.7285L12.4385-26.7285ZM55.1196 0L57.7637 0L30.6382-70.459L29.4326-70.459L29.4326-67.1323Z"/>
  </g>
  <line id="Baseline-S" style="fill:none;stroke:#27AAE1;opacity:1;stroke-width:0.5;" x1="263" x2="3036" y1="696" y2="696"/>
  <line id="Capline-S" style="fill:none;stroke:#27AAE1;opacity:1;stroke-width:0.5;" x1="263" x2="3036" y1="625.541" y2="625.541"/>
  <g id="H-reference" style="fill:#27AAE1;stroke:none;" transform="matrix(1 0 0 1 339 1126)">
   <path d="M0.993654 0L3.63775 0L29.3281-67.1323L30.0303-67.1323L30.0303-70.459L28.1226-70.459ZM11.6885-24.4799L46.9815-24.4799L46.2315-26.7285L12.4385-26.7285ZM55.1196 0L57.7637 0L30.6382-70.459L29.4326-70.459L29.4326-67.1323Z"/>
  </g>
  <line id="Baseline-M" style="fill:none;stroke:#27AAE1;opacity:1;stroke-width:0.5;" x1="263" x2="3036" y1="1126" y2="1126"/>
  <line id="Capline-M" style="fill:none;stroke:#27AAE1;opacity:1;stroke-width:0.5;" x1="263" x2="3036" y1="1055.54" y2="1055.54"/>
  <g id="H-reference" style="fill:#27AAE1;stroke:none;" transform="matrix(1 0 0 1 339 1556)">
   <path d="M0.993654 0L3.63775 0L29.3281-67.1323L30.0303-67.1323L30.0303-70.459L28.1226-70.459ZM11.6885-24.4799L46.9815-24.4799L46.2315-26.7285L12.4385-26.7285ZM55.1196 0L57.7637 0L30.6382-70.459L29.4326-70.459L29.4326-67.1323Z"/>
  </g>
  <line id="Baseline-L" style="fill:none;stroke:#27AAE1;opacity:1;stroke-width:0.5;" x1="263" x2="3036" y1="1556" y2="1556"/>
  <line id="Capline-L" style="fill:none;stroke:#27AAE1;opacity:1;stroke-width:0.5;" x1="263" x2="3036" y1="1485.54" y2="1485.54"/>
  <line id="right-margin-Black-S" style="fill:none;stroke:#00AEEF;stroke-width:0.5;opacity:1.0;" x1="2983.57" x2="2983.57" y1="600.785" y2="720.121"/>
  <line id="left-margin-Black-S" style="fill:none;stroke:#00AEEF;stroke-width:0.5;opacity:1.0;" x1="2883.23" x2="2883.23" y1="600.785" y2="720.121"/>
  <line id="right-margin-Regular-S" style="fill:none;stroke:#00AEEF;stroke-width:0.5;opacity:1.0;" x1="1497.33" x2="1497.33" y1="600.785" y2="720.121"/>
  <line id="left-margin-Regular-S" style="fill:none;stroke:#00AEEF;stroke-width:0.5;opacity:1.0;" x1="1402.36" x2="1402.36" y1="600.785" y2="720.121"/>
  <line id="right-margin-Ultralight-S" style="fill:none;stroke:#00AEEF;stroke-width:0.5;opacity:1.0;" x1="603.768" x2="603.768" y1="600.785" y2="720.121"/>
  <line id="left-margin-Ultralight-S" style="fill:none;stroke:#00AEEF;stroke-width:0.5;opacity:1.0;" x1="515.654" x2="515.654" y1="600.785" y2="720.121"/>
 </g>
 <g id="Symbols">
  <g id="Black-S" transform="matrix(1 0 0 1 2883.23 696)">
   <path class="monochrome-0 multicolor-0:tintColor hierarchical-0:primary SFSymbolsPreviewWireframe" d="M50.1953-62.5C55.5664-62.5 59.9609-66.8945 59.9609-72.2656C59.9609-77.6367 55.5664-82.0312 50.1953-82.0312C44.8242-82.0312 40.4297-77.6367 40.4297-72.2656C40.4297-66.8945 44.8242-62.5 50.1953-62.5ZM84.7656-54.9316C82.666-57.0312 79.541-56.9336 77.4902-54.9316L68.2617-45.8008L58.9844-55.0781C56.8359-57.2266 53.5156-58.5938 50.1953-58.5938L23.4863-58.5938C21.2891-58.5938 19.3359-57.2754 18.6035-55.0293L12.207-35.8398C10.9863-32.2266 13.1348-29.7363 15.6738-29.1016C18.0176-28.5156 20.8496-29.4922 21.9238-32.666L27.1484-48.291L34.3262-48.291C35.0586-48.291 35.4004-47.7539 35.1562-47.0215L30.0781-31.7383C28.1738-26.0742 29.9316-20.459 36.377-17.627L53.3203-10.1562L59.082 9.86328C60.0098 13.0859 62.9395 14.0137 65.332 13.3789C67.7246 12.7441 69.9219 10.4004 68.9453 7.03125L62.5-15.4297C62.1094-16.7969 61.3281-17.9199 59.668-18.6523L46.9727-24.2676L53.5645-44.1895C53.8086-44.9707 54.4922-45.0684 55.127-44.4336L64.5996-34.8633C66.6016-32.8613 69.873-32.8125 71.9238-34.8633L84.7656-47.7051C86.8164-49.7559 86.8164-52.8809 84.7656-54.9316ZM31.1523-14.9902L29.4434-5.51758L12.4023 3.95508C9.32617 5.66406 9.22852 8.93555 10.5469 11.1328C11.8164 13.1836 14.5508 14.5508 17.4805 12.9395L36.7188 2.29492C38.1836 1.46484 38.7207 0.390625 39.1602-0.976562L42.041-9.76562L34.4238-13.1348C33.2031-13.6719 32.1289-14.3066 31.1523-14.9902ZM87.6953-62.4023C89.5508-63.3301 90.5762-65.1367 90.5762-67.0898L90.5762-79.3945C90.5762-82.2266 88.3301-84.668 85.4004-84.668L76.8066-84.668C73.9258-84.668 71.6309-82.2754 71.6309-79.3945L71.6309-67.0898C71.6309-65.1367 72.6562-63.3301 74.5117-62.4023L81.1035-59.082ZM77.1973-51.8555L85.0098-51.8555L85.0098-65.4785L77.1973-65.4785Z"/>
  </g>
  <g id="Regular-S" transform="matrix(1 0 0 1 1402.36 696)">
   <path class="monochrome-0 multicolor-0:tintColor hierarchical-0:primary SFSymbolsPreviewWireframe" d="M47.5098-61.377C52.2461-61.377 56.0059-65.1855 56.0059-69.873C56.0059-74.6094 52.2461-78.3691 47.5098-78.3691C42.8223-78.3691 39.0137-74.6094 39.0137-69.873C39.0137-65.1855 42.8223-61.377 47.5098-61.377ZM79.9316-54.248C78.3203-55.8594 75.8789-55.8105 74.2676-54.248L64.7949-44.8242L55.2734-54.3945C53.4668-56.2988 50.4883-57.4707 47.5098-57.4707L21.9727-57.4707C20.2148-57.4707 18.75-56.4453 18.1641-54.6875L12.0605-36.3281C11.1328-33.4961 12.7441-31.543 14.7461-31.0547C16.6016-30.5664 18.75-31.3477 19.5801-33.8379L24.8535-49.4629L33.3008-49.4629C34.082-49.4629 34.6191-48.8281 34.375-48.0469L29.1504-32.4219C27.4902-27.3926 29.0039-22.5098 34.7168-20.0684L51.3184-12.7441L56.8848 6.83594C57.6172 9.32617 59.8633 10.0586 61.7676 9.57031C63.7207 9.0332 65.2832 7.22656 64.5508 4.6875L58.3984-16.7969C58.0566-17.9688 57.5195-18.75 56.2012-19.3359L43.2617-25.0488L50.1465-45.8008C50.4395-46.6797 51.4648-46.9727 52.1484-46.2891L61.9629-36.3281C63.5254-34.7656 66.0645-34.7656 67.627-36.3281L79.9316-48.6328C81.543-50.1953 81.543-52.6367 79.9316-54.248ZM30.4688-18.0176L28.5156-7.03125L11.8164 2.29492C9.42383 3.61328 9.32617 6.10352 10.4004 7.8125C11.4258 9.47266 13.5254 10.498 15.7715 9.22852L34.1797-0.976562C35.3027-1.61133 35.6934-2.34375 36.084-3.51562L39.4531-13.7695L33.1543-16.5527C32.1777-16.9922 31.2988-17.4805 30.4688-18.0176ZM83.0078-61.4746C84.375-62.207 85.2051-63.5742 85.2051-65.0879L85.2051-76.9531C85.2051-79.1504 83.4961-81.0059 81.25-81.0059L72.9492-81.0059C70.7031-81.0059 68.9453-79.1504 68.9453-76.9531L68.9453-65.0879C68.9453-63.5742 69.7754-62.207 71.1426-61.4746L77.0996-58.4473ZM74.7559-51.4648L79.4922-51.4648L79.4922-62.6465L74.7559-62.6465Z"/>
  </g>
  <g id="Ultralight-S" transform="matrix(1 0 0 1 515.654 696)">
   <path class="monochrome-0 multicolor-0:tintColor hierarchical-0:primary SFSymbolsPreviewWireframe" d="M44.104-59.7876C48.3409-59.7876 51.8282-63.2783 51.8282-67.5571C51.8282-71.794 48.3409-75.2813 44.104-75.2813C39.8252-75.2813 36.3345-71.794 36.3345-67.5571C36.3345-63.2783 39.8252-59.7876 44.104-59.7876ZM73.5743-52.5225C72.1446-53.9522 69.8848-53.9487 68.4551-52.5225L59.7998-43.9614L51.1866-52.6235C49.5161-54.3462 46.8101-55.4273 44.104-55.4273L20.8828-55.4273C19.2612-55.4273 17.9326-54.4927 17.3921-52.9165L11.8789-36.2373C10.9966-33.6323 12.5171-31.8608 14.292-31.418C15.9658-30.9751 17.8872-31.7109 18.6719-33.9741L23.4912-48.146L31.1665-48.146C31.9024-48.146 32.3941-47.5567 32.1499-46.8208L27.4248-32.6943C25.9009-28.0737 27.2783-23.6904 32.4463-21.4307L47.5493-14.7876L52.6617 3.06692C53.3033 5.2847 55.3677 5.97171 57.045 5.52884C58.8164 5.03714 60.2881 3.41214 59.6011 1.05472L54.0391-18.477C53.7427-19.5127 53.2056-20.2485 52.0235-20.7891L40.2193-25.957L46.5137-44.8472C46.7613-45.5899 47.6958-45.8828 48.2886-45.29L57.1949-36.2373C58.6211-34.811 60.9786-34.811 62.4048-36.2373L73.5743-47.3613C75.0494-48.833 75.0494-51.0474 73.5743-52.5225ZM28.6978-20.1064L26.8355-9.5742L11.6348-1.11081C9.46924 0.071317 9.41699 2.3345 10.355 3.95267C11.2896 5.43118 13.2075 6.36576 15.1812 5.23245L31.9546-4.01902C32.9868-4.60837 33.3775-5.29539 33.7227-6.37644L37.001-16.1763L31.2471-18.687C30.3159-19.081 29.437-19.6147 28.6978-20.1064ZM76.7413-59.2949C77.6998-59.8003 78.3482-60.668 78.3482-61.4551L78.3482-74.0469C78.3482-75.6538 77.275-76.8736 75.6646-76.8736L66.3648-76.8736C64.7544-76.8736 63.587-75.6538 63.587-74.0469L63.587-61.4551C63.587-60.668 64.2808-59.8003 65.2393-59.2949L71.0147-56.3584ZM69.9424-49.9663L72.045-49.9663L72.045-60.1489L69.9424-60.1489Z"/>
  </g>
 </g>
</svg>
