<?xml version="1.0" encoding="UTF-8"?>
<!--Generator: Apple Native CoreSVG 336-->
<!DOCTYPE svg
PUBLIC "-//W3C//DTD SVG 1.1//EN"
       "http://www.w3.org/Graphics/SVG/1.1/DTD/svg11.dtd">
<svg version="1.1" xmlns="http://www.w3.org/2000/svg" xmlns:xlink="http://www.w3.org/1999/xlink" viewBox="0 0 3300 2200">
 <!--glyph: "10130A", point size: 100.0, font version: "20.0d8e1", template writer version: "138.0.0"-->
 <style>.monochrome-0 {-sfsymbols-motion-group:0;-sfsymbols-layer-tags:figure.indoor.cycle}

.multicolor-0:tintColor {-sfsymbols-motion-group:0;-sfsymbols-layer-tags:figure.indoor.cycle}

.hierarchical-0:primary {-sfsymbols-motion-group:0;-sfsymbols-layer-tags:figure.indoor.cycle}

.SFSymbolsPreviewWireframe {fill:none;opacity:1.0;stroke:black;stroke-width:0.5}
</style>
 <g id="Notes">
  <rect height="2200" id="artboard" style="fill:white;opacity:1" width="3300" x="0" y="0"/>
  <line style="fill:none;stroke:black;opacity:1;stroke-width:0.5;" x1="263" x2="3036" y1="292" y2="292"/>
  <text style="stroke:none;fill:black;font-family:sans-serif;font-size:13;font-weight:bold;" transform="matrix(1 0 0 1 263 322)">Weight/Scale Variations</text>
  <text style="stroke:none;fill:black;font-family:sans-serif;font-size:13;text-anchor:middle;" transform="matrix(1 0 0 1 559.711 322)">Ultralight</text>
  <text style="stroke:none;fill:black;font-family:sans-serif;font-size:13;text-anchor:middle;" transform="matrix(1 0 0 1 856.422 322)">Thin</text>
  <text style="stroke:none;fill:black;font-family:sans-serif;font-size:13;text-anchor:middle;" transform="matrix(1 0 0 1 1153.13 322)">Light</text>
  <text style="stroke:none;fill:black;font-family:sans-serif;font-size:13;text-anchor:middle;" transform="matrix(1 0 0 1 1449.84 322)">Regular</text>
  <text style="stroke:none;fill:black;font-family:sans-serif;font-size:13;text-anchor:middle;" transform="matrix(1 0 0 1 1746.56 322)">Medium</text>
  <text style="stroke:none;fill:black;font-family:sans-serif;font-size:13;text-anchor:middle;" transform="matrix(1 0 0 1 2043.27 322)">Semibold</text>
  <text style="stroke:none;fill:black;font-family:sans-serif;font-size:13;text-anchor:middle;" transform="matrix(1 0 0 1 2339.98 322)">Bold</text>
  <text style="stroke:none;fill:black;font-family:sans-serif;font-size:13;text-anchor:middle;" transform="matrix(1 0 0 1 2636.69 322)">Heavy</text>
  <text style="stroke:none;fill:black;font-family:sans-serif;font-size:13;text-anchor:middle;" transform="matrix(1 0 0 1 2933.4 322)">Black</text>
  <line style="fill:none;stroke:black;opacity:1;stroke-width:0.5;" x1="263" x2="3036" y1="1903" y2="1903"/>
  <g transform="matrix(0.2 0 0 0.2 263 1933)">
   <path d="m46.2402 4.15039c21.7773 0 39.4531-17.627 39.4531-39.4043s-17.6758-39.4043-39.4531-39.4043c-21.7285 0-39.4043 17.627-39.4043 39.4043s17.6758 39.4043 39.4043 39.4043Zm0-7.42188c-17.6758 0-31.9336-14.3066-31.9336-31.9824s14.2578-31.9824 31.9336-31.9824 31.9824 14.3066 31.9824 31.9824-14.3066 31.9824-31.9824 31.9824Zm-17.9688-31.9824c0 2.14844 1.51367 3.61328 3.75977 3.61328h10.498v10.5957c0 2.19727 1.46484 3.71094 3.61328 3.71094 2.24609 0 3.71094-1.51367 3.71094-3.71094v-10.5957h10.5957c2.19727 0 3.71094-1.46484 3.71094-3.61328 0-2.19727-1.51367-3.71094-3.71094-3.71094h-10.5957v-10.5469c0-2.24609-1.46484-3.75977-3.71094-3.75977-2.14844 0-3.61328 1.51367-3.61328 3.75977v10.5469h-10.498c-2.24609 0-3.75977 1.51367-3.75977 3.71094Z"/>
  </g>
  <g transform="matrix(0.2 0 0 0.2 281.506 1933)">
   <path d="m58.5449 14.5508c27.4902 0 49.8047-22.3145 49.8047-49.8047s-22.3145-49.8047-49.8047-49.8047-49.8047 22.3145-49.8047 49.8047 22.3145 49.8047 49.8047 49.8047Zm0-8.30078c-22.9492 0-41.5039-18.5547-41.5039-41.5039s18.5547-41.5039 41.5039-41.5039 41.5039 18.5547 41.5039 41.5039-18.5547 41.5039-41.5039 41.5039Zm-22.6562-41.5039c0 2.39258 1.66016 4.00391 4.15039 4.00391h14.3555v14.4043c0 2.44141 1.66016 4.15039 4.05273 4.15039 2.44141 0 4.15039-1.66016 4.15039-4.15039v-14.4043h14.4043c2.44141 0 4.15039-1.61133 4.15039-4.00391 0-2.44141-1.70898-4.15039-4.15039-4.15039h-14.4043v-14.3555c0-2.49023-1.70898-4.19922-4.15039-4.19922-2.39258 0-4.05273 1.70898-4.05273 4.19922v14.3555h-14.3555c-2.49023 0-4.15039 1.70898-4.15039 4.15039Z"/>
  </g>
  <g transform="matrix(0.2 0 0 0.2 304.924 1933)">
   <path d="m74.8535 28.3203c35.1074 0 63.623-28.4668 63.623-63.5742s-28.5156-63.623-63.623-63.623-63.5742 28.5156-63.5742 63.623 28.4668 63.5742 63.5742 63.5742Zm0-9.08203c-30.127 0-54.4922-24.3652-54.4922-54.4922s24.3652-54.4922 54.4922-54.4922 54.4922 24.3652 54.4922 54.4922-24.3652 54.4922-54.4922 54.4922Zm-28.8574-54.4922c0 2.58789 1.85547 4.39453 4.58984 4.39453h19.7266v19.7754c0 2.68555 1.85547 4.58984 4.44336 4.58984 2.68555 0 4.54102-1.85547 4.54102-4.58984v-19.7754h19.7754c2.68555 0 4.58984-1.80664 4.58984-4.39453 0-2.73438-1.85547-4.58984-4.58984-4.58984h-19.7754v-19.7266c0-2.73438-1.85547-4.63867-4.54102-4.63867-2.58789 0-4.44336 1.9043-4.44336 4.63867v19.7266h-19.7266c-2.73438 0-4.58984 1.85547-4.58984 4.58984Z"/>
  </g>
  <text style="stroke:none;fill:black;font-family:sans-serif;font-size:13;font-weight:bold;" transform="matrix(1 0 0 1 263 1953)">Design Variations</text>
  <text style="stroke:none;fill:black;font-family:sans-serif;font-size:13;" transform="matrix(1 0 0 1 263 1971)">Symbols are supported in up to nine weights and three scales.</text>
  <text style="stroke:none;fill:black;font-family:sans-serif;font-size:13;" transform="matrix(1 0 0 1 263 1989)">For optimal layout with text and other symbols, vertically align</text>
  <text style="stroke:none;fill:black;font-family:sans-serif;font-size:13;" transform="matrix(1 0 0 1 263 2007)">symbols with the adjacent text.</text>
  <line style="fill:none;stroke:#00AEEF;stroke-width:0.5;opacity:1.0;" x1="776" x2="776" y1="1919" y2="1933"/>
  <g transform="matrix(0.2 0 0 0.2 776 1933)">
   <path d="m16.5527 0.78125c2.58789 0 3.85742-0.976562 4.78516-3.71094l6.29883-17.2363h28.8086l6.29883 17.2363c0.927734 2.73438 2.19727 3.71094 4.73633 3.71094 2.58789 0 4.24805-1.5625 4.24805-4.00391 0-0.830078-0.146484-1.61133-0.537109-2.63672l-22.9004-60.9863c-1.12305-2.97852-3.125-4.49219-6.25-4.49219-3.02734 0-5.07812 1.46484-6.15234 4.44336l-22.9004 61.084c-0.390625 1.02539-0.537109 1.80664-0.537109 2.63672 0 2.44141 1.5625 3.95508 4.10156 3.95508Zm13.4766-28.3691 11.8652-32.8613h0.244141l11.8652 32.8613Z"/>
  </g>
  <line style="fill:none;stroke:#00AEEF;stroke-width:0.5;opacity:1.0;" x1="792.836" x2="792.836" y1="1919" y2="1933"/>
  <text style="stroke:none;fill:black;font-family:sans-serif;font-size:13;font-weight:bold;" transform="matrix(1 0 0 1 776 1953)">Margins</text>
  <text style="stroke:none;fill:black;font-family:sans-serif;font-size:13;" transform="matrix(1 0 0 1 776 1971)">Leading and trailing margins on the left and right side of each symbol</text>
  <text style="stroke:none;fill:black;font-family:sans-serif;font-size:13;" transform="matrix(1 0 0 1 776 1989)">can be adjusted by modifying the x-location of the margin guidelines.</text>
  <text style="stroke:none;fill:black;font-family:sans-serif;font-size:13;" transform="matrix(1 0 0 1 776 2007)">Modifications are automatically applied proportionally to all</text>
  <text style="stroke:none;fill:black;font-family:sans-serif;font-size:13;" transform="matrix(1 0 0 1 776 2025)">scales and weights.</text>
  <g transform="matrix(0.2 0 0 0.2 1289 1933)">
   <path d="m14.209 9.32617 8.49609 8.54492c4.29688 4.3457 9.22852 4.05273 13.8672-1.07422l53.4668-58.9355-4.83398-4.88281-53.0762 58.3984c-1.75781 2.00195-3.41797 2.49023-5.76172 0.146484l-5.85938-5.81055c-2.34375-2.29492-1.80664-4.00391 0.195312-5.81055l57.373-54.0039-4.88281-4.83398-57.959 54.4434c-4.93164 4.58984-5.32227 9.47266-1.02539 13.8184Zm32.0801-90.9668c-2.09961 2.05078-2.24609 4.93164-1.07422 6.88477 1.17188 1.80664 3.4668 2.97852 6.68945 2.14844 7.32422-1.70898 14.9414-2.00195 22.0703 2.68555l-2.92969 7.27539c-1.70898 4.15039-0.830078 7.08008 1.85547 9.81445l11.4746 11.5723c2.44141 2.44141 4.49219 2.53906 7.32422 2.05078l5.32227-0.976562 3.32031 3.36914-0.195312 2.7832c-0.195312 2.49023 0.439453 4.39453 2.88086 6.78711l3.80859 3.71094c2.39258 2.39258 5.46875 2.53906 7.8125 0.195312l14.5508-14.5996c2.34375-2.34375 2.24609-5.32227-0.146484-7.71484l-3.85742-3.80859c-2.39258-2.39258-4.24805-3.17383-6.64062-2.97852l-2.88086 0.244141-3.22266-3.17383 1.2207-5.61523c0.634766-2.83203-0.146484-5.0293-3.07617-7.95898l-10.9863-10.9375c-16.6992-16.6016-38.8672-16.2109-53.3203-1.75781Zm7.4707 1.85547c12.1582-8.88672 28.6133-7.37305 39.7461 3.75977l12.1582 12.0605c1.17188 1.17188 1.36719 2.09961 1.02539 3.80859l-1.61133 7.42188 7.51953 7.42188 4.93164-0.292969c1.26953-0.0488281 1.66016 0.0488281 2.63672 1.02539l2.88086 2.88086-12.207 12.207-2.88086-2.88086c-0.976562-0.976562-1.12305-1.36719-1.07422-2.68555l0.341797-4.88281-7.4707-7.42188-7.61719 1.26953c-1.61133 0.341797-2.34375 0.195312-3.56445-0.976562l-10.0098-10.0098c-1.26953-1.17188-1.41602-2.00195-0.634766-3.85742l4.39453-10.4492c-7.8125-7.27539-17.9688-10.4004-28.125-7.42188-0.78125 0.195312-1.07422-0.439453-0.439453-0.976562Z"/>
  </g>
  <text style="stroke:none;fill:black;font-family:sans-serif;font-size:13;font-weight:bold;" transform="matrix(1 0 0 1 1289 1953)">Exporting</text>
  <text style="stroke:none;fill:black;font-family:sans-serif;font-size:13;" transform="matrix(1 0 0 1 1289 1971)">Symbols should be outlined when exporting to ensure the</text>
  <text style="stroke:none;fill:black;font-family:sans-serif;font-size:13;" transform="matrix(1 0 0 1 1289 1989)">design is preserved when submitting to Xcode.</text>
  <text id="template-version" style="stroke:none;fill:black;font-family:sans-serif;font-size:13;text-anchor:end;" transform="matrix(1 0 0 1 3036 1933)">Template v.6.0</text>
  <text style="stroke:none;fill:black;font-family:sans-serif;font-size:13;text-anchor:end;" transform="matrix(1 0 0 1 3036 1951)">Requires Xcode 16 or greater</text>
  <text id="descriptive-name" style="stroke:none;fill:black;font-family:sans-serif;font-size:13;text-anchor:end;" transform="matrix(1 0 0 1 3036 1969)">Generated from figure.indoor.cycle</text>
  <text style="stroke:none;fill:black;font-family:sans-serif;font-size:13;text-anchor:end;" transform="matrix(1 0 0 1 3036 1987)">Typeset at 100.0 points</text>
  <text style="stroke:none;fill:black;font-family:sans-serif;font-size:13;" transform="matrix(1 0 0 1 263 726)">Small</text>
  <text style="stroke:none;fill:black;font-family:sans-serif;font-size:13;" transform="matrix(1 0 0 1 263 1156)">Medium</text>
  <text style="stroke:none;fill:black;font-family:sans-serif;font-size:13;" transform="matrix(1 0 0 1 263 1586)">Large</text>
 </g>
 <g id="Guides">
  <g id="H-reference" style="fill:#27AAE1;stroke:none;" transform="matrix(1 0 0 1 339 696)">
   <path d="M0.993654 0L3.63775 0L29.3281-67.1323L30.0303-67.1323L30.0303-70.459L28.1226-70.459ZM11.6885-24.4799L46.9815-24.4799L46.2315-26.7285L12.4385-26.7285ZM55.1196 0L57.7637 0L30.6382-70.459L29.4326-70.459L29.4326-67.1323Z"/>
  </g>
  <line id="Baseline-S" style="fill:none;stroke:#27AAE1;opacity:1;stroke-width:0.5;" x1="263" x2="3036" y1="696" y2="696"/>
  <line id="Capline-S" style="fill:none;stroke:#27AAE1;opacity:1;stroke-width:0.5;" x1="263" x2="3036" y1="625.541" y2="625.541"/>
  <g id="H-reference" style="fill:#27AAE1;stroke:none;" transform="matrix(1 0 0 1 339 1126)">
   <path d="M0.993654 0L3.63775 0L29.3281-67.1323L30.0303-67.1323L30.0303-70.459L28.1226-70.459ZM11.6885-24.4799L46.9815-24.4799L46.2315-26.7285L12.4385-26.7285ZM55.1196 0L57.7637 0L30.6382-70.459L29.4326-70.459L29.4326-67.1323Z"/>
  </g>
  <line id="Baseline-M" style="fill:none;stroke:#27AAE1;opacity:1;stroke-width:0.5;" x1="263" x2="3036" y1="1126" y2="1126"/>
  <line id="Capline-M" style="fill:none;stroke:#27AAE1;opacity:1;stroke-width:0.5;" x1="263" x2="3036" y1="1055.54" y2="1055.54"/>
  <g id="H-reference" style="fill:#27AAE1;stroke:none;" transform="matrix(1 0 0 1 339 1556)">
   <path d="M0.993654 0L3.63775 0L29.3281-67.1323L30.0303-67.1323L30.0303-70.459L28.1226-70.459ZM11.6885-24.4799L46.9815-24.4799L46.2315-26.7285L12.4385-26.7285ZM55.1196 0L57.7637 0L30.6382-70.459L29.4326-70.459L29.4326-67.1323Z"/>
  </g>
  <line id="Baseline-L" style="fill:none;stroke:#27AAE1;opacity:1;stroke-width:0.5;" x1="263" x2="3036" y1="1556" y2="1556"/>
  <line id="Capline-L" style="fill:none;stroke:#27AAE1;opacity:1;stroke-width:0.5;" x1="263" x2="3036" y1="1485.54" y2="1485.54"/>
  <line id="right-margin-Black-S" style="fill:none;stroke:#00AEEF;stroke-width:0.5;opacity:1.0;" x1="2975.95" x2="2975.95" y1="600.785" y2="720.121"/>
  <line id="left-margin-Black-S" style="fill:none;stroke:#00AEEF;stroke-width:0.5;opacity:1.0;" x1="2890.85" x2="2890.85" y1="600.785" y2="720.121"/>
  <line id="right-margin-Regular-S" style="fill:none;stroke:#00AEEF;stroke-width:0.5;opacity:1.0;" x1="1490.32" x2="1490.32" y1="600.785" y2="720.121"/>
  <line id="left-margin-Regular-S" style="fill:none;stroke:#00AEEF;stroke-width:0.5;opacity:1.0;" x1="1409.37" x2="1409.37" y1="600.785" y2="720.121"/>
  <line id="right-margin-Ultralight-S" style="fill:none;stroke:#00AEEF;stroke-width:0.5;opacity:1.0;" x1="597.601" x2="597.601" y1="600.785" y2="720.121"/>
  <line id="left-margin-Ultralight-S" style="fill:none;stroke:#00AEEF;stroke-width:0.5;opacity:1.0;" x1="521.821" x2="521.821" y1="600.785" y2="720.121"/>
 </g>
 <g id="Symbols">
  <g id="Black-S" transform="matrix(1 0 0 1 2890.85 696)">
   <path class="monochrome-0 multicolor-0:tintColor hierarchical-0:primary SFSymbolsPreviewWireframe" d="M65.5762-65.0391C70.9473-65.0391 75.3418-69.4336 75.3418-74.8047C75.3418-80.1758 70.9473-84.5703 65.5762-84.5703C60.2051-84.5703 55.8105-80.1758 55.8105-74.8047C55.8105-69.4336 60.2051-65.0391 65.5762-65.0391ZM44.4336-0.976562C47.3145-0.976562 49.6582-3.32031 49.6582-6.15234L49.6582-27.4414C49.6582-28.6621 49.1699-29.7852 48.4375-30.7129L38.9648-42.334C38.7207-42.627 38.7695-42.9688 39.0625-43.1152L50.3906-49.0234C50.7324-49.2188 51.0254-49.1211 51.0742-48.7793L52.0996-41.7969C52.3926-39.8926 53.5156-38.5254 55.4199-37.5488L66.9922-31.7383C70.7031-29.8828 73.584-31.3477 74.6582-33.6914C75.7324-35.9863 75.0977-39.1602 71.875-40.8203L61.9629-45.8496L60.4004-57.666C59.4727-64.8438 51.416-69.2871 43.9453-65.3809L28.6621-57.373C20.9961-53.3691 19.9707-44.5801 25.6836-38.916L39.3555-25.293L39.3555-6.15234C39.3555-3.32031 41.6504-0.976562 44.4336-0.976562ZM11.8164-25.4395C13.623-22.2168 17.041-21.1914 20.3125-21.9238L29.1016-23.8281C30.7617-24.1699 31.8848-25.5371 31.8848-27.2461C31.8848-29.0039 30.6152-30.3223 28.9551-30.6152L13.9648-33.2031C10.5957-33.7891 8.78906-30.8594 10.3516-28.0762ZM17.6758-26.6113L28.6621 6.20117L36.2305 3.51562L25.4395-28.9551ZM44.3359 14.0137C54.248 14.0137 62.1582 6.00586 62.1582-3.75977C62.1582-10.5957 58.252-16.5527 52.5879-19.5312L52.5879-8.34961C53.3203-7.03125 53.6621-5.51758 53.6621-3.75977C53.6621 1.5625 49.707 5.51758 44.3359 5.51758C39.0625 5.51758 35.0098 1.46484 35.0098-3.75977C35.0098-5.61523 35.498-7.27539 36.4258-8.69141L36.4258-19.6289C30.6152-16.7969 26.5625-10.6445 26.5625-3.75977C26.5625 6.00586 34.668 14.0137 44.3359 14.0137ZM52.3438 4.10156L60.0098 6.64062L69.7754-23.291C70.459-25.3418 69.4336-27.832 67.2852-28.4668C65.0879-29.1504 62.8906-27.8809 62.2559-25.9277ZM21.3379 8.25195C18.75 9.91211 19.6289 14.0137 22.7539 14.0137L65.918 14.0137C69.043 14.0137 69.873 9.91211 67.334 8.25195L57.1777 1.66016L48.1934 7.8125L40.5273 7.8125L31.4941 1.66016Z"/>
  </g>
  <g id="Regular-S" transform="matrix(1 0 0 1 1409.37 696)">
   <path class="monochrome-0 multicolor-0:tintColor hierarchical-0:primary SFSymbolsPreviewWireframe" d="M62.0605-63.8672C66.748-63.8672 70.5078-67.6758 70.5078-72.4121C70.5078-77.0996 66.748-80.8594 62.0605-80.8594C57.3242-80.8594 53.5156-77.0996 53.5156-72.4121C53.5156-67.6758 57.3242-63.8672 62.0605-63.8672ZM42.7246-3.95508C44.9707-3.95508 46.8262-5.76172 46.8262-7.95898L46.8262-28.3691C46.8262-29.3457 46.4844-30.2246 45.8984-30.9082L36.6699-42.1875C36.084-42.9199 36.2793-43.7012 37.0117-44.0918L48.1934-49.9023C49.0234-50.3418 49.8535-50.0488 50-49.1211L50.9766-42.1875C51.1719-40.6738 52.0508-39.6484 53.6621-38.8672L64.7461-33.3008C67.7734-31.7871 70.1172-32.959 70.8984-34.8633C71.6309-36.6699 71.0449-39.0625 68.5547-40.332L58.6426-45.3613L57.0801-57.1289C56.2012-63.3789 49.2676-67.2363 42.6758-63.7695L28.0762-56.1523C21.3379-52.6367 20.4102-44.9707 25.4395-39.9902L38.7695-26.6602L38.7695-7.95898C38.7695-5.76172 40.5762-3.95508 42.7246-3.95508ZM11.5723-29.1504C13.0859-26.416 15.918-25.5859 18.75-26.2207L27.1484-28.0762C28.3203-28.3203 29.0527-29.1992 29.0527-30.4199C29.0527-31.5918 28.2227-32.4707 27.0508-32.666L12.6953-35.1562C10.3027-35.5957 9.08203-33.6426 10.2051-31.6406ZM18.1152-28.9062L28.6133 2.19727L33.252 0.585938L22.9004-30.3223ZM42.627 10.3027C51.3672 10.3027 58.3008 3.27148 58.3008-5.32227C58.3008-11.377 54.834-16.6016 49.8047-19.1895L49.8047-12.8418C51.8066-10.9375 52.9785-8.30078 52.9785-5.32227C52.9785 0.341797 48.3398 4.98047 42.627 4.98047C37.0605 4.98047 32.373 0.244141 32.373-5.32227C32.373-8.30078 33.6914-11.0352 35.7422-12.9883L35.7422-19.2871C30.6152-16.8457 27.002-11.4258 27.002-5.32227C27.002 3.27148 34.1309 10.3027 42.627 10.3027ZM52.002 1.07422L56.7383 2.68555L66.3574-26.6602C66.7969-27.8809 66.1133-29.3945 64.8926-29.7852C63.4766-30.1758 62.207-29.4434 61.8164-28.1738ZM21.1914 6.64062C19.5312 7.76367 19.9707 10.3027 21.9727 10.3027L63.2812 10.3027C65.2832 10.3027 65.7715 7.71484 64.1113 6.64062L54.9316 0.634766L46.6309 6.34766L38.6719 6.34766L30.3223 0.634766Z"/>
  </g>
  <g id="Ultralight-S" transform="matrix(1 0 0 1 521.821 696)">
   <path class="monochrome-0 multicolor-0:tintColor hierarchical-0:primary SFSymbolsPreviewWireframe" d="M58.2461-61.3696C62.4795-61.3696 65.9668-64.8604 65.9668-69.0972C65.9668-73.3306 62.4795-76.8179 58.2461-76.8179C53.9639-76.8179 50.4732-73.3306 50.4732-69.0972C50.4732-64.8604 53.9639-61.3696 58.2461-61.3696ZM39.7276-5.99852C41.792-5.99852 43.4658-7.66893 43.4658-9.63915L43.4658-28.1875C43.4658-29.0732 43.1695-29.8613 42.6289-30.4995L34.2632-40.7798C33.7227-41.4214 33.918-42.1572 34.5596-42.5025L44.7422-47.8135C45.4815-48.2075 46.2207-47.9146 46.3672-47.0322L47.253-40.7798C47.4483-39.4024 48.2364-38.4678 49.7115-37.7319L59.751-32.7105C62.3243-31.4238 64.6226-32.5503 65.2676-34.3638C65.9092-35.9888 65.4595-37.9273 63.2417-39.0606L54.2832-43.6358L52.8116-54.3589C52.0235-60.0186 45.7256-63.5127 39.6787-60.3638L26.4414-53.4732C20.2935-50.2754 19.4566-43.2905 24.0317-38.7188L36.1812-26.6602L36.1812-9.63915C36.1812-7.66893 37.8516-5.99852 39.7276-5.99852ZM11.436-28.9233C12.8589-26.416 15.4185-25.7222 17.9326-26.2661L25.5591-27.9399C26.6401-28.1841 27.3272-28.9268 27.3272-30.0566C27.3272-31.1377 26.5425-31.9258 25.5068-32.1211L12.4683-34.3843C10.2573-34.7783 9.12744-33.0068 10.1597-31.1865ZM18.7964-27.9526L28.5679 0.880381L30.709 0.177249L21.0386-28.5967ZM39.6753 5.85257C47.0987 5.85257 52.5337 0.365257 52.5337-7.00243C52.5337-11.604 50.3838-15.4209 46.8531-17.7363L46.8531-14.9306C49.0821-12.9809 50.4356-10.1172 50.4356-7.00243C50.4356-1.11132 45.6153 3.70899 39.6753 3.70899C33.8819 3.70899 28.9673-1.20897 28.9673-7.00243C28.9673-10.1626 30.4673-13.124 32.7451-15.1225L32.7451-17.7886C29.2075-15.5742 26.8657-11.6528 26.8657-7.00243C26.8657 0.319847 32.4507 5.85257 39.6753 5.85257ZM48.5508 0.347662L50.7896 1.05079L60.5904-28.0225C60.8482-28.7436 60.4371-29.3037 59.8975-29.4673C59.2989-29.6309 58.6651-29.3525 58.4107-28.5825ZM20.5557 4.23391C19.4404 4.99367 19.8345 6.30667 20.8828 6.30667L58.4678 6.30667C59.4253 6.30667 59.8228 4.85403 58.8438 4.23391L50.8448-1.0454L43.4976 4.03176L35.9019 4.03176L28.5059-1.0454Z"/>
  </g>
 </g>
</svg>
