<?xml version="1.0" encoding="UTF-8"?>
<!--Generator: Apple Native CoreSVG 336-->
<!DOCTYPE svg
PUBLIC "-//W3C//DTD SVG 1.1//EN"
       "http://www.w3.org/Graphics/SVG/1.1/DTD/svg11.dtd">
<svg version="1.1" xmlns="http://www.w3.org/2000/svg" xmlns:xlink="http://www.w3.org/1999/xlink" viewBox="0 0 3300 2200">
 <!--glyph: "101549", point size: 100.0, font version: "20.0d8e1", template writer version: "138.0.0"-->
 <style>.monochrome-0 {-sfsymbols-motion-group:0;-sfsymbols-layer-tags:figure.water.fitness}

.multicolor-0:tintColor {-sfsymbols-motion-group:0;-sfsymbols-layer-tags:figure.water.fitness}

.hierarchical-0:primary {-sfsymbols-motion-group:0;-sfsymbols-layer-tags:figure.water.fitness}

.SFSymbolsPreviewWireframe {fill:none;opacity:1.0;stroke:black;stroke-width:0.5}
</style>
 <g id="Notes">
  <rect height="2200" id="artboard" style="fill:white;opacity:1" width="3300" x="0" y="0"/>
  <line style="fill:none;stroke:black;opacity:1;stroke-width:0.5;" x1="263" x2="3036" y1="292" y2="292"/>
  <text style="stroke:none;fill:black;font-family:sans-serif;font-size:13;font-weight:bold;" transform="matrix(1 0 0 1 263 322)">Weight/Scale Variations</text>
  <text style="stroke:none;fill:black;font-family:sans-serif;font-size:13;text-anchor:middle;" transform="matrix(1 0 0 1 559.711 322)">Ultralight</text>
  <text style="stroke:none;fill:black;font-family:sans-serif;font-size:13;text-anchor:middle;" transform="matrix(1 0 0 1 856.422 322)">Thin</text>
  <text style="stroke:none;fill:black;font-family:sans-serif;font-size:13;text-anchor:middle;" transform="matrix(1 0 0 1 1153.13 322)">Light</text>
  <text style="stroke:none;fill:black;font-family:sans-serif;font-size:13;text-anchor:middle;" transform="matrix(1 0 0 1 1449.84 322)">Regular</text>
  <text style="stroke:none;fill:black;font-family:sans-serif;font-size:13;text-anchor:middle;" transform="matrix(1 0 0 1 1746.56 322)">Medium</text>
  <text style="stroke:none;fill:black;font-family:sans-serif;font-size:13;text-anchor:middle;" transform="matrix(1 0 0 1 2043.27 322)">Semibold</text>
  <text style="stroke:none;fill:black;font-family:sans-serif;font-size:13;text-anchor:middle;" transform="matrix(1 0 0 1 2339.98 322)">Bold</text>
  <text style="stroke:none;fill:black;font-family:sans-serif;font-size:13;text-anchor:middle;" transform="matrix(1 0 0 1 2636.69 322)">Heavy</text>
  <text style="stroke:none;fill:black;font-family:sans-serif;font-size:13;text-anchor:middle;" transform="matrix(1 0 0 1 2933.4 322)">Black</text>
  <line style="fill:none;stroke:black;opacity:1;stroke-width:0.5;" x1="263" x2="3036" y1="1903" y2="1903"/>
  <g transform="matrix(0.2 0 0 0.2 263 1933)">
   <path d="m46.2402 4.15039c21.7773 0 39.4531-17.627 39.4531-39.4043s-17.6758-39.4043-39.4531-39.4043c-21.7285 0-39.4043 17.627-39.4043 39.4043s17.6758 39.4043 39.4043 39.4043Zm0-7.42188c-17.6758 0-31.9336-14.3066-31.9336-31.9824s14.2578-31.9824 31.9336-31.9824 31.9824 14.3066 31.9824 31.9824-14.3066 31.9824-31.9824 31.9824Zm-17.9688-31.9824c0 2.14844 1.51367 3.61328 3.75977 3.61328h10.498v10.5957c0 2.19727 1.46484 3.71094 3.61328 3.71094 2.24609 0 3.71094-1.51367 3.71094-3.71094v-10.5957h10.5957c2.19727 0 3.71094-1.46484 3.71094-3.61328 0-2.19727-1.51367-3.71094-3.71094-3.71094h-10.5957v-10.5469c0-2.24609-1.46484-3.75977-3.71094-3.75977-2.14844 0-3.61328 1.51367-3.61328 3.75977v10.5469h-10.498c-2.24609 0-3.75977 1.51367-3.75977 3.71094Z"/>
  </g>
  <g transform="matrix(0.2 0 0 0.2 281.506 1933)">
   <path d="m58.5449 14.5508c27.4902 0 49.8047-22.3145 49.8047-49.8047s-22.3145-49.8047-49.8047-49.8047-49.8047 22.3145-49.8047 49.8047 22.3145 49.8047 49.8047 49.8047Zm0-8.30078c-22.9492 0-41.5039-18.5547-41.5039-41.5039s18.5547-41.5039 41.5039-41.5039 41.5039 18.5547 41.5039 41.5039-18.5547 41.5039-41.5039 41.5039Zm-22.6562-41.5039c0 2.39258 1.66016 4.00391 4.15039 4.00391h14.3555v14.4043c0 2.44141 1.66016 4.15039 4.05273 4.15039 2.44141 0 4.15039-1.66016 4.15039-4.15039v-14.4043h14.4043c2.44141 0 4.15039-1.61133 4.15039-4.00391 0-2.44141-1.70898-4.15039-4.15039-4.15039h-14.4043v-14.3555c0-2.49023-1.70898-4.19922-4.15039-4.19922-2.39258 0-4.05273 1.70898-4.05273 4.19922v14.3555h-14.3555c-2.49023 0-4.15039 1.70898-4.15039 4.15039Z"/>
  </g>
  <g transform="matrix(0.2 0 0 0.2 304.924 1933)">
   <path d="m74.8535 28.3203c35.1074 0 63.623-28.4668 63.623-63.5742s-28.5156-63.623-63.623-63.623-63.5742 28.5156-63.5742 63.623 28.4668 63.5742 63.5742 63.5742Zm0-9.08203c-30.127 0-54.4922-24.3652-54.4922-54.4922s24.3652-54.4922 54.4922-54.4922 54.4922 24.3652 54.4922 54.4922-24.3652 54.4922-54.4922 54.4922Zm-28.8574-54.4922c0 2.58789 1.85547 4.39453 4.58984 4.39453h19.7266v19.7754c0 2.68555 1.85547 4.58984 4.44336 4.58984 2.68555 0 4.54102-1.85547 4.54102-4.58984v-19.7754h19.7754c2.68555 0 4.58984-1.80664 4.58984-4.39453 0-2.73438-1.85547-4.58984-4.58984-4.58984h-19.7754v-19.7266c0-2.73438-1.85547-4.63867-4.54102-4.63867-2.58789 0-4.44336 1.9043-4.44336 4.63867v19.7266h-19.7266c-2.73438 0-4.58984 1.85547-4.58984 4.58984Z"/>
  </g>
  <text style="stroke:none;fill:black;font-family:sans-serif;font-size:13;font-weight:bold;" transform="matrix(1 0 0 1 263 1953)">Design Variations</text>
  <text style="stroke:none;fill:black;font-family:sans-serif;font-size:13;" transform="matrix(1 0 0 1 263 1971)">Symbols are supported in up to nine weights and three scales.</text>
  <text style="stroke:none;fill:black;font-family:sans-serif;font-size:13;" transform="matrix(1 0 0 1 263 1989)">For optimal layout with text and other symbols, vertically align</text>
  <text style="stroke:none;fill:black;font-family:sans-serif;font-size:13;" transform="matrix(1 0 0 1 263 2007)">symbols with the adjacent text.</text>
  <line style="fill:none;stroke:#00AEEF;stroke-width:0.5;opacity:1.0;" x1="776" x2="776" y1="1919" y2="1933"/>
  <g transform="matrix(0.2 0 0 0.2 776 1933)">
   <path d="m16.5527 0.78125c2.58789 0 3.85742-0.976562 4.78516-3.71094l6.29883-17.2363h28.8086l6.29883 17.2363c0.927734 2.73438 2.19727 3.71094 4.73633 3.71094 2.58789 0 4.24805-1.5625 4.24805-4.00391 0-0.830078-0.146484-1.61133-0.537109-2.63672l-22.9004-60.9863c-1.12305-2.97852-3.125-4.49219-6.25-4.49219-3.02734 0-5.07812 1.46484-6.15234 4.44336l-22.9004 61.084c-0.390625 1.02539-0.537109 1.80664-0.537109 2.63672 0 2.44141 1.5625 3.95508 4.10156 3.95508Zm13.4766-28.3691 11.8652-32.8613h0.244141l11.8652 32.8613Z"/>
  </g>
  <line style="fill:none;stroke:#00AEEF;stroke-width:0.5;opacity:1.0;" x1="792.836" x2="792.836" y1="1919" y2="1933"/>
  <text style="stroke:none;fill:black;font-family:sans-serif;font-size:13;font-weight:bold;" transform="matrix(1 0 0 1 776 1953)">Margins</text>
  <text style="stroke:none;fill:black;font-family:sans-serif;font-size:13;" transform="matrix(1 0 0 1 776 1971)">Leading and trailing margins on the left and right side of each symbol</text>
  <text style="stroke:none;fill:black;font-family:sans-serif;font-size:13;" transform="matrix(1 0 0 1 776 1989)">can be adjusted by modifying the x-location of the margin guidelines.</text>
  <text style="stroke:none;fill:black;font-family:sans-serif;font-size:13;" transform="matrix(1 0 0 1 776 2007)">Modifications are automatically applied proportionally to all</text>
  <text style="stroke:none;fill:black;font-family:sans-serif;font-size:13;" transform="matrix(1 0 0 1 776 2025)">scales and weights.</text>
  <g transform="matrix(0.2 0 0 0.2 1289 1933)">
   <path d="m14.209 9.32617 8.49609 8.54492c4.29688 4.3457 9.22852 4.05273 13.8672-1.07422l53.4668-58.9355-4.83398-4.88281-53.0762 58.3984c-1.75781 2.00195-3.41797 2.49023-5.76172 0.146484l-5.85938-5.81055c-2.34375-2.29492-1.80664-4.00391 0.195312-5.81055l57.373-54.0039-4.88281-4.83398-57.959 54.4434c-4.93164 4.58984-5.32227 9.47266-1.02539 13.8184Zm32.0801-90.9668c-2.09961 2.05078-2.24609 4.93164-1.07422 6.88477 1.17188 1.80664 3.4668 2.97852 6.68945 2.14844 7.32422-1.70898 14.9414-2.00195 22.0703 2.68555l-2.92969 7.27539c-1.70898 4.15039-0.830078 7.08008 1.85547 9.81445l11.4746 11.5723c2.44141 2.44141 4.49219 2.53906 7.32422 2.05078l5.32227-0.976562 3.32031 3.36914-0.195312 2.7832c-0.195312 2.49023 0.439453 4.39453 2.88086 6.78711l3.80859 3.71094c2.39258 2.39258 5.46875 2.53906 7.8125 0.195312l14.5508-14.5996c2.34375-2.34375 2.24609-5.32227-0.146484-7.71484l-3.85742-3.80859c-2.39258-2.39258-4.24805-3.17383-6.64062-2.97852l-2.88086 0.244141-3.22266-3.17383 1.2207-5.61523c0.634766-2.83203-0.146484-5.0293-3.07617-7.95898l-10.9863-10.9375c-16.6992-16.6016-38.8672-16.2109-53.3203-1.75781Zm7.4707 1.85547c12.1582-8.88672 28.6133-7.37305 39.7461 3.75977l12.1582 12.0605c1.17188 1.17188 1.36719 2.09961 1.02539 3.80859l-1.61133 7.42188 7.51953 7.42188 4.93164-0.292969c1.26953-0.0488281 1.66016 0.0488281 2.63672 1.02539l2.88086 2.88086-12.207 12.207-2.88086-2.88086c-0.976562-0.976562-1.12305-1.36719-1.07422-2.68555l0.341797-4.88281-7.4707-7.42188-7.61719 1.26953c-1.61133 0.341797-2.34375 0.195312-3.56445-0.976562l-10.0098-10.0098c-1.26953-1.17188-1.41602-2.00195-0.634766-3.85742l4.39453-10.4492c-7.8125-7.27539-17.9688-10.4004-28.125-7.42188-0.78125 0.195312-1.07422-0.439453-0.439453-0.976562Z"/>
  </g>
  <text style="stroke:none;fill:black;font-family:sans-serif;font-size:13;font-weight:bold;" transform="matrix(1 0 0 1 1289 1953)">Exporting</text>
  <text style="stroke:none;fill:black;font-family:sans-serif;font-size:13;" transform="matrix(1 0 0 1 1289 1971)">Symbols should be outlined when exporting to ensure the</text>
  <text style="stroke:none;fill:black;font-family:sans-serif;font-size:13;" transform="matrix(1 0 0 1 1289 1989)">design is preserved when submitting to Xcode.</text>
  <text id="template-version" style="stroke:none;fill:black;font-family:sans-serif;font-size:13;text-anchor:end;" transform="matrix(1 0 0 1 3036 1933)">Template v.6.0</text>
  <text style="stroke:none;fill:black;font-family:sans-serif;font-size:13;text-anchor:end;" transform="matrix(1 0 0 1 3036 1951)">Requires Xcode 16 or greater</text>
  <text id="descriptive-name" style="stroke:none;fill:black;font-family:sans-serif;font-size:13;text-anchor:end;" transform="matrix(1 0 0 1 3036 1969)">Generated from figure.water.fitness</text>
  <text style="stroke:none;fill:black;font-family:sans-serif;font-size:13;text-anchor:end;" transform="matrix(1 0 0 1 3036 1987)">Typeset at 100.0 points</text>
  <text style="stroke:none;fill:black;font-family:sans-serif;font-size:13;" transform="matrix(1 0 0 1 263 726)">Small</text>
  <text style="stroke:none;fill:black;font-family:sans-serif;font-size:13;" transform="matrix(1 0 0 1 263 1156)">Medium</text>
  <text style="stroke:none;fill:black;font-family:sans-serif;font-size:13;" transform="matrix(1 0 0 1 263 1586)">Large</text>
 </g>
 <g id="Guides">
  <g id="H-reference" style="fill:#27AAE1;stroke:none;" transform="matrix(1 0 0 1 339 696)">
   <path d="M0.993654 0L3.63775 0L29.3281-67.1323L30.0303-67.1323L30.0303-70.459L28.1226-70.459ZM11.6885-24.4799L46.9815-24.4799L46.2315-26.7285L12.4385-26.7285ZM55.1196 0L57.7637 0L30.6382-70.459L29.4326-70.459L29.4326-67.1323Z"/>
  </g>
  <line id="Baseline-S" style="fill:none;stroke:#27AAE1;opacity:1;stroke-width:0.5;" x1="263" x2="3036" y1="696" y2="696"/>
  <line id="Capline-S" style="fill:none;stroke:#27AAE1;opacity:1;stroke-width:0.5;" x1="263" x2="3036" y1="625.541" y2="625.541"/>
  <g id="H-reference" style="fill:#27AAE1;stroke:none;" transform="matrix(1 0 0 1 339 1126)">
   <path d="M0.993654 0L3.63775 0L29.3281-67.1323L30.0303-67.1323L30.0303-70.459L28.1226-70.459ZM11.6885-24.4799L46.9815-24.4799L46.2315-26.7285L12.4385-26.7285ZM55.1196 0L57.7637 0L30.6382-70.459L29.4326-70.459L29.4326-67.1323Z"/>
  </g>
  <line id="Baseline-M" style="fill:none;stroke:#27AAE1;opacity:1;stroke-width:0.5;" x1="263" x2="3036" y1="1126" y2="1126"/>
  <line id="Capline-M" style="fill:none;stroke:#27AAE1;opacity:1;stroke-width:0.5;" x1="263" x2="3036" y1="1055.54" y2="1055.54"/>
  <g id="H-reference" style="fill:#27AAE1;stroke:none;" transform="matrix(1 0 0 1 339 1556)">
   <path d="M0.993654 0L3.63775 0L29.3281-67.1323L30.0303-67.1323L30.0303-70.459L28.1226-70.459ZM11.6885-24.4799L46.9815-24.4799L46.2315-26.7285L12.4385-26.7285ZM55.1196 0L57.7637 0L30.6382-70.459L29.4326-70.459L29.4326-67.1323Z"/>
  </g>
  <line id="Baseline-L" style="fill:none;stroke:#27AAE1;opacity:1;stroke-width:0.5;" x1="263" x2="3036" y1="1556" y2="1556"/>
  <line id="Capline-L" style="fill:none;stroke:#27AAE1;opacity:1;stroke-width:0.5;" x1="263" x2="3036" y1="1485.54" y2="1485.54"/>
  <line id="right-margin-Black-S" style="fill:none;stroke:#00AEEF;stroke-width:0.5;opacity:1.0;" x1="2993.34" x2="2993.34" y1="600.785" y2="720.121"/>
  <line id="left-margin-Black-S" style="fill:none;stroke:#00AEEF;stroke-width:0.5;opacity:1.0;" x1="2873.46" x2="2873.46" y1="600.785" y2="720.121"/>
  <line id="right-margin-Regular-S" style="fill:none;stroke:#00AEEF;stroke-width:0.5;opacity:1.0;" x1="1505.29" x2="1505.29" y1="600.785" y2="720.121"/>
  <line id="left-margin-Regular-S" style="fill:none;stroke:#00AEEF;stroke-width:0.5;opacity:1.0;" x1="1394.4" x2="1394.4" y1="600.785" y2="720.121"/>
  <line id="right-margin-Ultralight-S" style="fill:none;stroke:#00AEEF;stroke-width:0.5;opacity:1.0;" x1="612.953" x2="612.953" y1="600.785" y2="720.121"/>
  <line id="left-margin-Ultralight-S" style="fill:none;stroke:#00AEEF;stroke-width:0.5;opacity:1.0;" x1="506.469" x2="506.469" y1="600.785" y2="720.121"/>
 </g>
 <g id="Symbols">
  <g id="Black-S" transform="matrix(1 0 0 1 2873.46 696)">
   <path class="monochrome-0 multicolor-0:tintColor hierarchical-0:primary SFSymbolsPreviewWireframe" d="M56.8848-53.125C62.2559-53.125 66.6504-57.5195 66.6504-62.8906C66.6504-68.2617 62.2559-72.6562 56.8848-72.6562C51.5137-72.6562 47.1191-68.2617 47.1191-62.8906C47.1191-57.5195 51.5137-53.125 56.8848-53.125ZM12.7441-58.252L42.627-42.2363C43.3594-41.8457 43.6035-41.4551 43.4082-40.6738L40.625-30.6641C49.9023-30.6641 53.6621-24.1211 61.084-24.1211C61.4258-24.1211 61.7676-24.1699 62.1582-24.3164L66.1133-39.1113C66.4551-40.4297 66.748-40.8691 68.0176-41.5527L99.3652-58.252C102.051-59.668 103.076-63.1348 101.66-65.8691C100.098-68.5547 96.8262-69.6777 94.043-68.2129L62.9883-51.709C58.252-49.2188 54.1016-48.9258 48.5352-51.9043L18.0176-68.2129C15.2832-69.6777 11.8652-68.5547 10.4492-65.8203C8.98438-63.1348 10.0098-59.7168 12.7441-58.252ZM15.5762-11.2305L20.2637-11.2305C31.9336-11.2305 34.0332-17.7734 40.6738-17.7734C45.8496-17.7734 49.3652-11.2305 61.084-11.2305C72.8027-11.2305 76.3184-17.7734 81.4941-17.7734C88.1348-17.7734 90.2344-11.2305 101.904-11.2305L106.592-11.2305C108.545-11.2305 110.107-12.793 110.107-14.7461C110.107-16.6992 108.545-18.2617 106.592-18.2617L101.904-18.2617C95.0195-18.2617 92.7246-24.8047 81.4941-24.8047C71.7285-24.8047 67.9688-18.2617 61.084-18.2617C54.1992-18.2617 50.4395-24.8047 40.6738-24.8047C29.4434-24.8047 27.1484-18.2617 20.2637-18.2617L15.5762-18.2617C13.623-18.2617 12.0605-16.6992 12.0605-14.7461C12.0605-12.793 13.623-11.2305 15.5762-11.2305ZM15.918 2.19727C17.5293 2.19727 18.8477 0.878906 18.8477-0.732422C18.8477-2.34375 17.5293-3.66211 15.918-3.66211C14.3066-3.66211 12.9883-2.34375 12.9883-0.732422C12.9883 0.878906 14.3066 2.19727 15.918 2.19727ZM23.7305 0.830078C25.3418 0.830078 26.6602-0.488281 26.6602-2.09961C26.6602-3.71094 25.3418-5.0293 23.7305-5.0293C22.1191-5.0293 20.8008-3.71094 20.8008-2.09961C20.8008-0.488281 22.1191 0.830078 23.7305 0.830078ZM30.8594-2.53906C32.4707-2.53906 33.7891-3.85742 33.7891-5.46875C33.7891-7.08008 32.4707-8.39844 30.8594-8.39844C29.248-8.39844 27.9297-7.08008 27.9297-5.46875C27.9297-3.85742 29.248-2.53906 30.8594-2.53906ZM38.4766-4.88281C40.0879-4.88281 41.4062-6.20117 41.4062-7.8125C41.4062-9.42383 40.0879-10.7422 38.4766-10.7422C36.8652-10.7422 35.5469-9.42383 35.5469-7.8125C35.5469-6.20117 36.8652-4.88281 38.4766-4.88281ZM46.0449-2.53906C47.6562-2.53906 48.9746-3.85742 48.9746-5.46875C48.9746-7.08008 47.6562-8.39844 46.0449-8.39844C44.4336-8.39844 43.1152-7.08008 43.1152-5.46875C43.1152-3.85742 44.4336-2.53906 46.0449-2.53906ZM53.1738 0.830078C54.7852 0.830078 56.1035-0.488281 56.1035-2.09961C56.1035-3.71094 54.7852-5.0293 53.1738-5.0293C51.5625-5.0293 50.2441-3.71094 50.2441-2.09961C50.2441-0.488281 51.5625 0.830078 53.1738 0.830078ZM61.084 2.19727C62.6953 2.19727 64.0137 0.878906 64.0137-0.732422C64.0137-2.34375 62.6953-3.66211 61.084-3.66211C59.4727-3.66211 58.1543-2.34375 58.1543-0.732422C58.1543 0.878906 59.4727 2.19727 61.084 2.19727ZM68.9941 0.830078C70.6055 0.830078 71.9238-0.488281 71.9238-2.09961C71.9238-3.71094 70.6055-5.0293 68.9941-5.0293C67.3828-5.0293 66.0645-3.71094 66.0645-2.09961C66.0645-0.488281 67.3828 0.830078 68.9941 0.830078ZM76.123-2.53906C77.7344-2.53906 79.0527-3.85742 79.0527-5.46875C79.0527-7.08008 77.7344-8.39844 76.123-8.39844C74.5117-8.39844 73.1934-7.08008 73.1934-5.46875C73.1934-3.85742 74.5117-2.53906 76.123-2.53906ZM83.6914-4.88281C85.3027-4.88281 86.6211-6.20117 86.6211-7.8125C86.6211-9.42383 85.3027-10.7422 83.6914-10.7422C82.0801-10.7422 80.7617-9.42383 80.7617-7.8125C80.7617-6.20117 82.0801-4.88281 83.6914-4.88281ZM91.3086-2.53906C92.9199-2.53906 94.2383-3.85742 94.2383-5.46875C94.2383-7.08008 92.9199-8.39844 91.3086-8.39844C89.6973-8.39844 88.3789-7.08008 88.3789-5.46875C88.3789-3.85742 89.6973-2.53906 91.3086-2.53906ZM98.4375 0.830078C100.049 0.830078 101.367-0.488281 101.367-2.09961C101.367-3.71094 100.049-5.0293 98.4375-5.0293C96.8262-5.0293 95.5078-3.71094 95.5078-2.09961C95.5078-0.488281 96.8262 0.830078 98.4375 0.830078ZM106.25 2.19727C107.861 2.19727 109.18 0.878906 109.18-0.732422C109.18-2.34375 107.861-3.66211 106.25-3.66211C104.639-3.66211 103.32-2.34375 103.32-0.732422C103.32 0.878906 104.639 2.19727 106.25 2.19727Z"/>
  </g>
  <g id="Regular-S" transform="matrix(1 0 0 1 1394.4 696)">
   <path class="monochrome-0 multicolor-0:tintColor hierarchical-0:primary SFSymbolsPreviewWireframe" d="M54.9805-51.3184C59.7168-51.3184 63.5254-55.127 63.5254-59.8145C63.5254-64.5508 59.7168-68.3105 54.9805-68.3105C50.293-68.3105 46.4844-64.5508 46.4844-59.8145C46.4844-55.127 50.293-51.3184 54.9805-51.3184ZM13.2324-57.3242L41.8457-41.9434C42.7734-41.4551 43.3105-40.4785 43.0176-39.4531L40.2832-29.3945C47.6562-28.0273 49.9512-23.4863 55.4199-23.4863C56.8848-23.4863 58.0566-23.8281 59.1797-24.3652L62.9883-38.3789C63.3789-39.7949 63.7695-40.5273 65.1855-41.3086L95.166-57.3242C97.3145-58.4961 98.1445-61.1328 97.0215-63.2812C95.8008-65.4297 93.1641-66.3086 91.0156-65.1367L61.2793-49.3652C56.5918-46.875 52.1973-46.582 46.582-49.5605L17.4316-65.1367C15.2344-66.3086 12.5488-65.4297 11.4258-63.2812C10.2539-61.1328 11.084-58.4961 13.2324-57.3242ZM12.1094-12.8906L16.1621-12.8906C26.6113-12.8906 28.8574-19.1895 35.791-19.1895C42.7734-19.1895 45.0195-12.8906 55.4199-12.8906C65.8691-12.8906 68.1152-19.1895 75.0488-19.1895C82.0312-19.1895 84.2773-12.8906 94.6777-12.8906L98.7305-12.8906C100.049-12.8906 101.123-13.9648 101.123-15.2832C101.123-16.6016 100.049-17.627 98.7305-17.627L94.6777-17.627C87.5-17.627 85.0586-23.9258 75.0488-23.9258C65.0879-23.9258 62.6465-17.627 55.4199-17.627C48.2422-17.627 45.8008-23.9258 35.791-23.9258C25.8301-23.9258 23.3887-17.627 16.1621-17.627L12.1094-17.627C10.791-17.627 9.76562-16.6016 9.76562-15.2832C9.76562-13.9648 10.791-12.8906 12.1094-12.8906ZM13.1348-2.19727C14.4531-2.19727 15.5273-3.22266 15.5273-4.58984C15.5273-5.9082 14.4531-6.98242 13.1348-6.98242C11.7676-6.98242 10.7422-5.9082 10.7422-4.58984C10.7422-3.22266 11.7676-2.19727 13.1348-2.19727ZM20.3125-3.51562C21.6309-3.51562 22.7051-4.54102 22.7051-5.9082C22.7051-7.22656 21.6309-8.30078 20.3125-8.30078C18.9453-8.30078 17.9199-7.22656 17.9199-5.9082C17.9199-4.54102 18.9453-3.51562 20.3125-3.51562ZM27.0508-6.68945C28.418-6.68945 29.4434-7.76367 29.4434-9.08203C29.4434-10.4492 28.418-11.4746 27.0508-11.4746C25.7324-11.4746 24.6582-10.4492 24.6582-9.08203C24.6582-7.76367 25.7324-6.68945 27.0508-6.68945ZM34.375-8.44727C35.6934-8.44727 36.7676-9.52148 36.7676-10.8398C36.7676-12.207 35.6934-13.2324 34.375-13.2324C33.0078-13.2324 31.9824-12.207 31.9824-10.8398C31.9824-9.52148 33.0078-8.44727 34.375-8.44727ZM41.6504-6.68945C43.0176-6.68945 44.043-7.76367 44.043-9.08203C44.043-10.4492 43.0176-11.4746 41.6504-11.4746C40.332-11.4746 39.2578-10.4492 39.2578-9.08203C39.2578-7.76367 40.332-6.68945 41.6504-6.68945ZM48.4863-3.51562C49.8047-3.51562 50.8789-4.54102 50.8789-5.9082C50.8789-7.22656 49.8047-8.30078 48.4863-8.30078C47.168-8.30078 46.0938-7.22656 46.0938-5.9082C46.0938-4.54102 47.168-3.51562 48.4863-3.51562ZM55.4688-2.19727C56.8359-2.19727 57.8613-3.22266 57.8613-4.58984C57.8613-5.9082 56.8359-6.98242 55.4688-6.98242C54.1504-6.98242 53.0762-5.9082 53.0762-4.58984C53.0762-3.22266 54.1504-2.19727 55.4688-2.19727ZM62.5-3.51562C63.8184-3.51562 64.8926-4.54102 64.8926-5.9082C64.8926-7.22656 63.8184-8.30078 62.5-8.30078C61.1328-8.30078 60.1074-7.22656 60.1074-5.9082C60.1074-4.54102 61.1328-3.51562 62.5-3.51562ZM69.2871-6.68945C70.6543-6.68945 71.6797-7.76367 71.6797-9.08203C71.6797-10.4492 70.6543-11.4746 69.2871-11.4746C67.9688-11.4746 66.9434-10.4492 66.9434-9.08203C66.9434-7.76367 67.9688-6.68945 69.2871-6.68945ZM76.6113-8.44727C77.9297-8.44727 79.0039-9.52148 79.0039-10.8398C79.0039-12.207 77.9297-13.2324 76.6113-13.2324C75.293-13.2324 74.2188-12.207 74.2188-10.8398C74.2188-9.52148 75.293-8.44727 76.6113-8.44727ZM83.8867-6.68945C85.2539-6.68945 86.2793-7.76367 86.2793-9.08203C86.2793-10.4492 85.2539-11.4746 83.8867-11.4746C82.5684-11.4746 81.543-10.4492 81.543-9.08203C81.543-7.76367 82.5684-6.68945 83.8867-6.68945ZM90.6738-3.51562C92.041-3.51562 93.0664-4.54102 93.0664-5.9082C93.0664-7.22656 92.041-8.30078 90.6738-8.30078C89.3555-8.30078 88.2812-7.22656 88.2812-5.9082C88.2812-4.54102 89.3555-3.51562 90.6738-3.51562ZM97.8516-2.19727C99.1699-2.19727 100.244-3.22266 100.244-4.58984C100.244-5.9082 99.1699-6.98242 97.8516-6.98242C96.5332-6.98242 95.459-5.9082 95.459-4.58984C95.459-3.22266 96.5332-2.19727 97.8516-2.19727Z"/>
  </g>
  <g id="Ultralight-S" transform="matrix(1 0 0 1 506.469 696)">
   <path class="monochrome-0 multicolor-0:tintColor hierarchical-0:primary SFSymbolsPreviewWireframe" d="M53.709-49.8652C57.9458-49.8652 61.4365-53.356 61.4365-57.6348C61.4365-61.8716 57.9458-65.3589 53.709-65.3589C49.4756-65.3589 45.9849-61.8716 45.9849-57.6348C45.9849-53.356 49.4756-49.8652 53.709-49.8652ZM15.73-54.5542L41.7549-40.5357C42.5918-40.0928 43.1289-39.207 42.8359-38.2271L40.2378-28.895C45.9761-27.1646 48.9976-23.5771 53.2403-23.5771C54.7959-23.5771 56.1494-24.0552 57.5449-24.7285L60.9903-37.2891C61.3355-38.5689 61.6807-39.2559 63.0059-39.9463L90.2618-54.5542C92.2286-55.5899 92.9678-58.0449 91.981-59.9209C90.8511-61.8877 88.4414-62.6304 86.4746-61.5948L59.4175-47.2764C55.1841-45.0132 51.1983-44.7656 46.0825-47.4717L19.5205-61.5948C17.5503-62.6304 15.0918-61.8877 14.105-59.9209C13.0239-58.0449 13.7632-55.5899 15.73-54.5542ZM10.7925-15.6152L13.9824-15.6152C23.251-15.6152 26.042-21.914 33.6113-21.914C41.1841-21.914 43.9297-15.6152 53.2403-15.6152C62.5088-15.6152 65.2998-21.914 72.8692-21.914C80.4419-21.914 83.1875-15.6152 92.4981-15.6152L95.688-15.6152C96.2344-15.6152 96.7183-16.0991 96.7183-16.6909C96.7183-17.2373 96.2344-17.7178 95.688-17.7178L92.4981-17.7178C84.5938-17.7178 81.7891-24.0166 72.8692-24.0166C63.9072-24.0166 61.148-17.7178 53.2403-17.7178C45.336-17.7178 42.5313-24.0166 33.6113-24.0166C24.6494-24.0166 21.8901-17.7178 13.9824-17.7178L10.7925-17.7178C10.2461-17.7178 9.76562-17.2373 9.76562-16.6909C9.76562-16.0991 10.2461-15.6152 10.7925-15.6152ZM11.9995-5.46677C12.8638-5.46677 13.5293-6.08347 13.5293-6.95115C13.5293-7.81541 12.8638-8.48095 11.9995-8.48095C11.1773-8.48095 10.5151-7.81541 10.5151-6.95115C10.5151-6.08347 11.1773-5.46677 11.9995-5.46677ZM19.0864-6.60349C19.9507-6.60349 20.6162-7.2656 20.6162-8.13328C20.6162-8.99754 19.9507-9.66308 19.0864-9.66308C18.2642-9.66308 17.6021-8.99754 17.6021-8.13328C17.6021-7.2656 18.2642-6.60349 19.0864-6.60349ZM25.5977-9.55027C26.4653-9.55027 27.1275-10.2158 27.1275-11.0801C27.1275-11.9477 26.4653-12.6099 25.5977-12.6099C24.7788-12.6099 24.1133-11.9477 24.1133-11.0801C24.1133-10.2158 24.7788-9.55027 25.5977-9.55027ZM32.5132-11.1264C33.3775-11.1264 34.043-11.792 34.043-12.6562C34.043-13.5239 33.3775-14.1406 32.5132-14.1406C31.6455-14.1406 31.0288-13.5239 31.0288-12.6562C31.0288-11.792 31.6455-11.1264 32.5132-11.1264ZM39.3799-9.55027C40.2476-9.55027 40.8643-10.2158 40.8643-11.0801C40.8643-11.9477 40.2476-12.6099 39.3799-12.6099C38.5156-12.6099 37.8501-11.9477 37.8501-11.0801C37.8501-10.2158 38.5156-9.55027 39.3799-9.55027ZM45.9888-6.60349C46.8531-6.60349 47.4732-7.2656 47.4732-8.13328C47.4732-8.99754 46.8531-9.66308 45.9888-9.66308C45.1245-9.66308 44.459-8.99754 44.459-8.13328C44.459-7.2656 45.1245-6.60349 45.9888-6.60349ZM53.2891-5.46677C54.1568-5.46677 54.8189-6.08347 54.8189-6.95115C54.8189-7.81541 54.1568-8.48095 53.2891-8.48095C52.4248-8.48095 51.7593-7.81541 51.7593-6.95115C51.7593-6.08347 52.4248-5.46677 53.2891-5.46677ZM60.5928-6.60349C61.457-6.60349 62.1226-7.2656 62.1226-8.13328C62.1226-8.99754 61.457-9.66308 60.5928-9.66308C59.7251-9.66308 59.1084-8.99754 59.1084-8.13328C59.1084-7.2656 59.7251-6.60349 60.5928-6.60349ZM67.1983-9.55027C68.0659-9.55027 68.7281-10.2158 68.7281-11.0801C68.7281-11.9477 68.0659-12.6099 67.1983-12.6099C66.334-12.6099 65.6719-11.9477 65.6719-11.0801C65.6719-10.2158 66.334-9.55027 67.1983-9.55027ZM74.0684-11.1264C74.9326-11.1264 75.5528-11.792 75.5528-12.6562C75.5528-13.5239 74.9326-14.1406 74.0684-14.1406C73.2041-14.1406 72.5386-13.5239 72.5386-12.6562C72.5386-11.792 73.2041-11.1264 74.0684-11.1264ZM80.9805-9.55027C81.8028-9.55027 82.4649-10.2158 82.4649-11.0801C82.4649-11.9477 81.8028-12.6099 80.9805-12.6099C80.1162-12.6099 79.4541-11.9477 79.4541-11.0801C79.4541-10.2158 80.1162-9.55027 80.9805-9.55027ZM87.4497-6.60349C88.3174-6.60349 88.9795-7.2656 88.9795-8.13328C88.9795-8.99754 88.3174-9.66308 87.4497-9.66308C86.6309-9.66308 85.9654-8.99754 85.9654-8.13328C85.9654-7.2656 86.6309-6.60349 87.4497-6.60349ZM94.4458-5.46677C95.3101-5.46677 95.9756-6.08347 95.9756-6.95115C95.9756-7.81541 95.3101-8.48095 94.4458-8.48095C93.627-8.48095 92.9614-7.81541 92.9614-6.95115C92.9614-6.08347 93.627-5.46677 94.4458-5.46677Z"/>
  </g>
 </g>
</svg>
